<svg xmlns="http://www.w3.org/2000/svg" width="80" height="80" viewBox="0 0 80 80" fill="none">
  <g clip-path="url(#clip0_3325_12963)">
    <path d="M40 41.4529C38.6713 41.4529 37.4217 40.935 36.4822 39.9955C36.1302 39.6436 35.9364 39.1769 35.938 38.6808C35.938 38.1831 36.1318 37.7164 36.4822 37.3645C36.8341 37.0126 37.3008 36.8203 37.7985 36.8203C38.2961 36.8203 38.7628 37.0141 39.1132 37.366C39.3504 37.6033 39.6651 37.7335 39.9985 37.7335C40.3333 37.7335 40.6481 37.6033 40.8837 37.366C41.2357 37.0141 41.7023 36.8203 42.2 36.8203C42.6977 36.8203 43.1644 37.0141 43.5163 37.3645C44.2419 38.0901 44.2419 39.2699 43.5163 39.9955C42.5768 40.935 41.3271 41.4529 40 41.4529Z" fill="black"/>
    <path d="M1.86047 80C0.834108 80 0 79.1659 0 78.1395C0 77.1132 0.834108 76.2791 1.86047 76.2791H10.9752V67.6124C10.9752 63.6171 12.7597 59.7535 16 56.7318C19.0481 53.8899 23.1085 52.0884 27.1426 51.7876C27.3194 51.7457 27.3891 51.7395 28.1023 51.7395H28.7504C29.1767 51.7411 29.7364 51.7426 30.4775 51.7426C30.7876 51.7426 31.1287 51.7426 31.5054 51.7426L32.4589 47.2016C27.8186 44.4977 24.9473 39.5163 24.9473 34.1442V32.876C23 31.631 21.7969 29.4496 21.7969 27.1395V21.1845C21.7969 18.6217 23.2698 16.2481 25.5612 15.0992C26.9333 10.4512 30.4543 6.75039 35.0295 5.14574V1.86047C35.0295 0.834108 35.8636 0 36.8899 0H43.1163C44.1426 0 44.9767 0.834108 44.9767 1.86047V5.14574C49.5519 6.75039 53.0729 10.4512 54.445 15.0992C56.7364 16.2481 58.2093 18.6217 58.2093 21.1845V27.1395C58.2093 29.4496 57.0062 31.631 55.0589 32.876V34.1442C55.0589 39.5163 52.1861 44.4977 47.5457 47.2016L48.4992 51.7426C48.8651 51.7426 49.1969 51.7426 49.4992 51.7426C50.2589 51.7426 50.831 51.7426 51.2636 51.7411H51.9132C52.614 51.7411 52.6837 51.7457 52.862 51.7876C56.8992 52.0884 60.9612 53.8915 64.0093 56.7364C67.2465 59.7581 69.0295 63.6202 69.0295 67.6124V76.2791H78.1442C79.1705 76.2791 80.0047 77.1132 80.0047 78.1395C80.0047 79.1659 79.1705 80 78.1442 80H1.86047ZM65.3039 76.2791V67.6124C65.3039 61.493 59.6915 56.814 54.1581 55.7163C53.1225 62.6946 47.093 67.9163 40 67.9163C32.907 67.9163 26.8775 62.6946 25.8419 55.7163C20.307 56.814 14.6961 61.493 14.6961 67.6124V76.2791H20.2372V72.2837C20.2372 71.2574 21.0713 70.4233 22.0977 70.4233C23.124 70.4233 23.9581 71.2574 23.9581 72.2837V76.2791H56.0419V72.2837C56.0419 71.2574 56.876 70.4233 57.9023 70.4233C58.9287 70.4233 59.7628 71.2574 59.7628 72.2837V76.2791H65.3039ZM29.5721 55.4636C30.4636 60.4667 34.8837 64.1969 40 64.1969C45.1163 64.1969 49.5364 60.4682 50.4279 55.4636H46.986C46.1101 55.4636 45.3457 54.8419 45.1659 53.9845L44.0527 48.6806C42.7364 49.0496 41.3767 49.2372 40.0031 49.2372C38.6295 49.2372 37.2651 49.0496 35.9488 48.6806L34.8357 53.9845C34.6558 54.8403 33.8899 55.462 33.0155 55.462H29.5736L29.5721 55.4636ZM28.6651 34.1442C28.6651 40.414 33.7504 45.5163 40 45.5163C46.2496 45.5163 51.3349 40.4155 51.3349 34.1442V33.9426C51.214 33.9426 51.062 33.9442 50.8512 33.9442H50.1163C49.5442 33.9426 48.7287 33.9411 47.5271 33.9411H46.3938C44.0233 33.9411 42.0341 32.2419 41.6651 29.8992C41.5829 29.3783 41.1395 28.9984 40.6124 28.9984H39.3891C38.8605 28.9984 38.4186 29.3767 38.3364 29.8992C37.9674 32.2419 35.9783 33.9411 33.6078 33.9411H31.2868C30.3101 33.9411 28.7116 33.9411 28.6667 33.9411V34.1426L28.6651 34.1442ZM40.6109 25.2775C42.9814 25.2775 44.9705 26.9783 45.3395 29.3194C45.4217 29.8403 45.8651 30.2202 46.3923 30.2202H51.4016C53.1008 30.2202 54.4837 28.8372 54.4837 27.138V21.1829C54.4837 19.4837 53.1008 18.1008 51.4016 18.1008H28.5953C26.8961 18.1008 25.5132 19.4837 25.5132 21.1829V27.138C25.5132 28.8372 26.8961 30.2202 28.5953 30.2202H33.6047C34.1333 30.2202 34.5752 29.8419 34.6574 29.3194C35.0264 26.9767 37.0155 25.2775 39.386 25.2775H40.6093H40.6109ZM35.0248 14.3814V9.17054C32.7566 10.2837 30.9302 12.1085 29.8171 14.3814H35.0248ZM50.1814 14.3814C49.0667 12.1101 47.2419 10.2837 44.9721 9.17054V14.3814H50.1814ZM41.2512 14.3814V3.72093H38.7457V14.3814H41.2512Z" fill="url(#paint0_linear_3325_12963)"/>
    <path d="M29.8248 24.2698C28.7985 24.2698 27.9644 23.4356 27.9644 22.4093C27.9644 21.3829 28.7985 20.5488 29.8248 20.5488H32.0047C33.031 20.5488 33.8651 21.3829 33.8651 22.4093C33.8651 23.4356 33.031 24.2698 32.0047 24.2698H29.8248Z" fill="black"/>
    <path d="M45.4479 73.7737C44.4215 73.7737 43.5874 72.9396 43.5874 71.9132C43.5874 70.8868 44.4215 70.0527 45.4479 70.0527H51.6742C52.7006 70.0527 53.5347 70.8868 53.5347 71.9132C53.5347 72.9396 52.7006 73.7737 51.6742 73.7737H45.4479Z" fill="black"/>
  </g>
  <defs>
    <linearGradient id="paint0_linear_3325_12963" x1="-4.96033" y1="-19.8627" x2="109.376" y2="63.0677" gradientUnits="userSpaceOnUse">
      <stop stop-color="#0068FF"/>
      <stop offset="1" stop-color="#00C2FF"/>
    </linearGradient>
    <clipPath id="clip0_3325_12963">
      <rect width="80" height="80" fill="white"/>
    </clipPath>
  </defs>
</svg>