<svg xmlns="http://www.w3.org/2000/svg" width="80" height="80" viewBox="0 0 80 80" fill="none">
  <path d="M39.9998 0C34.3537 0 29.7603 4.59344 29.7603 10.2395C29.7603 15.8856 34.3537 20.4789 39.9998 20.4789C45.6459 20.4789 50.2393 15.8856 50.2393 10.2395C50.2395 4.59344 45.6459 0 39.9998 0ZM39.9998 15.7914C36.9384 15.7914 34.4478 13.3009 34.4478 10.2395C34.4478 7.17812 36.9384 4.6875 39.9998 4.6875C43.0612 4.6875 45.5518 7.17812 45.5518 10.2395C45.552 13.3009 43.0613 15.7914 39.9998 15.7914Z" fill="url(#paint0_linear_3325_12972)"/>
  <path d="M19.4798 8.6626C14.7202 8.6626 10.8477 12.5349 10.8477 17.2946C10.8477 22.0543 14.72 25.9267 19.4798 25.9267C24.2395 25.9267 28.1119 22.0543 28.1119 17.2946C28.1119 12.5349 24.2394 8.6626 19.4798 8.6626ZM19.4798 21.239C17.3048 21.239 15.5352 19.4695 15.5352 17.2945C15.5352 15.1195 17.3047 13.3499 19.4798 13.3499C21.6548 13.3499 23.4244 15.1195 23.4244 17.2945C23.4244 19.4695 21.6547 21.239 19.4798 21.239Z" fill="url(#paint1_linear_3325_12972)"/>
  <path d="M68.2093 27.8004H56.4739C55.0448 25.5375 52.5231 24.0303 49.6545 24.0303H30.3461C27.4775 24.0303 24.9557 25.5375 23.5267 27.8004H11.7911C7.98777 27.8004 4.89355 30.8946 4.89355 34.6981V42.5498V44.8934V51.7142L14.8398 52.7675C15.3087 54.2676 15.9114 55.7214 16.6425 57.1153L10.3532 64.8943L19.9993 74.5404L27.7786 68.2509C29.1725 68.982 30.6265 69.5846 32.1264 70.0536L33.1795 80H46.8214L47.8743 70.0536C49.3745 69.5846 50.8282 68.9821 52.2222 68.2511L60.0012 74.5406L69.6475 64.8945L63.3579 57.1154C64.089 55.7215 64.6917 54.2676 65.1604 52.7676L75.1067 51.7143V44.8936V42.55V34.6982C75.1067 30.8946 72.0126 27.8004 68.2093 27.8004ZM26.972 32.0918C26.972 30.2314 28.4856 28.7178 30.3461 28.7178H49.6545C51.515 28.7178 53.0286 30.2314 53.0286 32.0918V42.5496H26.972V32.0918ZM48.3732 47.2371C47.3473 50.8971 43.9834 53.5898 40.0003 53.5898C36.0172 53.5898 32.6532 50.8971 31.6273 47.2371H48.3732ZM9.58105 34.6979C9.58105 33.4793 10.5725 32.4878 11.7911 32.4878H22.2843V42.5496H9.58105V34.6979ZM61.4442 48.4471L61.0536 50.0489C60.5301 52.1939 59.6818 54.2406 58.5314 56.1328L57.675 57.5417L63.3509 64.5621L59.669 68.2439L52.6486 62.5679L51.2397 63.4243C49.3476 64.5745 47.3007 65.4231 45.1557 65.9465L43.554 66.3372L42.6036 75.3125H37.3967L36.4462 66.3372L34.8445 65.9464C32.7 65.4234 30.6532 64.575 28.7609 63.4243L27.352 62.5679L20.3315 68.2439L16.6496 64.5621L22.3257 57.5417L21.4692 56.1328C20.3189 54.2407 19.4703 52.1937 18.947 50.0489L18.5564 48.4471L9.58105 47.4968V47.2371H26.8259C27.9378 53.5028 33.4201 58.2773 40.0001 58.2773C46.5801 58.2773 52.0625 53.5028 53.1743 47.2371H70.419V47.4968H70.4192L61.4442 48.4471ZM70.4193 42.5496H57.7161V32.4878H68.2093C69.4279 32.4878 70.4193 33.4793 70.4193 34.6979V42.5496Z" fill="url(#paint2_linear_3325_12972)"/>
  <path d="M60.5207 8.6626C55.761 8.6626 51.8887 12.5349 51.8887 17.2946C51.8887 22.0543 55.761 25.9267 60.5207 25.9267C65.2804 25.9267 69.1527 22.0543 69.1527 17.2946C69.1527 12.5349 65.2802 8.6626 60.5207 8.6626ZM60.5207 21.2392C58.3457 21.2392 56.5762 19.4696 56.5762 17.2946C56.5762 15.1196 58.3457 13.3499 60.5207 13.3499C62.6957 13.3499 64.4652 15.1195 64.4652 17.2945C64.4652 19.4695 62.6955 21.2392 60.5207 21.2392Z" fill="url(#paint3_linear_3325_12972)"/>
  <defs>
    <linearGradient id="paint0_linear_3325_12972" x1="28.4905" y1="-5.08457" x2="57.7587" y2="16.1431" gradientUnits="userSpaceOnUse">
      <stop stop-color="#0068FF"/>
      <stop offset="1" stop-color="#00C2FF"/>
    </linearGradient>
    <linearGradient id="paint1_linear_3325_12972" x1="9.77727" y1="4.37622" x2="34.4508" y2="22.2715" gradientUnits="userSpaceOnUse">
      <stop stop-color="#0068FF"/>
      <stop offset="1" stop-color="#00C2FF"/>
    </linearGradient>
    <linearGradient id="paint2_linear_3325_12972" x1="0.540303" y1="10.1339" x2="84.319" y2="86.3597" gradientUnits="userSpaceOnUse">
      <stop stop-color="#0068FF"/>
      <stop offset="1" stop-color="#00C2FF"/>
    </linearGradient>
    <linearGradient id="paint3_linear_3325_12972" x1="50.8183" y1="4.37622" x2="75.4918" y2="22.2713" gradientUnits="userSpaceOnUse">
      <stop stop-color="#0068FF"/>
      <stop offset="1" stop-color="#00C2FF"/>
    </linearGradient>
  </defs>
</svg>