<svg xmlns="http://www.w3.org/2000/svg" width="80" height="80" viewBox="0 0 80 80" fill="none">
  <g clip-path="url(#clip0_3325_12946)">
    <path d="M40.748 79.9998C40.5023 79.9998 40.2519 79.9966 40.0062 79.9919C39.7448 79.9966 39.4992 79.9998 39.2519 79.9998C29.1196 79.9998 18.9952 75.5946 11.4724 67.9151C7.80939 64.1746 4.94482 59.8892 2.96057 55.1769C0.89443 50.2693 -0.0992702 45.1649 0.00781645 40.0022V37.939H79.9921V39.9959C80.0992 45.1649 79.1055 50.2709 77.0393 55.1769C75.0551 59.8892 72.1905 64.1762 68.5275 67.9167C61.0062 75.5962 50.8818 79.9998 40.7511 79.9998H40.748ZM24.6062 61.4562C25.2362 62.9965 25.9417 64.4628 26.7023 65.8157C29.7401 71.2178 33.4929 74.5945 37.5543 75.582L37.9432 75.6765V61.0231H24.4283L24.6062 61.4578V61.4562ZM42.0551 75.6765L42.444 75.582C46.5055 74.5945 50.2566 71.2178 53.296 65.8157C54.0582 64.4613 54.7621 62.995 55.3921 61.4562L55.57 61.0216H42.0566V75.675L42.0551 75.6765ZM59.8818 61.2294C59.0204 63.5998 58.011 65.822 56.8803 67.8317C55.9165 69.5468 54.8598 71.117 53.7417 72.4983L54.1102 72.9865C59.8614 70.517 64.9007 66.5544 68.6818 61.5271L69.0614 61.0231H59.9558L59.8803 61.231L59.8818 61.2294ZM11.3165 61.5255C15.0992 66.5528 20.1369 70.5154 25.8881 72.9849L26.2566 72.4967C25.1385 71.1139 24.0818 69.5436 23.1181 67.8301C21.9873 65.8189 20.9779 63.5966 20.1165 61.2279L20.0409 61.02H10.9354L11.3149 61.524L11.3165 61.5255ZM63.3543 42.3551C63.1889 47.2926 62.5133 52.0553 61.3464 56.514L61.2425 56.9093H71.6346L71.7228 56.7424C74.0929 52.2679 75.4645 47.4391 75.7984 42.3882L75.8204 42.0528H63.3606L63.3511 42.3567L63.3543 42.3551ZM42.0566 56.9078H56.9779L57.044 56.6794C58.3228 52.2364 59.0629 47.4234 59.2425 42.3756L59.2535 42.0496H42.0566V56.9078ZM20.7606 42.3772C20.9401 47.4249 21.6803 52.2364 22.959 56.681L23.0251 56.9093H37.9448V42.0512H20.748L20.759 42.3772H20.7606ZM4.19994 42.3866C4.5338 47.4375 5.90545 52.2679 8.27553 56.7408L8.36372 56.9078H18.7574L18.6535 56.5124C17.4866 52.0553 16.811 47.2911 16.6456 42.3536L16.6362 42.0496H4.17632L4.19837 42.3851L4.19994 42.3866Z" fill="url(#paint0_linear_3325_12946)"/>
    <path d="M0.0078125 32.567V30.5101C0.0078125 24.2449 3.68025 18.4601 9.36214 15.7779L9.74797 15.5968L9.46136 15.2818C7.02986 12.6091 6.44718 8.85441 7.93852 5.48085C9.43143 2.09942 12.6188 0 16.2535 0H16.3259C19.959 0 23.1448 2.09627 24.6393 5.47298C26.1322 8.84339 25.5527 12.5981 23.1259 15.2724L22.8393 15.5874L23.2236 15.7685C24.9196 16.567 26.4598 17.6537 27.8015 18.9971C27.822 19.0176 27.8425 19.0397 27.8629 19.0601C27.8818 19.0806 27.9023 19.1027 27.9228 19.1231L28.148 19.3531L28.3732 19.1231C29.7369 17.7309 31.318 16.6048 33.0724 15.7764L33.4566 15.5952L33.17 15.2802C30.7385 12.6075 30.1558 8.85284 31.6472 5.4777C33.1417 2.09942 36.3291 0 39.9637 0H40.0362C43.6708 0 46.8582 2.09942 48.3511 5.4777C49.8425 8.85126 49.2598 12.6075 46.8283 15.2802L46.5417 15.5952L46.9259 15.7764C48.6787 16.6048 50.2598 17.7293 51.6204 19.12L51.8456 19.3499L52.0708 19.12C53.4314 17.7277 55.0141 16.6016 56.7763 15.7732L57.1621 15.5921L56.8755 15.2771C54.4472 12.6044 53.8645 8.84811 55.3558 5.47613C56.8535 2.09784 60.0393 0 63.674 0H63.7464C67.3795 0 70.5637 2.09627 72.0598 5.4714C73.5527 8.84181 72.9732 12.5965 70.5464 15.2708L70.2598 15.5858L70.644 15.7669C72.3401 16.5654 73.8803 17.6521 75.222 18.9956C78.2976 22.0683 79.9905 26.1585 79.9905 30.5101V32.567H0.0078125ZM63.7401 18.3624C60.0629 18.3624 56.6803 19.909 54.4551 22.6069L54.3212 22.7692L54.4188 22.955C55.2803 24.5945 55.8519 26.3538 56.1149 28.1855L56.1543 28.4563H75.7149L75.6393 28.0784C75.1669 25.7411 74.0188 23.607 72.3165 21.9061C70.1495 19.6571 67.022 18.364 63.7401 18.364V18.3624ZM39.9999 18.3892C37.3102 18.3892 34.6866 19.2491 32.6094 20.8115C30.3149 22.5377 28.7464 25.0481 28.0755 28.0705L27.9905 28.4532H52.0094L51.9244 28.0705C51.2551 25.0481 49.6866 22.5377 47.3921 20.8115C45.3149 19.2491 42.6897 18.3892 39.9999 18.3892ZM16.4346 18.353C10.5354 18.353 5.45978 22.4432 4.36372 28.0784L4.29128 28.4532H23.8456L23.885 28.1823C24.148 26.3522 24.718 24.5945 25.5795 22.955L25.6787 22.766L25.5401 22.6038C25.3102 22.3361 25.1007 22.1061 24.896 21.9014C22.6488 19.613 19.6425 18.3498 16.4346 18.3498V18.353ZM63.7102 4.11222C60.9212 4.11222 58.6535 6.38173 58.6535 9.16941C58.6535 11.9571 60.9228 14.2266 63.7102 14.2266C67.1716 14.0833 68.7432 11.5051 68.7432 9.16941C68.7432 6.83374 67.1732 4.25554 63.7243 4.11222H63.7118H63.7102ZM39.9999 4.11222C37.211 4.11222 34.9432 6.38173 34.9432 9.16941C34.9432 11.9571 37.2125 14.2266 39.9999 14.2266C43.4614 14.0833 45.033 11.5051 45.033 9.16941C45.033 6.83374 43.4629 4.25554 40.0141 4.11222H40.0015H39.9999ZM16.2897 4.11222C13.5007 4.11222 11.233 6.38173 11.233 9.16941C11.233 11.9571 13.5023 14.2266 16.2897 14.2266C19.7511 14.0833 21.3228 11.5051 21.3228 9.16941C21.3228 6.83374 19.7527 4.25554 16.3039 4.11222H16.2913H16.2897Z" fill="url(#paint1_linear_3325_12946)"/>
  </g>
  <defs>
    <linearGradient id="paint0_linear_3325_12946" x1="-4.96004" y1="27.496" x2="55.1432" y2="110.407" gradientUnits="userSpaceOnUse">
      <stop stop-color="#0068FF"/>
      <stop offset="1" stop-color="#00C2FF"/>
    </linearGradient>
    <linearGradient id="paint1_linear_3325_12946" x1="-4.95116" y1="-8.08584" x2="36.8528" y2="66.3769" gradientUnits="userSpaceOnUse">
      <stop stop-color="#0068FF"/>
      <stop offset="1" stop-color="#00C2FF"/>
    </linearGradient>
    <clipPath id="clip0_3325_12946">
      <rect width="80" height="80" fill="white"/>
    </clipPath>
  </defs>
</svg>