<svg xmlns="http://www.w3.org/2000/svg" width="86" height="88" viewBox="0 0 86 88" fill="none">
  <g clip-path="url(#clip0_3325_12940)">
    <path d="M19.3804 88C18.6873 88 18.0436 87.6301 17.6979 87.0359L0.260887 57.0177C0.00163314 56.5724 -0.0671485 56.0518 0.0668875 55.5539C0.200924 55.0561 0.521905 54.6406 0.971631 54.383L14.1971 46.7943C14.4916 46.6242 14.8267 46.5348 15.1636 46.5348C15.8567 46.5348 16.5004 46.9047 16.8461 47.499L18.2588 49.9304L26.7242 44.1315C27.0487 43.9088 27.4296 43.7914 27.8247 43.7914H55.5843C58.6883 43.7949 61.4184 45.7705 62.3778 48.7068L62.7146 49.7375L75.3369 42.4942C76.4198 41.8754 77.6491 41.5476 78.8907 41.5476C81.4338 41.5476 83.8041 42.9044 85.0775 45.0904C86.9681 48.3439 85.8605 52.5721 82.5573 54.716L53.3974 73.636C53.0817 73.8411 52.7148 73.9498 52.3374 73.9498H34.1685L32.7152 74.8228L34.2814 77.5189C34.8157 78.4392 34.4983 79.6225 33.5706 80.1536L20.3451 87.7423C20.0506 87.9123 19.7155 88.0018 19.3787 88.0018L19.3804 88ZM4.5906 56.7582L20.0876 83.437L29.9516 77.7766L14.4546 51.0978L4.5906 56.7582ZM20.204 53.2821L30.7753 71.4798L32.6253 70.3685C32.9269 70.1879 33.2743 70.0915 33.627 70.0915H51.7607L80.4374 51.4853C82.0423 50.444 82.5925 48.5227 81.7178 47.0169C81.1375 46.0212 80.0582 45.4024 78.8995 45.4024C78.3316 45.4024 77.7725 45.5514 77.2787 45.8336L61.8628 54.681C61.8152 54.709 61.764 54.7318 61.7146 54.7563L61.5065 54.8528L61.3725 55.0368C60.0357 56.881 57.8735 57.9818 55.586 57.9836H42.5757C41.5052 57.9836 40.6357 57.1194 40.6357 56.0553C40.6357 54.9912 41.5052 54.127 42.5757 54.127H55.6389C56.5049 54.12 57.3214 53.7764 57.9317 53.1576C58.5419 52.5406 58.8734 51.7237 58.8664 50.8594C58.8505 49.0889 57.3885 47.648 55.6072 47.648H28.4314L20.2058 53.2821H20.204ZM37.7328 38.6727C36.6623 38.6727 35.7928 37.8084 35.7928 36.7444V1.92829C35.7928 0.864223 36.6623 0 37.7328 0H72.762C73.8326 0 74.702 0.864223 74.702 1.92829V36.7444C74.702 37.8084 73.8326 38.6727 72.762 38.6727H37.7328ZM39.6728 34.8161H70.8221V3.85657H60.9387V16.2555C60.9387 17.3195 60.0692 18.1837 58.9987 18.1837H51.4979C50.4274 18.1837 49.5579 17.3195 49.5579 16.2555V3.85657H39.6745V34.8161H39.6728ZM53.4362 14.3272H57.0569V3.85657H53.4362V14.3272ZM45.6109 30.8421C44.5404 30.8421 43.6709 29.9778 43.6709 28.9138C43.6709 27.8497 44.5404 26.9855 45.6109 26.9855H55.1998C56.2703 26.9855 57.1398 27.8497 57.1398 28.9138C57.1398 29.9778 56.2703 30.8421 55.1998 30.8421H45.6109Z" fill="url(#paint0_linear_3325_12940)"/>
  </g>
  <defs>
    <linearGradient id="paint0_linear_3325_12940" x1="-5.33196" y1="-21.8494" x2="119.513" y2="66.6361" gradientUnits="userSpaceOnUse">
      <stop stop-color="#0068FF"/>
      <stop offset="1" stop-color="#00C2FF"/>
    </linearGradient>
    <clipPath id="clip0_3325_12940">
      <rect width="86" height="88" fill="white"/>
    </clipPath>
  </defs>
</svg>