<svg xmlns="http://www.w3.org/2000/svg" width="87" height="62" viewBox="0 0 87 62" fill="none">
  <g clip-path="url(#clip0_3325_12934)">
    <path d="M37.8312 62C37.6613 62 37.4915 61.9791 37.3263 61.9373L26.0146 59.0466C25.7881 58.9888 25.5726 58.8907 25.3775 58.7572L16.891 52.9759C15.955 52.3376 15.7017 51.0386 16.3262 50.082C16.7053 49.5 17.3424 49.1527 18.0267 49.1527C18.4294 49.1527 18.8211 49.2733 19.1577 49.5032L27.3469 55.0836L38.3189 57.8891C38.8537 58.0225 39.302 58.3569 39.5867 58.8328C39.8715 59.3087 39.9564 59.8698 39.8274 60.4116C39.5978 61.3505 38.7829 62.0016 37.8454 62.0016H37.8328L37.8312 62ZM54.8279 53.328C54.6612 53.328 54.4944 53.3071 54.3308 53.2653L31.7027 47.4839C31.4541 47.4196 31.2198 47.3103 31.009 47.1576L11.3303 32.7974L2.69115 28.3826C0.29069 27.1559 -0.68774 24.1608 0.512488 21.7058L9.2979 3.7508C10.1285 2.05305 11.799 0.996785 13.6584 0.996785C14.4166 0.996785 15.1465 1.17363 15.8307 1.52251L23.9036 5.63666L42.9357 0.0803859C43.1182 0.0273312 43.307 0 43.4973 0C43.6877 0 43.8764 0.0273312 44.0589 0.0803859L63.0911 5.63666L71.1639 1.52251C71.8482 1.17363 72.5781 0.996785 73.3363 0.996785C75.1956 0.996785 76.8662 2.05145 77.6967 3.7492L86.4821 21.7042C87.061 22.8762 87.1601 24.2588 86.7543 25.5016C86.3531 26.7476 85.466 27.7958 84.3208 28.3794L75.8343 32.717L56.2704 52.7154C55.885 53.1093 55.3722 53.3264 54.8279 53.3264V53.328ZM25.1258 9.63505L14.9939 30.3424L33.0571 43.5322L54.1893 48.9293L65.8895 36.9582L54.9097 27.9727L54.4173 28.3859C50.7239 31.4759 46.4735 33.1109 42.1272 33.1109C38.742 33.1109 35.3757 32.082 32.3901 30.1367C30.1233 28.6624 29.4532 25.5804 30.8941 23.2653C31.086 22.9582 31.3094 22.672 31.5611 22.4148L31.5863 22.3891L48.4178 5.70418L43.4989 4.2701L25.1242 9.63666L25.1258 9.63505ZM54.8153 23.1383C55.2841 23.1383 55.7245 23.2974 56.0911 23.5965L68.8091 34.0113L72.1313 30.5916L62.0419 9.96624H49.9861L33.7571 26.0772L34.5939 26.6238C36.211 27.6801 38.8506 28.9389 42.2452 28.9389C46.2297 28.9389 50.0758 27.1463 53.3666 23.7556C53.7535 23.3569 54.2679 23.1383 54.8169 23.1383H54.8153ZM66.0389 8.81351L75.5291 28.2074L83.1788 24.2894L73.7012 4.89711L66.0389 8.81511V8.81351ZM3.81272 24.2894L11.4734 28.2058L20.962 8.8119L13.3013 4.8955L3.81272 24.2894Z" fill="url(#paint0_linear_3325_12934)"/>
  </g>
  <defs>
    <linearGradient id="paint0_linear_3325_12934" x1="-5.3946" y1="-15.394" x2="87.8132" y2="79.4646" gradientUnits="userSpaceOnUse">
      <stop stop-color="#0068FF"/>
      <stop offset="1" stop-color="#00C2FF"/>
    </linearGradient>
    <clipPath id="clip0_3325_12934">
      <rect width="87" height="62" fill="white"/>
    </clipPath>
  </defs>
</svg>