<svg xmlns="http://www.w3.org/2000/svg" width="60" height="66" viewBox="0 0 60 66" fill="none">
  <g clip-path="url(#clip0_3325_12533)">
    <path d="M36.4489 42.7241C34.7514 42.7241 33.3692 41.3432 33.3692 39.6445V39.1779C32.1233 38.8109 30.9138 38.309 29.7675 37.6847L29.4371 38.0164C28.8595 38.5978 28.0864 38.9181 27.2604 38.9181C26.4344 38.9181 25.6613 38.5965 25.0812 38.0139L21.9852 34.9178C21.4051 34.3377 21.086 33.5659 21.086 32.7411C21.086 31.9164 21.4051 31.1446 21.9852 30.5645L22.3156 30.2328C21.6926 29.0877 21.1907 27.8783 20.8224 26.6336H20.3545C18.6571 26.6336 17.2749 25.2527 17.2749 23.5539V19.1678C17.2749 17.4703 18.6558 16.0881 20.3545 16.0881H20.8224C21.1894 14.8434 21.6913 13.634 22.3156 12.4889L21.9839 12.1573C21.4038 11.5771 21.0847 10.8041 21.0847 9.98057C21.0847 9.15707 21.4038 8.384 21.9839 7.80389L25.0825 4.70534C25.66 4.12396 26.4331 3.80364 27.2591 3.80364C28.0852 3.80364 28.8582 4.12522 29.4383 4.70786L29.7662 5.03575C30.9113 4.41276 32.1207 3.90957 33.368 3.54133V3.07598C33.368 1.37852 34.7489 -0.00366211 36.4476 -0.00366211H40.83C41.651 -0.00366211 42.424 0.316661 43.0067 0.899295C43.5893 1.48193 43.9096 2.25499 43.9096 3.07598V3.54133C45.1569 3.91083 46.3663 4.41276 47.5088 5.03575L47.8393 4.70534C48.4168 4.12396 49.1899 3.80364 50.0159 3.80364C50.842 3.80364 51.615 4.12522 52.1951 4.70786L55.2937 7.80389C55.8738 8.384 56.1929 9.15707 56.1929 9.98057C56.1929 10.8041 55.8738 11.5771 55.2937 12.1573L54.962 12.4889C55.5838 13.6315 56.0844 14.8396 56.4539 16.0869H56.9193C57.7403 16.0869 58.5133 16.4072 59.096 16.9898C59.6786 17.5725 59.9989 18.3443 59.9989 19.1665V23.5527C59.9989 25.2501 58.618 26.6323 56.9193 26.6323H56.4539C56.0844 27.8796 55.5838 29.089 54.962 30.2303L55.2937 30.5619C55.8738 31.1421 56.1929 31.9139 56.1929 32.7386C56.1929 33.5634 55.8738 34.3352 55.2937 34.9153L52.1901 38.0151C51.6125 38.5965 50.8394 38.9168 50.0147 38.9168C49.1899 38.9168 48.4156 38.5952 47.8355 38.0126L47.5076 37.6847C46.3637 38.3077 45.1543 38.8096 43.9084 39.1766V39.6432C43.9084 41.3407 42.5274 42.7229 40.8287 42.7229H36.4464L36.4489 42.7241ZM33.455 13.9178C31.2316 15.5043 29.9087 18.0492 29.9087 20.7593C29.9087 24.2513 32.1195 27.418 35.4097 28.6387C35.9999 28.8582 36.3972 29.4282 36.3972 30.0575V39.6445C36.3972 39.671 36.4237 39.6975 36.4501 39.6975H40.8325C40.859 39.6975 40.8855 39.671 40.8855 39.6445V30.0562C40.8855 29.4269 41.2815 28.8569 41.8717 28.6375C45.1606 27.4167 47.3701 24.2501 47.3701 20.7581C47.3701 18.0467 46.0472 15.503 43.8239 13.9165C43.8302 14.0048 43.834 14.0805 43.834 14.1599V20.1124C43.834 22.9763 41.598 25.3687 38.7428 25.5578C38.71 25.5604 38.676 25.5616 38.6432 25.5616C38.6104 25.5616 38.5764 25.5616 38.5436 25.5578C35.6872 25.3687 33.4487 22.9763 33.4487 20.1124V14.1599C33.4487 14.0805 33.4525 14.0035 33.4588 13.9165L33.455 13.9178ZM29.5254 34.2747C29.8116 34.2747 30.0916 34.3554 30.3337 34.5092C31.2859 35.1108 32.3061 35.6089 33.3705 35.9923V31.0576C29.4245 29.1545 26.8821 25.1303 26.8821 20.7606C26.8821 16.9924 28.7536 13.4638 31.8887 11.3211C32.2418 11.0803 33.1788 10.4409 34.1953 10.4409C34.5963 10.4409 34.9696 10.5392 35.3063 10.7335C36.6696 11.5191 36.5372 13.2847 36.4817 14.0376L36.4779 14.0792C36.4754 14.1183 36.4728 14.1523 36.4716 14.1788V20.1136C36.4716 21.3419 37.4225 22.3988 38.6407 22.5312C39.8564 22.4 40.806 21.3432 40.806 20.1136V14.1612C40.806 14.1511 40.7972 14.0376 40.7972 14.0376C40.7417 13.2834 40.6118 11.5166 41.9751 10.7322C42.3118 10.538 42.6851 10.4409 43.0849 10.4409C44.1013 10.4409 45.0371 11.0803 45.3889 11.3211C48.524 13.4638 50.3955 16.9924 50.3955 20.7606C50.3955 25.1291 47.8556 29.1533 43.9109 31.0576V35.9936C44.9753 35.6102 45.993 35.1133 46.9426 34.5118C47.1847 34.3579 47.4647 34.2772 47.7522 34.2772C48.1571 34.2772 48.5366 34.4348 48.8229 34.7198L49.9819 35.8788C49.992 35.8889 50.0008 35.8939 50.0185 35.8939C50.0399 35.8939 50.0475 35.8864 50.0525 35.8813L53.1586 32.7777C53.17 32.7664 53.17 32.7487 53.17 32.7424C53.17 32.7311 53.1675 32.7159 53.1574 32.7058L51.9997 31.5481C51.4952 31.0437 51.4095 30.2719 51.7903 29.6691C52.7399 28.1671 53.4209 26.5251 53.8131 24.7886C53.9708 24.0937 54.5774 23.6094 55.2886 23.6094H56.9218C56.9445 23.6094 56.9748 23.5804 56.9748 23.5565V19.1703C56.9748 19.1438 56.9483 19.1173 56.9231 19.1173H55.2899C54.5774 19.1173 53.9708 18.6318 53.8144 17.9382C53.4209 16.2016 52.7412 14.5597 51.7916 13.0577C51.4107 12.4561 51.4965 11.6831 52.0009 11.1786L53.1586 10.0209C53.1687 10.0108 53.1712 9.99571 53.1712 9.98436C53.1712 9.97553 53.17 9.95914 53.1586 9.94778L50.0563 6.84923C50.0462 6.83914 50.0374 6.8341 50.0197 6.8341C49.9983 6.8341 49.9907 6.84166 49.9869 6.84671L48.8254 8.00819C48.5392 8.29447 48.1596 8.4521 47.7548 8.4521C47.4672 8.4521 47.1873 8.37139 46.9451 8.21754C45.4419 7.2654 43.8012 6.58313 42.0671 6.19219C41.3723 6.03581 40.8867 5.42795 40.8867 4.71669V3.08354C40.8867 3.05706 40.8603 3.03058 40.8338 3.03058H36.4514C36.4249 3.03058 36.3984 3.05706 36.3984 3.08354V4.71669C36.3984 5.42922 35.9129 6.03581 35.218 6.19219C33.4853 6.58313 31.8433 7.2654 30.335 8.2188C30.0929 8.37139 29.8129 8.45337 29.5266 8.45337C29.1218 8.45337 28.7422 8.29573 28.4559 8.01071L27.2982 6.85175C27.2881 6.84166 27.2793 6.83662 27.2617 6.83662C27.2402 6.83662 27.2327 6.84418 27.2289 6.84923L24.1265 9.95157C24.1152 9.96292 24.1139 9.97931 24.1139 9.98814C24.1139 9.99697 24.1152 10.0134 24.1265 10.0247L25.2842 11.1824C25.7887 11.6869 25.8744 12.4587 25.4936 13.0615C24.5389 14.571 23.8592 16.2117 23.4708 17.9395C23.3144 18.6356 22.7078 19.1211 21.994 19.1211H20.3571C20.3306 19.1211 20.3041 19.1476 20.3041 19.1741V23.5602C20.3041 23.5829 20.3331 23.6132 20.3571 23.6132H21.994C22.7078 23.6132 23.3144 24.0987 23.4708 24.7949C23.8579 26.5213 24.5389 28.1633 25.4936 29.6729C25.8744 30.2757 25.7887 31.0475 25.2842 31.5519L24.1265 32.7096C24.1164 32.7197 24.1139 32.7348 24.1139 32.7462C24.1139 32.755 24.1152 32.7714 24.1265 32.7828L27.2263 35.8826C27.2364 35.8927 27.2453 35.8977 27.2629 35.8977C27.2844 35.8977 27.2919 35.8902 27.2957 35.8864L28.4572 34.7249C28.7435 34.4386 29.1231 34.2822 29.5279 34.2822L29.5254 34.2747Z" fill="#0064B0"/>
    <path d="M46.8793 58.1852C46.4757 58.1852 46.0949 58.0275 45.8098 57.7412C45.2196 57.151 45.2196 56.1913 45.8098 55.6011C46.0961 55.3149 46.477 55.1572 46.8818 55.1572C47.2866 55.1572 47.6662 55.3149 47.9512 55.5999C48.2375 55.8862 48.3951 56.2657 48.3951 56.6693C48.3951 57.0729 48.2387 57.4525 47.9525 57.7387C47.6624 58.0275 47.2828 58.1852 46.8793 58.1852Z" fill="#0064B0"/>
    <path d="M34.808 65.0734C33.3073 65.0734 31.8646 64.6559 30.1948 64.1717L30.1709 64.1653C29.669 64.0203 29.1494 63.8703 28.5857 63.7177L15.5344 60.2256C15.3705 60.1815 15.2431 60.1462 15.1384 60.1159C14.961 60.0663 14.8004 60.0415 14.6567 60.0415H11.997C11.4597 61.4212 10.1343 62.3367 8.64115 62.3367H3.59796C1.61423 62.3367 0 60.7225 0 58.7388V45.5009C0 43.5146 1.61423 41.9004 3.59796 41.9004H8.64115C10.1343 41.9004 11.461 42.816 11.997 44.1981H13.3703C13.9235 44.1738 14.4746 44.0531 15.0236 43.8362C17.532 42.8462 19.5851 42.3859 21.4856 42.3859C24.7695 42.3859 27.7483 43.7492 30.8582 46.6775L30.9212 46.7368C30.9994 46.8112 31.1533 46.9549 31.2227 47.0117C31.2668 47.0167 31.3778 47.0281 31.6048 47.0281H38.464C39.744 47.0281 40.9446 47.5136 41.8652 48.3989L51.7132 43.3418C52.4787 42.9484 53.3237 42.7403 54.156 42.7403C55.8408 42.7403 57.358 43.5701 58.2143 44.9599C59.5599 47.134 58.9255 49.9501 56.7388 51.5076L52.3665 54.6212C52.108 54.8054 51.8053 54.9025 51.49 54.9025C51.0007 54.9025 50.5391 54.6654 50.2566 54.2669C50.0221 53.9377 49.93 53.5367 49.9968 53.1382C50.0637 52.7397 50.2819 52.3903 50.611 52.1558L54.9833 49.0421C55.8535 48.4216 56.1347 47.3497 55.6391 46.5489C55.2191 45.8679 54.5432 45.7657 54.1774 45.7657C53.8117 45.7657 53.4309 45.8603 53.0954 46.0331L43.2991 51.0636C43.352 51.355 43.3785 51.6501 43.3785 51.9439C43.3785 54.6528 41.1728 56.8572 38.4627 56.8572H27.346C26.5111 56.8572 25.8327 56.1787 25.8327 55.3439C25.8327 54.509 26.5111 53.8305 27.346 53.8305H38.4627C39.5044 53.8305 40.3531 52.9843 40.3531 51.9439C40.3531 51.6324 40.2749 51.3222 40.1274 51.0485C40.1223 51.0409 40.1173 51.0321 40.1135 51.0245C39.7818 50.428 39.1488 50.0535 38.464 50.0535H31.6048C30.181 50.0535 29.6715 49.7142 28.848 48.9412L28.7862 48.8832C26.2766 46.5211 23.9448 45.4214 21.4465 45.4214C19.9319 45.4214 18.2937 45.801 16.1347 46.6523C14.89 47.1441 14.5583 47.1756 13.4889 47.2223L13.417 47.2248C13.3943 47.2248 13.3741 47.2261 13.3514 47.2261H12.2404V57.0148H14.6554C15.2595 57.0148 15.4587 57.0628 15.9493 57.2002C16.0477 57.228 16.1662 57.2608 16.3175 57.3024L29.3701 60.7944C29.9704 60.9558 30.5076 61.1122 31.0272 61.2623C32.5998 61.7175 33.7297 62.0454 34.8067 62.0454C36.059 62.0454 37.2495 61.5939 38.9154 60.4854L41.3834 58.7249C41.6407 58.5408 41.9446 58.4437 42.2612 58.4437C42.7505 58.4437 43.2108 58.6808 43.4945 59.078C43.7291 59.4072 43.8212 59.8082 43.7543 60.2067C43.6875 60.6052 43.4693 60.9546 43.1402 61.1891L40.6482 62.966C40.6356 62.9749 40.623 62.9837 40.6104 62.9925C38.4501 64.4314 36.6606 65.0734 34.8055 65.0734H34.808ZM3.59796 44.9271C3.28268 44.9271 3.02667 45.1843 3.02667 45.5009V58.7388C3.02667 59.0478 3.28772 59.3101 3.59796 59.3101H8.64115C8.95265 59.3101 9.21496 59.049 9.21496 58.7388V45.5009C9.21496 45.1894 8.95138 44.9271 8.64115 44.9271H3.59796Z" fill="#0064B0"/>
  </g>
  <defs>
    <clipPath id="clip0_3325_12533">
      <rect width="60" height="65.0735" fill="white"/>
    </clipPath>
  </defs>
</svg>