<svg xmlns="http://www.w3.org/2000/svg" width="46" height="46" viewBox="0 0 46 46" fill="none">
  <g clip-path="url(#clip0_3325_12656)">
    <path d="M43.3047 35.2188V6.73828C43.3047 3.02279 40.2819 0 36.5664 0C34.5489 0 6.84394 0 5.39062 0C2.41823 0 0 2.41823 0 5.39062V10.7812H8.08594C8.08594 12.9868 8.08594 39.5 8.08594 40.6094C8.08594 43.5818 10.5042 46 13.4766 46H40.6094C43.5818 46 46 43.5818 46 40.6094V35.2188C45.0574 35.2188 44.2473 35.2188 43.3047 35.2188ZM8.08594 8.08594H2.69531V5.39062C2.69531 3.90443 3.90443 2.69531 5.39062 2.69531C6.87682 2.69531 8.08594 3.90443 8.08594 5.39062V8.08594ZM16.1719 40.6094C16.1719 42.0956 14.9628 43.3047 13.4766 43.3047C11.9904 43.3047 10.7812 42.0956 10.7812 40.6094C10.7812 36.7173 10.7812 9.14681 10.7812 5.39062C10.7812 4.40908 10.5163 3.4889 10.056 2.69531H36.5664C38.7957 2.69531 40.6094 4.50899 40.6094 6.73828V35.2188C39.3125 35.2188 36.4358 35.2188 35.1289 35.2188V29.8235C35.9747 28.6973 36.4766 27.2988 36.4766 25.7852C36.4766 22.0697 33.4538 19.0469 29.7383 19.0469C27.5385 19.0469 25.5819 20.1067 24.3513 21.7422H16.1719V24.4285H23.1356C23.0468 24.8641 23 25.3237 23 25.7852C23 26.2466 23.0468 26.6973 23.1356 27.1328H16.1719V29.8281H24.3477V35.2188H16.1719V40.6094ZM29.7383 29.8281C27.509 29.8281 25.6953 28.0145 25.6953 25.7852C25.6953 23.5559 27.509 21.7422 29.7383 21.7422C31.9676 21.7422 33.7812 23.5559 33.7812 25.7852C33.7812 28.0145 31.9676 29.8281 29.7383 29.8281ZM32.4336 31.9591V36.7436L29.7383 34.9467L27.043 36.7436V31.9591C27.869 32.3211 28.7802 32.5234 29.7383 32.5234C30.6964 32.5234 31.6076 32.3211 32.4336 31.9591ZM43.3047 40.6094C43.3047 42.0956 42.0956 43.3047 40.6094 43.3047H18.142C18.6022 42.5111 18.8672 41.5909 18.8672 40.6094V37.9141H24.3477V41.7799L29.7383 38.1861L35.1289 41.7799V37.9141C36.1741 37.9141 42.3267 37.9141 43.3047 37.9141V40.6094Z" fill="#0064B0"/>
    <path d="M37.9141 8.08594H16.1719V10.7812H37.9141V8.08594Z" fill="#0064B0"/>
    <path d="M37.9141 13.4766H16.1719V16.1719H37.9141V13.4766Z" fill="#0064B0"/>
  </g>
  <defs>
    <clipPath id="clip0_3325_12656">
      <rect width="46" height="46" fill="white"/>
    </clipPath>
  </defs>
</svg>