<svg xmlns="http://www.w3.org/2000/svg" width="47" height="54" viewBox="0 0 47 54" fill="none">
  <g clip-path="url(#clip0_3325_12682)">
    <path d="M28.5366 23.625C22.0471 23.625 16.7871 18.3368 16.7871 11.8125C16.7871 5.2882 22.0481 0 28.5366 0C35.025 0 40.2861 5.2882 40.2861 11.8125C40.2787 18.3326 35.0219 23.6176 28.5366 23.625ZM28.5366 3.375C23.9018 3.375 20.1441 7.15289 20.1441 11.8125C20.1441 16.4721 23.9018 20.25 28.5366 20.25C33.1713 20.25 36.9291 16.4721 36.9291 11.8125C36.9238 7.155 33.1692 3.38027 28.5366 3.375Z" fill="#0064B0"/>
    <path d="M45.3217 54H11.7517C10.8244 54 10.0732 53.2448 10.0732 52.3125V52.0763C10.0732 51.1439 10.8254 50.3888 11.7517 50.3888C12.0528 50.3888 12.3487 50.47 12.6078 50.625H43.6432V37.5469C43.6337 29.8614 37.4401 23.6345 29.7956 23.625H27.2778C24.074 23.625 20.9688 24.7398 18.492 26.7827C17.7618 27.3575 16.7075 27.2289 16.1358 26.4948C15.584 25.7871 15.6815 24.7683 16.3582 24.1787C19.4361 21.638 23.2956 20.25 27.2778 20.25H29.7956C39.2927 20.2605 46.9897 27.9988 47.0002 37.5469V52.3125C47.0002 53.2448 46.249 54 45.3217 54Z" fill="#0064B0"/>
    <path d="M36.9295 54C36.0021 54 35.251 53.2448 35.251 52.3125V35.4375C35.251 34.5052 36.0021 33.75 36.9295 33.75C37.8568 33.75 38.608 34.5052 38.608 35.4375V52.3125C38.608 53.2448 37.8568 54 36.9295 54Z" fill="#0064B0"/>
    <path d="M20.1443 53.9999C19.2169 53.9999 18.4658 53.2448 18.4658 52.3124V49.2581C18.4658 48.3257 19.2169 47.5706 20.1443 47.5706C21.0717 47.5706 21.8228 48.3257 21.8228 49.2581V52.3124C21.8228 53.2448 21.0717 53.9999 20.1443 53.9999Z" fill="#0064B0"/>
    <path d="M12.9215 53.9999C12.8387 53.9999 12.7547 53.9936 12.6729 53.982C11.2798 53.771 4.17972 52.42 1.20668 46.4789C0.356944 44.7714 -0.0553367 42.8771 0.0065579 40.9692V27.6327C0.0065579 26.8965 0.479684 26.2458 1.17836 26.0243L12.4148 22.4531C12.7442 22.3477 13.0978 22.3477 13.4282 22.4531L24.6647 26.0243C25.3634 26.2458 25.8376 26.8965 25.8365 27.6327V41.0125C25.8932 42.9056 25.4809 44.784 24.6364 46.4768V46.4789C21.6655 52.4189 14.5633 53.771 13.1702 53.982C13.0873 53.9936 13.0044 53.9999 12.9215 53.9999ZM3.36355 28.8688V41.0125C3.31215 42.3793 3.60169 43.7378 4.20595 44.9644C6.30616 49.1589 11.584 50.3602 12.9215 50.6017C14.2591 50.3591 19.539 49.1578 21.6371 44.9644C22.2361 43.7515 22.5257 42.4089 22.4795 41.0557V28.8688L12.9215 25.8313L3.36355 28.8688Z" fill="#0064B0"/>
    <path d="M12.2312 42.2844C11.7864 42.2844 11.3584 42.1073 11.0447 41.7898L7.57967 38.3062C6.93449 37.6375 6.95023 36.5691 7.61533 35.9205C8.2668 35.2855 9.30117 35.2855 9.95264 35.9205L12.2312 38.2112L17.5814 32.8323C18.2255 32.1616 19.2882 32.1436 19.9544 32.7912C20.6216 33.4388 20.6394 34.5072 19.9953 35.1769C19.9817 35.1906 19.968 35.2043 19.9544 35.218L13.4177 41.7909C13.103 42.1083 12.676 42.2855 12.2312 42.2855V42.2844Z" fill="#0064B0"/>
  </g>
  <defs>
    <clipPath id="clip0_3325_12682">
      <rect width="47" height="54" fill="white"/>
    </clipPath>
  </defs>
</svg>