<svg xmlns="http://www.w3.org/2000/svg" width="52" height="50" viewBox="0 0 52 50" fill="none">
  <g clip-path="url(#clip0_3325_12635)">
    <path d="M41.4501 27.4366C38.6477 27.4366 36.3675 29.7106 36.3675 32.5053C36.3675 35.3 38.6477 37.574 41.4501 37.574C44.2524 37.574 46.5358 35.3 46.5358 32.5053C46.5358 29.7106 44.2545 27.4366 41.4501 27.4366ZM41.4501 34.4364C40.3818 34.4364 39.5127 33.5696 39.5127 32.5042C39.5127 31.4388 40.3818 30.5721 41.4501 30.5721C42.5184 30.5721 43.3906 31.4388 43.3906 32.5042C43.3906 33.5696 42.5205 34.4364 41.4501 34.4364ZM50.093 26.4799C50.1213 25.9885 50.137 25.4919 50.137 24.9984C50.137 18.3217 47.5297 12.0444 42.7941 7.32179C38.0837 2.62426 31.8269 0.0271836 25.1697 0.00104552C25.1361 0.00104552 25.1026 0 25.0701 0C25.0376 0 25.004 0 24.9705 0.00104552C18.3111 0.0271836 12.0544 2.62321 7.3429 7.32179C2.60734 12.0444 0 18.3217 0 24.9984C0 31.6751 2.60734 37.9556 7.3429 42.6772C12.0544 47.3757 18.3111 49.9728 24.9705 49.999C25.004 49.999 25.0376 50 25.0701 50C29.5257 50 33.8545 48.8321 37.6727 46.6125C38.3521 47.3862 39.0147 48.1045 39.6227 48.7642C39.8534 49.0141 40.0756 49.2556 40.2874 49.4877C40.5852 49.8139 41.0066 50 41.449 50C41.8915 50 42.3129 49.8139 42.6106 49.4887C42.8214 49.2587 43.0415 49.0193 43.2701 48.7726C46.7465 45.0034 51.999 39.3085 51.999 32.5063C51.999 30.2668 51.2934 28.1894 50.0919 26.481L50.093 26.4799ZM3.14516 24.9984C3.14516 22.8436 3.46073 20.7609 4.04677 18.7933H15.9732C15.796 20.7954 15.7038 22.8771 15.7038 24.9984C15.7038 27.1198 15.796 29.2014 15.9732 31.2036H4.04573C3.46073 29.2359 3.14516 27.1533 3.14516 24.9984ZM18.8479 24.9984C18.8479 22.8677 18.9433 20.785 19.1289 18.7933H31.0113C31.1969 20.785 31.2923 22.8677 31.2923 24.9984C31.2923 26.9358 31.2084 28.8825 31.0448 30.7864C31.0218 30.9244 31.0019 31.0635 30.984 31.2036H19.1289C18.9444 29.2119 18.8479 27.1292 18.8479 24.9984ZM34.4364 24.6576C34.4269 22.6544 34.3357 20.6888 34.168 18.7933H46.0913C46.5421 20.3093 46.8325 21.8943 46.9415 23.5274C45.3406 22.5509 43.4609 21.9873 41.4501 21.9873C38.7589 21.9873 36.3015 22.9973 34.4364 24.6576ZM44.8867 15.6567H33.8094C33.409 12.8139 32.825 10.1959 32.0733 7.9376C31.4967 6.20308 30.874 4.83136 30.2334 3.75133C36.7166 5.31857 42.0833 9.76727 44.8867 15.6567ZM29.0885 8.92562C29.7448 10.8975 30.2638 13.1757 30.6339 15.6567H19.5052C19.8743 13.1757 20.3943 10.8964 21.0506 8.92458C22.4722 4.65257 24.1045 3.13657 25.0701 3.13657C26.0356 3.13657 27.6669 4.65257 29.0885 8.92458V8.92562ZM19.9047 3.75133C19.2641 4.83136 18.6424 6.20308 18.0658 7.9376C17.3152 10.1959 16.7302 12.8139 16.3307 15.6567H5.25032C8.05371 9.76727 13.4204 5.31857 19.9047 3.75133ZM5.25032 34.3402H16.3297C16.7291 37.184 17.3141 39.803 18.0648 42.0624C18.6414 43.7969 19.2641 45.1686 19.9036 46.2487C13.4194 44.6814 8.05161 40.2306 5.24927 34.3402H5.25032ZM21.0506 41.0744C20.3943 39.1025 19.8753 36.8222 19.5052 34.3402H30.6276C30.1023 37.8584 29.2783 40.9594 28.2561 43.2271C27.2444 45.4698 26.0241 46.8634 25.0701 46.8634C24.1161 46.8634 22.4722 45.3474 21.0506 41.0744ZM30.2198 46.2549C31.2765 44.4702 32.1194 42.1795 32.7631 39.6744C33.5746 41.2803 34.5831 42.7786 35.641 44.1545C33.93 45.0965 32.109 45.8012 30.2198 46.2549ZM41.4511 46.1107C38.329 42.7096 34.0485 37.7977 34.0485 32.5042C34.0485 28.434 37.3687 25.1228 41.4501 25.1228C45.5315 25.1228 48.8548 28.434 48.8548 32.5042C48.8548 37.7977 44.5753 42.7085 41.4501 46.1107H41.4511Z" fill="#0064B0"/>
  </g>
  <defs>
    <clipPath id="clip0_3325_12635">
      <rect width="52" height="50" fill="white"/>
    </clipPath>
  </defs>
</svg>