<svg xmlns="http://www.w3.org/2000/svg" width="50" height="50" viewBox="0 0 50 50" fill="none">
  <g clip-path="url(#clip0_3325_12672)">
    <path d="M50 25C50 18.3223 47.3995 12.0442 42.6777 7.32227C37.9558 2.60049 31.6777 0 25 0C20.102 0 15.4197 1.40078 11.4081 4.00986C10.599 3.26484 9.51992 2.80889 8.33603 2.80889C5.83281 2.80889 3.79629 4.84541 3.79629 7.34863C3.79629 8.43975 4.1834 9.44209 4.82734 10.2259C1.69365 14.4857 0 19.6125 0 25C0 31.6777 2.60049 37.9558 7.32227 42.6777C12.0442 47.3995 18.3223 50 25 50C29.898 50 34.5802 48.5992 38.5919 45.9901C39.401 46.7352 40.4801 47.1911 41.664 47.1911C44.1672 47.1911 46.2037 45.1546 46.2037 42.6514C46.2037 41.5603 45.8166 40.5579 45.1727 39.7741C48.3063 35.5143 50 30.3875 50 25ZM43.274 42.6514C43.274 43.5392 42.5518 44.2614 41.664 44.2614C40.7762 44.2614 40.0539 43.5392 40.0539 42.6514C40.0539 41.7636 40.7762 41.0413 41.664 41.0413C42.5518 41.0413 43.274 41.7636 43.274 42.6514ZM41.664 38.1116C39.1607 38.1116 37.1242 40.1481 37.1242 42.6514C37.1242 42.9036 37.1458 43.1508 37.1855 43.3919C35.251 44.6779 33.103 45.6667 30.8069 46.2936C31.5943 45.1634 32.3147 43.7879 32.9509 42.1812C33.7579 40.1429 34.4044 37.8134 34.875 35.2905H44.5193C43.9753 36.3184 43.3534 37.2989 42.6599 38.2229C42.3391 38.1509 42.0061 38.1116 41.664 38.1116ZM19.7731 41.1026C19.357 40.0516 18.9871 38.9131 18.6653 37.7036C19.5642 37.1551 20.2572 36.3025 20.6032 35.2905H31.8937C31.4693 37.4162 30.9102 39.3769 30.2269 41.1026C28.7474 44.8394 26.7935 47.0703 25 47.0703C23.2065 47.0703 21.2525 44.8394 19.7731 41.1026ZM4.19346 32.3608C3.37617 30.0574 2.92969 27.5801 2.92969 25C2.92969 22.5447 3.3332 20.182 4.07646 17.9742H14.6274C14.3571 20.2266 14.2171 22.5878 14.2171 25C14.2171 26.5974 14.2787 28.1723 14.3986 29.7081C13.2833 30.2272 12.4132 31.186 12.0114 32.3608H4.19346ZM6.72598 7.34863C6.72598 6.46084 7.44824 5.73857 8.33603 5.73857C9.22383 5.73857 9.94609 6.46084 9.94609 7.34863C9.94609 8.23643 9.22383 8.95869 8.33603 8.95869C7.44824 8.95869 6.72598 8.23643 6.72598 7.34863ZM8.33603 11.8884C10.8393 11.8884 12.8758 9.85186 12.8758 7.34863C12.8758 7.09639 12.8542 6.84932 12.8145 6.6082C14.749 5.32217 16.897 4.3334 19.1932 3.70645C18.4059 4.83662 17.6854 6.21211 17.0492 7.81885C16.2066 9.94707 15.5392 12.3928 15.0641 15.0444H5.30625C5.89023 13.8939 6.57148 12.801 7.34023 11.777C7.66094 11.8491 7.99385 11.8884 8.33603 11.8884ZM30.2269 8.89736C30.6762 10.0322 31.0714 11.2694 31.4104 12.5875C30.4751 13.1338 29.7523 14.0045 29.3967 15.0445H18.0412C18.4728 12.7897 19.054 10.7134 19.773 8.89736C21.2525 5.16064 23.2065 2.92969 25 2.92969C26.7935 2.92969 28.7474 5.16064 30.2269 8.89736ZM45.9235 17.9742C46.6668 20.182 47.0703 22.5447 47.0703 25C47.0703 27.5801 46.6238 30.0574 45.8065 32.3608H35.3307C35.628 30.008 35.7829 27.5322 35.7829 25C35.7829 23.5147 35.7292 22.0491 35.6253 20.616C36.7292 20.0944 37.5896 19.1406 37.9885 17.9742H45.9235ZM20.6032 32.3608C20.0983 30.8844 18.8533 29.7491 17.3123 29.3994C17.203 27.9664 17.1468 26.4949 17.1468 25C17.1468 22.5748 17.2944 20.2111 17.5779 17.9742H29.3968C29.9044 19.4586 31.1601 20.5982 32.7125 20.9414C32.8054 22.2666 32.8532 23.6233 32.8532 25.0001C32.8532 27.5468 32.6904 30.0255 32.3784 32.3609H20.6032V32.3608ZM14.6973 33.8257C14.6973 32.9379 15.4195 32.2156 16.3073 32.2156C17.1951 32.2156 17.9174 32.9379 17.9174 33.8257C17.9174 34.7135 17.1951 35.4357 16.3073 35.4357C15.4195 35.4357 14.6973 34.7135 14.6973 33.8257ZM35.3027 16.5094C35.3027 17.3972 34.5805 18.1194 33.6927 18.1194C32.8049 18.1194 32.0826 17.3972 32.0826 16.5094C32.0826 15.6216 32.8049 14.8993 33.6927 14.8993C34.5805 14.8993 35.3027 15.6215 35.3027 16.5094ZM44.6937 15.0445H37.9886C37.4394 13.4385 36.0143 12.2361 34.2854 12.0096C33.9072 10.5129 33.4612 9.10771 32.951 7.81895C32.3148 6.21221 31.5943 4.83662 30.807 3.70654C36.87 5.36172 41.9012 9.54268 44.6937 15.0445ZM5.48066 35.2905H12.0114C12.5701 36.9243 14.0351 38.1409 15.8043 38.3369C16.1628 39.7041 16.5784 40.9924 17.0491 42.1811C17.6853 43.7878 18.4058 45.1634 19.1931 46.2935C13.2538 44.6721 8.30537 40.6268 5.48066 35.2905Z" fill="#0064B0"/>
  </g>
  <defs>
    <clipPath id="clip0_3325_12672">
      <rect width="50" height="50" fill="white"/>
    </clipPath>
  </defs>
</svg>