<svg xmlns="http://www.w3.org/2000/svg" width="42" height="49" viewBox="0 0 42 49" fill="none">
  <g clip-path="url(#clip0_3325_12643)">
    <path d="M20.3454 12.678L18.7912 16.322C18.6787 16.5845 18.4216 16.7555 18.1367 16.7555H15.0496C14.6565 16.7555 14.3384 17.0751 14.3384 17.4699C14.3384 17.6872 14.4369 17.8927 14.6051 18.0283L17.3001 20.194C17.5272 20.3758 17.6204 20.6781 17.5368 20.9578L16.3018 25.0934C16.1893 25.4711 16.4025 25.8702 16.7785 25.9832C16.9948 26.0488 17.2294 26.0068 17.4094 25.8702L20.5714 23.4883C20.8242 23.2978 21.1723 23.2978 21.4251 23.4883L24.5872 25.8702C24.9021 26.1069 25.3477 26.0434 25.5834 25.7271C25.7194 25.5453 25.7601 25.3108 25.6958 25.0934L24.4608 20.9578C24.3772 20.6781 24.4715 20.3769 24.6975 20.194L27.3925 18.0283C27.6989 17.7819 27.7492 17.3322 27.5039 17.0234C27.369 16.8534 27.1644 16.7555 26.948 16.7555H23.8609C23.576 16.7555 23.3189 16.5856 23.2065 16.322L21.6522 12.678C21.4969 12.3155 21.0792 12.1476 20.7182 12.3026C20.55 12.3746 20.4161 12.5091 20.3443 12.678H20.3454Z" fill="#0064B0"/>
    <path d="M20.9999 38.2608C19.9395 38.2629 18.9219 37.8401 18.1721 37.0859L15.1011 34.0025C14.994 33.8949 14.8483 33.8336 14.6972 33.8347H10.3569C8.14927 33.8315 6.36044 32.0348 6.3583 29.8185V25.4591C6.35937 25.3074 6.30046 25.1611 6.19334 25.0535L3.12234 21.9701C1.56274 20.4015 1.56274 17.8593 3.12234 16.2907L6.19334 13.2072C6.30046 13.0997 6.35937 12.9533 6.3583 12.8016V8.44227C6.36151 6.22492 8.15034 4.42824 10.3569 4.42608H14.6972C14.8493 4.42608 14.994 4.36584 15.1011 4.25825L18.1721 1.17484C19.7338 -0.391613 22.265 -0.391613 23.8267 1.17484L26.8977 4.25825C27.0048 4.36584 27.1505 4.42716 27.3015 4.42608H31.6418C33.8495 4.42931 35.6383 6.226 35.6405 8.44227V12.8016C35.6394 12.9533 35.6983 13.0997 35.8054 13.2072L38.8764 16.2907C40.436 17.8593 40.436 20.4015 38.8764 21.9701L35.8054 25.0535C35.6983 25.1611 35.6394 25.3074 35.6405 25.4591V29.8185C35.6373 32.0359 33.8484 33.8325 31.6418 33.8347H27.3015C27.1494 33.8347 27.0048 33.8949 26.8977 34.0025L23.8267 37.0859C23.078 37.8401 22.0604 38.2629 20.9988 38.2608H20.9999ZM10.3569 7.86883C10.042 7.86883 9.786 8.12596 9.786 8.44227V12.8016C9.78921 13.8667 9.36825 14.8899 8.61629 15.6419L5.54529 18.7253C5.32249 18.9491 5.32249 19.3127 5.54529 19.5365L8.61629 22.6199C9.36825 23.372 9.78921 24.394 9.786 25.4602V29.8196C9.786 30.1359 10.042 30.393 10.3569 30.393H14.6972C15.7588 30.3898 16.7764 30.8137 17.5251 31.57L20.5961 34.6534C20.8189 34.8772 21.1809 34.8772 21.4037 34.6534L24.4748 31.57C25.2224 30.8137 26.2411 30.3898 27.3026 30.393H31.6429C31.9578 30.393 32.2138 30.1359 32.2138 29.8196V25.4602C32.2106 24.3951 32.6316 23.372 33.3835 22.6199L36.4545 19.5365C36.6773 19.3127 36.6773 18.9491 36.4545 18.7253L33.3835 15.6419C32.6316 14.8899 32.2106 13.8678 32.2138 12.8016V8.44227C32.2138 8.12596 31.9578 7.86883 31.6429 7.86883H27.3026C26.2411 7.87206 25.2235 7.44817 24.4748 6.69184L21.4037 3.60843C21.1809 3.38465 20.8189 3.38465 20.5961 3.60843L17.5251 6.69184C16.7774 7.44817 15.7588 7.87206 14.6972 7.86883H10.3569Z" fill="#0064B0"/>
    <path d="M32.1423 49C31.1108 49.0043 30.1607 48.4384 29.6701 47.5261L22.7697 35.045C22.3102 34.2145 22.6079 33.1666 23.4349 32.705C24.2618 32.2435 25.3051 32.5426 25.7646 33.3731L32.0309 44.7062L32.7186 42.6201C33.2135 41.1236 34.8223 40.3135 36.3123 40.8105C36.3241 40.8149 36.3359 40.8181 36.3466 40.8224L37.933 41.3442L32.3447 31.258C31.8852 30.4274 32.183 29.3795 33.0099 28.9169C33.8369 28.4554 34.8791 28.7534 35.3397 29.5829L41.6467 40.9665C42.4061 42.3544 41.9027 44.0973 40.5209 44.8612C39.8139 45.2517 38.9752 45.3238 38.2125 45.058L35.7864 44.2587L34.8759 47.0258C34.5106 48.1135 33.5402 48.8827 32.4015 48.986C32.3148 48.9935 32.2269 48.9968 32.1423 48.9968V49Z" fill="#0064B0"/>
    <path d="M9.85778 49.0001C9.77316 49.0001 9.68639 48.9968 9.59856 48.9893C8.46635 48.8882 7.4991 48.1275 7.13062 47.0474L6.21371 44.262L3.75434 45.0721C2.25793 45.5713 0.64263 44.7569 0.145614 43.2539C-0.106108 42.4933 -0.0289843 41.6616 0.357703 40.9613L6.65931 29.5851C7.12098 28.7546 8.16428 28.4576 8.99122 28.9213C9.816 29.3839 10.1127 30.4297 9.65426 31.2592L4.06604 41.3453L5.68134 40.8128C7.16382 40.3147 8.76949 41.1129 9.274 42.5987L9.96811 44.7052L16.2344 33.3721C16.6939 32.5416 17.7372 32.2425 18.5641 32.704C19.3911 33.1656 19.6888 34.2135 19.2293 35.044L12.3268 47.5294C11.8362 48.4395 10.8861 49.0044 9.85671 48.999L9.85778 49.0001Z" fill="#0064B0"/>
  </g>
  <defs>
    <clipPath id="clip0_3325_12643">
      <rect width="42" height="49" fill="white"/>
    </clipPath>
  </defs>
</svg>