<svg xmlns="http://www.w3.org/2000/svg" width="48" height="48" viewBox="0 0 48 48" fill="none">
  <g clip-path="url(#clip0_3325_12627)">
    <path d="M7.7701 29.1776C8.09072 29.3927 8.4526 29.4951 8.81073 29.4951C9.41541 29.4951 10.0089 29.202 10.3707 28.661C13.4007 24.1249 18.4651 21.4168 23.9185 21.4168C29.372 21.4168 34.412 24.1127 37.4439 28.6281C38.0223 29.4895 39.1867 29.7177 40.0464 29.1382C40.906 28.5586 41.1339 27.3919 40.5554 26.5306C38.1329 22.9226 34.6595 20.2614 30.691 18.8374C33.0714 16.8892 34.5939 13.9266 34.5939 10.6145C34.5939 4.76149 29.8417 0 24.0001 0C18.1585 0 13.4064 4.76149 13.4064 10.6145C13.4064 13.9031 14.9064 16.847 17.2576 18.7951C13.2264 20.2135 9.70135 22.9085 7.25448 26.5719C6.67885 27.4342 6.90948 28.6009 7.7701 29.1776ZM24.0001 3.75734C27.7735 3.75734 30.8439 6.83366 30.8439 10.6145C30.8439 14.3953 27.7735 17.4716 24.0001 17.4716C20.2267 17.4716 17.1564 14.3953 17.1564 10.6145C17.1564 6.83366 20.2267 3.75734 24.0001 3.75734ZM31.4776 33.2647L28.682 35.2852C28.2657 35.5858 28.0923 36.1184 28.2507 36.6049L29.3767 39.8738C29.4245 40.0194 29.4423 40.1613 29.4367 40.2975C29.3973 41.1757 28.2985 41.776 27.4932 41.1936L24.6976 39.1731C24.4895 39.0228 24.2448 38.9476 24.0001 38.9476C23.7554 38.9476 23.5107 39.0228 23.3026 39.1731L20.507 41.1945C19.7017 41.7769 18.5982 41.1757 18.5626 40.2984C18.557 40.1631 18.5757 40.0204 18.6235 39.8748L19.7485 36.6059C19.9079 36.1193 19.7335 35.5867 19.3173 35.2861L16.5217 33.2656C15.5917 32.593 16.0698 30.999 17.2192 30.999H20.6739C21.1876 30.999 21.6432 30.8008 21.8026 30.3142L22.8704 27.0237C23.0485 26.4798 23.5239 26.2084 23.9992 26.2084C24.4745 26.2084 24.9498 26.4798 25.1279 27.0237L26.1957 30.3142C26.3551 30.8008 26.8098 30.999 27.3245 30.999H30.7792C31.9285 30.999 32.4067 32.593 31.4767 33.2656L31.4776 33.2647ZM47.5089 39.84L44.7132 41.8605C44.297 42.1611 44.1235 42.6937 44.282 43.1803L45.4079 46.4492C45.4557 46.5948 45.4735 46.7366 45.4679 46.8728C45.4285 47.7511 44.3298 48.3513 43.5245 47.7689L40.7289 45.7484C40.5207 45.5981 40.276 45.523 40.0314 45.523C39.7867 45.523 39.542 45.5981 39.3339 45.7484L36.5382 47.7699C35.7329 48.3522 34.6295 47.7511 34.5948 46.8737C34.5892 46.7385 34.6079 46.5957 34.6557 46.4501L35.7807 43.1812C35.9401 42.6946 35.7657 42.162 35.3495 41.8614L32.5539 39.8409C31.6239 39.1684 32.102 37.5743 33.2514 37.5743H36.706C37.2198 37.5743 37.6754 37.3761 37.8348 36.8895L38.9026 33.5991C39.0798 33.0552 39.556 32.7837 40.0314 32.7837C40.5067 32.7837 40.982 33.0552 41.1601 33.5991L42.2279 36.8895C42.3873 37.3761 42.842 37.5743 43.3567 37.5743H46.8114C47.9607 37.5743 48.4389 39.1684 47.5089 39.8409V39.84ZM15.4464 39.84L12.6507 41.8605C12.2345 42.1611 12.061 42.6937 12.2195 43.1803L13.3454 46.4492C13.3932 46.5948 13.411 46.7366 13.4054 46.8728C13.3651 47.7511 12.2673 48.3513 11.462 47.7689L8.66635 45.7484C8.45823 45.5981 8.21354 45.523 7.96885 45.523C7.72416 45.523 7.47948 45.5981 7.27135 45.7484L4.47573 47.7699C3.67041 48.3522 2.56698 47.7511 2.53135 46.8737C2.52573 46.7385 2.54448 46.5957 2.59229 46.4501L3.71729 43.1812C3.87573 42.6946 3.70229 42.162 3.28604 41.8614L0.490413 39.8409C-0.439587 39.1684 0.0385382 37.5743 1.18791 37.5743H4.6426C5.15635 37.5743 5.61198 37.3761 5.77135 36.8895L6.83916 33.5991C7.01635 33.0552 7.4926 32.7837 7.96791 32.7837C8.44323 32.7837 8.91854 33.0552 9.09666 33.5991L10.1645 36.8895C10.3229 37.3761 10.7785 37.5743 11.2932 37.5743H14.7479C15.8973 37.5743 16.3754 39.1684 15.4454 39.8409L15.4464 39.84Z" fill="#0064B0"/>
  </g>
  <defs>
    <clipPath id="clip0_3325_12627">
      <rect width="48" height="48" fill="white"/>
    </clipPath>
  </defs>
</svg>