
<svg xmlns="http://www.w3.org/2000/svg" width="60" height="60" viewBox="0 0 60 60" fill="none">
  <g clip-path="url(#clip0_3325_12541)">
    <path d="M59.9292 4.47937C59.7993 2.09601 57.9038 0.200738 55.5204 0.0706594C50.7113 -0.192075 41.3006 0.0635112 32.302 4.71785C27.7147 7.09066 22.8632 11.1136 18.9914 15.7552C18.9437 15.8123 18.8973 15.8699 18.85 15.9272L10.0633 16.6059C8.61692 16.7177 7.32868 17.4758 6.52876 18.6857L0.53415 27.7527C-0.0725293 28.6703 -0.168975 29.8186 0.275986 30.8244C0.721064 31.8303 1.6356 32.5314 2.72251 32.6998L10.1254 33.8463C10.0992 33.9902 10.073 34.134 10.049 34.2779C9.80251 35.7521 10.2909 37.2678 11.3557 38.3325L21.6673 48.6442C22.55 49.5269 23.7429 50.0136 24.9652 50.0136C25.2169 50.0136 25.47 49.9929 25.722 49.9508C25.8659 49.9268 26.0097 49.9005 26.1536 49.8744L27.3001 57.2774C27.4685 58.3643 28.1695 59.2789 29.1752 59.7239C29.5937 59.9091 30.0366 60.0005 30.4774 60.0005C31.0965 60.0003 31.7113 59.8201 32.2471 59.4659L41.3141 53.4711C42.5241 52.6711 43.282 51.3828 43.3936 49.9366L44.0724 41.15C44.1297 41.1027 44.1873 41.0563 44.2445 41.0086C48.8862 37.1368 52.9092 32.2853 55.2819 27.6978C59.9365 18.6989 60.1916 9.28816 59.9292 4.47937ZM39.3752 50.5384L30.7021 56.2727L29.5846 49.0581C33.2502 47.9803 36.8763 46.2541 40.3309 43.9417L39.8888 49.6657C39.8612 50.0228 39.674 50.3409 39.3752 50.5384ZM24.1532 46.1583L13.8415 35.8466C13.5784 35.5834 13.4568 35.2137 13.5164 34.8575C13.823 33.0244 14.2993 31.2793 14.889 29.6354L30.3611 45.1075C28.3867 45.8147 26.6182 46.2366 25.1422 46.4834C24.7855 46.5427 24.4163 46.4214 24.1532 46.1583ZM10.3341 20.1111L16.058 19.669C13.7454 23.1236 12.0192 26.7497 10.9415 30.4153L3.72692 29.2979L9.46138 20.6246C9.65895 20.3258 9.97712 20.1387 10.3341 20.1111ZM41.9929 38.3087C39.1531 40.6774 36.3965 42.3907 33.8556 43.6304L16.3688 26.1436C17.9927 22.8267 19.9747 20.0647 21.6911 18.0071C25.2741 13.7116 29.7304 10.0061 33.9174 7.84043C42.176 3.56859 50.8773 3.33855 55.329 3.58089C55.9183 3.613 56.3869 4.08164 56.419 4.67097C56.6617 9.12269 56.4312 17.8239 52.1593 26.0827C49.9938 30.2695 46.2882 34.7257 41.9929 38.3087Z" fill="#0064B0"/>
    <path d="M41.1004 27.6848C43.3506 27.6845 45.6018 26.8279 47.3149 25.1147C48.975 23.4548 49.8891 21.2476 49.8891 18.9001C49.8891 16.5526 48.9749 14.3455 47.3149 12.6856C43.8881 9.25866 38.3123 9.2589 34.8858 12.6856C33.2257 14.3455 32.3115 16.5526 32.3115 18.9001C32.3115 21.2476 33.2258 23.4548 34.8858 25.1147C36.5993 26.8282 38.8493 27.685 41.1004 27.6848ZM37.3714 15.1714C38.3994 14.1433 39.7498 13.6293 41.1001 13.6293C42.4506 13.6293 43.8009 14.1433 44.8289 15.1714C45.8249 16.1673 46.3733 17.4916 46.3733 18.9C46.3733 20.3085 45.8249 21.6328 44.8289 22.6288C42.773 24.6849 39.4274 24.6848 37.3713 22.6288C36.3754 21.6328 35.8268 20.3086 35.8268 18.9001C35.8268 17.4917 36.3755 16.1673 37.3714 15.1714Z" fill="#0064B0"/>
    <path d="M1.79291 49.4459C2.24279 49.4459 2.69268 49.2743 3.0358 48.9309L8.77482 43.1919C9.46131 42.5054 9.46131 41.3925 8.77482 40.706C8.08846 40.0195 6.97541 40.0195 6.28893 40.706L0.55002 46.445C-0.136465 47.1315 -0.136465 48.2445 0.55002 48.9309C0.893144 49.2742 1.34303 49.4459 1.79291 49.4459Z" fill="#0064B0"/>
    <path d="M14.0344 45.9655C13.3481 45.2791 12.235 45.2791 11.5485 45.9655L0.514863 56.9993C-0.171621 57.6858 -0.171621 58.7987 0.514863 59.4852C0.858105 59.8285 1.30787 60 1.75775 60C2.20764 60 2.65752 59.8285 3.00064 59.4851L14.0343 48.4514C14.7209 47.765 14.7209 46.652 14.0344 45.9655Z" fill="#0064B0"/>
    <path d="M16.8081 51.2251L11.0691 56.9641C10.3826 57.6506 10.3826 58.7635 11.0691 59.45C11.4123 59.7932 11.8622 59.9649 12.312 59.9649C12.7617 59.9649 13.2117 59.7934 13.5548 59.45L19.2939 53.711C19.9804 53.0245 19.9804 51.9116 19.2939 51.2251C18.6075 50.5386 17.4945 50.5386 16.8081 51.2251Z" fill="#0064B0"/>
  </g>
  <defs>
    <clipPath id="clip0_3325_12541">
      <rect width="60" height="60" fill="white"/>
    </clipPath>
  </defs>
</svg>