<svg xmlns="http://www.w3.org/2000/svg" width="60" height="60" viewBox="0 0 60 60" fill="none">
  <g clip-path="url(#clip0_3325_12507)">
    <path d="M58.2422 0H51.2109C50.2402 0 49.4531 0.787031 49.4531 1.75781V3.51562H34.9711C34.2455 1.46977 32.2916 0 30 0C27.7084 0 25.7545 1.46977 25.0289 3.51562H10.5469V1.75781C10.5469 0.787031 9.75984 0 8.78906 0H1.75781C0.787031 0 0 0.787031 0 1.75781V8.78906C0 9.75984 0.787031 10.5469 1.75781 10.5469H8.78906C9.75984 10.5469 10.5469 9.75984 10.5469 8.78906V7.00781H17.8567C11.515 11.0243 7.65996 17.8096 7.19625 25.0127C5.12555 25.7248 3.63281 27.6907 3.63281 30C3.63281 32.9078 5.99848 35.2734 8.90625 35.2734C11.814 35.2734 14.1797 32.9078 14.1797 30C14.1797 27.7289 12.7365 25.7885 10.7191 25.0477C11.3433 16.7687 17.3048 9.6382 25.2769 7.61508C26.141 9.35086 27.9329 10.5469 30 10.5469C32.0671 10.5469 33.859 9.35086 34.7231 7.6152C42.6953 9.63832 48.6567 16.7688 49.2809 25.0478C47.2635 25.7885 45.8203 27.7289 45.8203 30C45.8203 32.9078 48.186 35.2734 51.0938 35.2734C54.0015 35.2734 56.3672 32.9078 56.3672 30C56.3672 27.6907 54.8745 25.7248 52.8038 25.0127C52.3391 17.7952 48.4726 11.0399 42.1433 7.03125H49.4531V8.78906C49.4531 9.75984 50.2402 10.5469 51.2109 10.5469H58.2422C59.213 10.5469 60 9.75984 60 8.78906V1.75781C60 0.787031 59.213 0 58.2422 0ZM7.03125 7.03125H3.51562V3.51562H7.03125V7.03125ZM8.90625 31.7578C7.93699 31.7578 7.14844 30.9693 7.14844 30C7.14844 29.0307 7.93699 28.2422 8.90625 28.2422C9.87551 28.2422 10.6641 29.0307 10.6641 30C10.6641 30.9693 9.87551 31.7578 8.90625 31.7578ZM30 7.03125C29.0307 7.03125 28.2422 6.2427 28.2422 5.27344C28.2422 4.30418 29.0307 3.51562 30 3.51562C30.9693 3.51562 31.7578 4.30418 31.7578 5.27344C31.7578 6.2427 30.9693 7.03125 30 7.03125ZM51.0938 28.2422C52.063 28.2422 52.8516 29.0307 52.8516 30C52.8516 30.9693 52.063 31.7578 51.0938 31.7578C50.1245 31.7578 49.3359 30.9693 49.3359 30C49.3359 29.0307 50.1245 28.2422 51.0938 28.2422ZM56.4844 7.03125H52.9688V3.51562H56.4844V7.03125Z" fill="#0064B0"/>
    <path d="M45.525 36.0561L31.4625 14.9625C31.462 14.9618 31.4614 14.9611 31.461 14.9603C31.4559 14.9528 31.4504 14.9456 31.4453 14.9383C31.4211 14.9032 31.3957 14.8695 31.3692 14.8365C30.6285 13.9161 29.218 13.9783 28.5547 14.9383C28.5496 14.9456 28.5441 14.9528 28.539 14.9603C28.5385 14.9611 28.538 14.9617 28.5375 14.9625L14.475 36.0563C14.0101 36.7534 14.1021 37.6818 14.6946 38.2743C18.2017 41.7813 20.4339 46.3657 21.0419 51.2705C20.769 51.4911 20.5055 51.7274 20.2556 51.9831C18.6046 53.672 17.6953 55.8949 17.6953 58.2422C17.6953 59.213 18.4823 60 19.4531 60H40.5469C41.5176 60 42.3047 59.213 42.3047 58.2422C42.3047 55.8949 41.3954 53.672 39.7445 51.983C39.4945 51.7273 39.2311 51.491 38.958 51.2704C39.566 46.3654 41.7982 41.781 45.3053 38.2743C45.8979 37.6818 45.9899 36.7533 45.525 36.0561ZM30 35.2734C30.9692 35.2734 31.7578 36.062 31.7578 37.0313C31.7578 38.0005 30.9692 38.7891 30 38.7891C29.0307 38.7891 28.2422 38.0005 28.2422 37.0313C28.2422 36.062 29.0307 35.2734 30 35.2734ZM21.5107 56.4844C22.2421 54.3946 24.2246 52.8516 26.4844 52.8516H33.5156C35.7753 52.8516 37.7579 54.3946 38.4893 56.4844H21.5107ZM35.6537 49.6035C34.9623 49.427 34.2456 49.3359 33.5156 49.3359H26.4844C25.7544 49.3359 25.0377 49.427 24.3463 49.6036C23.5236 44.8658 21.3872 40.4371 18.1764 36.842L28.2422 21.7432V32.0603C26.1962 32.7859 24.7266 34.7398 24.7266 37.0314C24.7266 39.9391 27.0922 42.3048 30 42.3048C32.9078 42.3048 35.2734 39.9391 35.2734 37.0314C35.2734 34.7398 33.8038 32.7859 31.7578 32.0603V21.7432L41.8237 36.842C38.6128 40.4367 36.4762 44.8656 35.6537 49.6035Z" fill="#0064B0"/>
  </g>
  <defs>
    <clipPath id="clip0_3325_12507">
      <rect width="60" height="60" fill="white"/>
    </clipPath>
  </defs>
</svg>