<svg xmlns="http://www.w3.org/2000/svg" width="60" height="60" viewBox="0 0 60 60" fill="none">
  <g clip-path="url(#clip0_3325_12520)">
    <path d="M34.1573 60H25.8423C23.8123 60 22.0848 58.6125 21.6398 56.6275L20.5848 51.945C18.8673 51.2175 17.2323 50.2675 15.6998 49.11L11.1448 50.5475C9.18976 51.15 7.06476 50.3225 6.08476 48.5775L1.93976 41.4075C0.94726 39.6325 1.28226 37.445 2.74476 36.07L6.27476 32.825C6.16726 31.875 6.11226 30.9275 6.11226 30C6.11226 29.0725 6.16476 28.125 6.27226 27.175L2.75976 23.945C1.28226 22.555 0.94476 20.37 1.92726 18.6175L6.09726 11.405C7.06726 9.68 9.18976 8.845 11.1398 9.4525L15.6998 10.89C17.2323 9.7325 18.8698 8.7825 20.5848 8.055L21.6398 3.37C22.0848 1.3875 23.8123 0 25.8423 0H34.1573C36.1873 0 37.9148 1.3875 38.3598 3.3725L39.4148 8.055C41.1323 8.7825 42.7673 9.7325 44.2998 10.89L48.8548 9.4525C50.8048 8.8425 52.9323 9.6775 53.9148 11.4225L58.0598 18.5925C59.0523 20.3675 58.7173 22.555 57.2548 23.93L53.7248 27.175C53.8323 28.125 53.8848 29.0725 53.8848 30C53.8848 30.9275 53.8323 31.875 53.7248 32.825L57.2398 36.055C57.2448 36.06 57.2498 36.065 57.2548 36.07C58.7173 37.445 59.0548 39.63 58.0723 41.3825L53.9023 48.595C52.9298 50.32 50.8073 51.155 48.8598 50.5475L44.2973 49.1075C42.7648 50.265 41.1273 51.215 39.4123 51.9425L38.3573 56.6275C37.9148 58.6125 36.1873 60 34.1573 60ZM16.0848 45.1475C16.5148 45.1475 16.9373 45.295 17.2798 45.575C18.9923 46.9875 20.8673 48.075 22.8498 48.8075C23.4448 49.0275 23.8898 49.535 24.0298 50.155L25.3023 55.805C25.3598 56.0625 25.5898 56.25 25.8473 56.25H34.1623C34.4198 56.25 34.6473 56.0625 34.7073 55.8075L35.9798 50.1575C36.1198 49.5375 36.5623 49.03 37.1598 48.81C39.1423 48.0775 41.0173 46.9875 42.7298 45.5775C43.2198 45.1725 43.8773 45.0425 44.4873 45.235L49.9898 46.9725C50.2498 47.0525 50.5298 46.9625 50.6523 46.74L54.8223 39.53C54.9473 39.3075 54.9023 39.0025 54.6998 38.8075L50.4798 34.9275C50.0198 34.505 49.8023 33.885 49.8973 33.2675C50.0623 32.1675 50.1473 31.0675 50.1473 30C50.1473 28.9325 50.0648 27.835 49.8973 26.7325C49.8048 26.115 50.0223 25.495 50.4798 25.0725L54.7098 21.1825C54.8998 21.0025 54.9498 20.695 54.8098 20.4475L50.6648 13.28C50.5298 13.0425 50.2598 12.95 49.9848 13.03L44.4898 14.765C43.8798 14.9575 43.2223 14.8275 42.7323 14.4225C41.0198 13.01 39.1448 11.9225 37.1623 11.19C36.5673 10.97 36.1223 10.4625 35.9823 9.8425L34.7098 4.1925C34.6423 3.9375 34.4148 3.75 34.1573 3.75H25.8423C25.5848 3.75 25.3573 3.9375 25.2973 4.1925L24.0248 9.845C23.8873 10.465 23.4423 10.97 22.8473 11.1925C20.8648 11.925 18.9898 13.0125 17.2773 14.425C16.7873 14.83 16.1298 14.9575 15.5198 14.7675L10.0173 13.03C9.75726 12.95 9.47726 13.0425 9.35476 13.2625L5.18476 20.47C5.05726 20.695 5.10726 21.0025 5.31226 21.1975L9.52976 25.0725C9.98976 25.495 10.2073 26.115 10.1123 26.7325C9.94726 27.8325 9.86226 28.9325 9.86226 30C9.86226 31.0675 9.94476 32.165 10.1123 33.2675C10.2048 33.885 9.98726 34.505 9.52976 34.9275L5.29976 38.8175C5.10976 38.9975 5.05976 39.305 5.19976 39.5525L9.34476 46.72C9.48226 46.96 9.75476 47.0575 10.0248 46.97L15.5198 45.235C15.7048 45.175 15.8948 45.1475 16.0848 45.1475Z" fill="#0064B0"/>
    <path d="M28.1273 39.9999C27.9848 39.9999 27.8448 39.9849 27.7023 39.9524C26.6948 39.7199 26.0648 38.7124 26.2973 37.7049L30.0473 21.4549C30.2798 20.4424 31.2998 19.8199 32.2948 20.0474C33.3023 20.2799 33.9323 21.2874 33.6998 22.2949L29.9498 38.5449C29.7498 39.4149 28.9798 39.9999 28.1273 39.9999Z" fill="#0064B0"/>
    <path d="M38.1251 37.5001C37.6126 37.5001 37.1026 37.2926 36.7301 36.8801C36.0376 36.1101 36.1001 34.9251 36.8701 34.2301L41.5726 30.0001L36.8701 25.7701C36.1001 25.0776 36.0376 23.8926 36.7301 23.1201C37.4251 22.3526 38.6101 22.2901 39.3801 22.9801L45.6301 28.6051C46.0251 28.9626 46.2501 29.4701 46.2501 30.0001C46.2501 30.5301 46.0251 31.0376 45.6301 31.3951L39.3801 37.0201C39.0201 37.3426 38.5726 37.5001 38.1251 37.5001Z" fill="#0064B0"/>
    <path d="M21.875 37.5C21.4275 37.5 20.98 37.3425 20.62 37.02L14.37 31.395C13.975 31.0375 13.75 30.53 13.75 30C13.75 29.47 13.975 28.9625 14.37 28.605L20.62 22.98C21.39 22.2875 22.5725 22.35 23.27 23.12C23.9625 23.89 23.9 25.075 23.13 25.77L18.4275 30L23.13 34.23C23.9 34.9225 23.9625 36.1075 23.27 36.88C22.8975 37.2925 22.3875 37.5 21.875 37.5Z" fill="#0064B0"/>
  </g>
  <defs>
    <clipPath id="clip0_3325_12520">
      <rect width="60" height="60" fill="white"/>
    </clipPath>
  </defs>
</svg>