<svg xmlns="http://www.w3.org/2000/svg" width="60" height="60" viewBox="0 0 60 60" fill="none">
  <path d="M5.43551 0V7.93605H2.34375V11.4449H5.43551V18.0908H2.34375V21.5996H5.43551V28.2456H2.34375V31.7544H5.43551V38.4004H2.34375V41.9092H5.43551V48.5551H2.34375V52.0639H5.43551V60H57.6562V0H5.43551ZM54.1406 56.4912H8.95113V52.0638H12.0428V48.555H8.95113V41.9091H12.0428V38.4002H8.95113V31.7543H12.0428V28.2455H8.95113V21.5995H12.0428V18.0907H8.95113V11.4449H12.0428V7.93605H8.95113V3.50871H54.1406V56.4912Z" fill="#0064B0"/>
  <path d="M36.2349 13.6885H47.6353V17.1973H36.2349V13.6885Z" fill="#0064B0"/>
  <path d="M36.2349 28.2556H47.6353V31.7644H36.2349V28.2556Z" fill="#0064B0"/>
  <path d="M36.2349 43.9724H47.6353V47.4812H36.2349V43.9724Z" fill="#0064B0"/>
  <path d="M30.8463 12.1659L28.3604 9.68481L22.6747 15.3595L20.0431 12.7331L17.5571 15.2141L22.6747 20.3216L30.8463 12.1659Z" fill="#0064B0"/>
  <path d="M30.8463 26.9486L28.3604 24.4675L22.6747 30.1422L20.0431 27.5158L17.5571 29.9969L22.6747 35.1043L30.8463 26.9486Z" fill="#0064B0"/>
  <path d="M30.8463 41.7315L28.3604 39.2505L22.6747 44.9251L20.043 42.2987L17.5571 44.7797L22.6747 49.8871L30.8463 41.7315Z" fill="#0064B0"/>
</svg>