<svg xmlns="http://www.w3.org/2000/svg" width="58" height="46" viewBox="0 0 58 46" fill="none">
  <path d="M4.625 19.375H10.25V34.375H6.5C6.00272 34.375 5.52581 34.5725 5.17417 34.9242C4.82254 35.2758 4.625 35.7527 4.625 36.25C4.625 36.7473 4.82254 37.2242 5.17417 37.5758C5.52581 37.9274 6.00272 38.125 6.5 38.125H51.5C51.9973 38.125 52.4742 37.9274 52.8258 37.5758C53.1775 37.2242 53.375 36.7473 53.375 36.25C53.375 35.7527 53.1775 35.2758 52.8258 34.9242C52.4742 34.5725 51.9973 34.375 51.5 34.375H47.75V19.375H53.375C53.783 19.3746 54.1797 19.2411 54.5049 18.9949C54.8302 18.7486 55.0662 18.403 55.1773 18.0104C55.2884 17.6179 55.2683 17.1998 55.1203 16.8196C54.9723 16.4395 54.7043 16.118 54.357 15.9039L29.982 0.9039C29.6867 0.722301 29.3467 0.62616 29 0.62616C28.6533 0.62616 28.3133 0.722301 28.018 0.9039L3.64297 15.9039C3.29569 16.118 3.02771 16.4395 2.87968 16.8196C2.73165 17.1998 2.71165 17.6179 2.82271 18.0104C2.93377 18.403 3.16983 18.7486 3.49509 18.9949C3.82034 19.2411 4.21704 19.3746 4.625 19.375ZM14 19.375H21.5V34.375H14V19.375ZM32.75 19.375V34.375H25.25V19.375H32.75ZM44 34.375H36.5V19.375H44V34.375ZM29 4.70077L46.7516 15.625H11.2484L29 4.70077ZM57.125 43.75C57.125 44.2473 56.9275 44.7242 56.5758 45.0758C56.2242 45.4274 55.7473 45.625 55.25 45.625H2.75C2.25272 45.625 1.77581 45.4274 1.42417 45.0758C1.07254 44.7242 0.875 44.2473 0.875 43.75C0.875 43.2527 1.07254 42.7758 1.42417 42.4242C1.77581 42.0725 2.25272 41.875 2.75 41.875H55.25C55.7473 41.875 56.2242 42.0725 56.5758 42.4242C56.9275 42.7758 57.125 43.2527 57.125 43.75Z" fill="#0064B0"/>
</svg>