<svg xmlns="http://www.w3.org/2000/svg" width="60" height="60" viewBox="0 0 60 60" fill="none">
  <path d="M50.6252 24.375H23.9275L49.2189 17.6976C49.4583 17.6346 49.6829 17.5247 49.8796 17.3744C50.0763 17.2241 50.2413 17.0363 50.3651 16.8219C50.4888 16.6075 50.5689 16.3707 50.6007 16.1252C50.6325 15.8796 50.6153 15.6303 50.5502 15.3914L48.6377 8.36015C48.3745 7.41418 47.7492 6.60999 46.8973 6.12174C46.0454 5.63349 45.0354 5.5005 44.0861 5.75156L8.39316 15.1734C7.91791 15.2968 7.47205 15.5137 7.08168 15.8115C6.69131 16.1094 6.36428 16.482 6.11972 16.9078C5.8738 17.3283 5.71492 17.794 5.65251 18.2772C5.5901 18.7603 5.62545 19.2511 5.75644 19.7203L7.50019 26.1469C7.50019 26.1797 7.50019 26.2148 7.50019 26.25V46.875C7.50019 47.8696 7.89528 48.8234 8.59854 49.5266C9.3018 50.2299 10.2556 50.625 11.2502 50.625H48.7502C49.7448 50.625 50.6986 50.2299 51.4018 49.5266C52.1051 48.8234 52.5002 47.8696 52.5002 46.875V26.25C52.5002 25.7527 52.3026 25.2758 51.951 24.9242C51.5994 24.5725 51.1225 24.375 50.6252 24.375ZM45.0377 9.37499L46.4439 14.5476L41.1424 15.9539L34.5518 12.1477L45.0377 9.37499ZM29.4072 13.5L35.9978 17.3062L27.34 19.5914L20.7494 15.7898L29.4072 13.5ZM10.7978 23.9578L9.3916 18.7828L15.6025 17.1422L22.1932 20.9531L10.7978 23.9578ZM48.7502 46.875H11.2502V28.125H48.7502V46.875Z" fill="white"/>
</svg>