<svg xmlns="http://www.w3.org/2000/svg" width="60" height="60" viewBox="0 0 60 60" fill="none">
  <path d="M56.2501 29.6789C55.822 24.7708 54.0267 20.0811 51.0679 16.1418C48.1092 12.2026 44.1054 9.17162 39.511 7.39292C34.9166 5.61423 29.9156 5.15905 25.0756 6.07903C20.2356 6.99901 15.7504 9.25731 12.129 12.5976C7.29446 17.0391 4.30759 23.1366 3.76182 29.6789C3.71732 30.1967 3.78093 30.7181 3.94862 31.2099C4.1163 31.7018 4.3844 32.1535 4.7359 32.5363C5.0874 32.9191 5.51463 33.2247 5.99048 33.4336C6.46632 33.6425 6.98041 33.7503 7.5001 33.75H28.1251V46.875C28.1251 48.8641 28.9153 50.7718 30.3218 52.1783C31.7283 53.5848 33.636 54.375 35.6251 54.375C37.6142 54.375 39.5219 53.5848 40.9284 52.1783C42.3349 50.7718 43.1251 48.8641 43.1251 46.875C43.1251 46.3777 42.9276 45.9008 42.5759 45.5491C42.2243 45.1975 41.7474 45 41.2501 45C40.7528 45 40.2759 45.1975 39.9243 45.5491C39.5726 45.9008 39.3751 46.3777 39.3751 46.875C39.3751 47.8695 38.98 48.8234 38.2767 49.5266C37.5735 50.2299 36.6197 50.625 35.6251 50.625C34.6305 50.625 33.6767 50.2299 32.9735 49.5266C32.2702 48.8234 31.8751 47.8695 31.8751 46.875V33.75H52.5001C53.0208 33.7519 53.5362 33.6453 54.0134 33.4371C54.4906 33.2289 54.9193 32.9236 55.2721 32.5406C55.6248 32.1577 55.894 31.7054 56.0624 31.2127C56.2308 30.72 56.2947 30.1977 56.2501 29.6789ZM7.5001 30C7.86964 25.7933 9.41036 21.7743 11.9476 18.3986C14.4848 15.0229 17.917 12.4256 21.8551 10.9011C25.7932 9.37661 30.0797 8.98593 34.2285 9.77337C38.3773 10.5608 42.2225 12.4948 45.3282 15.3562C49.4784 19.1596 52.0398 24.3895 52.5001 30H7.5001Z" fill="#0064B0"/>
</svg>