<svg xmlns="http://www.w3.org/2000/svg" width="60" height="60" viewBox="0 0 60 60" fill="none">
  <path d="M48.1675 43.7449C48.9468 42.6609 49.4062 41.3344 49.4062 39.9012C49.4062 38.468 48.9456 37.1414 48.1675 36.0574C51.0937 35.3801 53.2815 32.7551 53.2815 29.6273C53.2815 25.9875 50.3202 23.025 46.6792 23.025H33.4019V21.2824C33.4019 19.2773 34.1823 17.3918 35.6003 15.9738L35.6554 15.9187C36.5003 16.4062 37.4601 16.6676 38.462 16.6676C39.9655 16.6676 41.3776 16.0828 42.4405 15.0199C44.0823 13.3769 45.3128 11.4539 45.9022 9.60233C46.6019 7.40976 46.3323 5.54765 45.1429 4.35819C43.9546 3.16991 42.0925 2.90038 39.8987 3.59882C38.0483 4.18827 36.1241 5.41874 34.4823 7.06054C33.4194 8.12343 32.8347 9.53671 32.8347 11.0391C32.8347 12.0398 33.096 13.0008 33.5835 13.8457L33.5284 13.9008C32.3507 15.0785 31.4917 16.4894 30.989 18.0281C30.369 17.3285 29.7187 16.7894 29.1573 16.3922C29.5347 15.6281 29.7362 14.782 29.7362 13.9043C29.7362 12.4008 29.1515 10.9887 28.0886 9.92577C26.4456 8.2828 24.5226 7.0535 22.6722 6.46405C20.4796 5.76444 18.6175 6.03397 17.428 7.22343C16.2397 8.41171 15.9702 10.2738 16.6687 12.4664C17.2593 14.3168 18.4886 16.241 20.1304 17.884C21.1933 18.9469 22.6065 19.5316 24.1089 19.5316C25.2269 19.5316 26.2944 19.207 27.2062 18.6047C28.1812 19.2351 29.8265 20.6238 30.3245 23.025H17.196C13.5562 23.025 10.5937 25.9863 10.5937 29.6273C10.5937 31.0605 11.0542 32.3871 11.8323 33.4711C8.90615 34.1484 6.71826 36.7734 6.71826 39.9012C6.71826 43.0289 8.90615 45.6551 11.8323 46.3312C11.053 47.4152 10.5937 48.7418 10.5937 50.175C10.5937 53.8148 13.555 56.7773 17.196 56.7773H46.6804C50.3202 56.7773 53.2827 53.816 53.2827 50.175C53.2827 47.0461 51.0948 44.4211 48.1687 43.7449H48.1675ZM36.5554 9.13475C37.8538 7.83632 39.3972 6.83671 40.7905 6.39257C41.2944 6.23202 41.7573 6.15233 42.1429 6.15233C42.5601 6.15233 42.8858 6.24608 43.0722 6.43241C43.4308 6.791 43.446 7.66522 43.112 8.71405C42.6679 10.1074 41.6683 11.6508 40.3698 12.9492C39.8601 13.459 39.1827 13.7391 38.4632 13.7391C37.7437 13.7391 37.0651 13.459 36.5565 12.9492C36.0468 12.4394 35.7667 11.7621 35.7667 11.0426C35.7667 10.323 36.0468 9.64452 36.5565 9.13475H36.5554ZM22.2022 15.8133C19.4308 13.0418 18.7405 10.0547 19.4999 9.29647C19.8585 8.93788 20.7327 8.92265 21.7815 9.25663C23.1749 9.70077 24.7183 10.7004 26.0167 11.9988C26.5265 12.5086 26.8065 13.1859 26.8065 13.9066C26.8065 14.6273 26.5358 15.2766 26.0448 15.7816C26.0272 15.798 26.0097 15.8168 25.9921 15.8344C24.9386 16.8633 23.2452 16.8574 22.2011 15.8133H22.2022ZM17.1948 25.9558H46.6792C48.7042 25.9558 50.3519 27.6035 50.3519 29.6285C50.3519 31.6535 48.7042 33.3012 46.6792 33.3012H17.1948C15.1698 33.3012 13.5222 31.6535 13.5222 29.6285C13.5222 27.6035 15.1698 25.9558 17.1948 25.9558ZM9.64795 39.9023C9.64795 37.8773 11.2956 36.2297 13.3206 36.2297H42.805C44.83 36.2297 46.4776 37.8773 46.4776 39.9023C46.4776 41.9273 44.83 43.575 42.805 43.575H13.3206C11.2956 43.575 9.64795 41.9273 9.64795 39.9023ZM46.6792 53.8488H17.1948C15.1698 53.8488 13.5222 52.2012 13.5222 50.1762C13.5222 48.1512 15.1698 46.5035 17.1948 46.5035H46.6792C48.7042 46.5035 50.3519 48.1512 50.3519 50.1762C50.3519 52.2012 48.7042 53.8488 46.6792 53.8488Z" fill="#0064B0"/>
</svg>