<svg xmlns="http://www.w3.org/2000/svg" width="60" height="60" viewBox="0 0 60 60" fill="none">
  <path d="M49.85 56.55C49.3549 56.5241 48.8895 56.3056 48.5532 55.9413C48.2169 55.577 48.0363 55.0956 48.05 54.6L48.45 44.6C48.4564 44.3526 48.5122 44.109 48.6144 43.8837C48.7165 43.6583 48.8628 43.4557 49.0446 43.2879C49.2264 43.12 49.4401 42.9904 49.6729 42.9066C49.9057 42.8228 50.153 42.7865 50.4 42.8C50.8952 42.8259 51.3606 43.0443 51.6969 43.4086C52.0332 43.773 52.2138 44.2543 52.2 44.75L51.8 54.75C51.7904 54.9963 51.7323 55.2382 51.629 55.462C51.5258 55.6859 51.3794 55.8871 51.1983 56.0543C51.0171 56.2215 50.8048 56.3513 50.5735 56.4364C50.3422 56.5214 50.0963 56.56 49.85 56.55Z" fill="#0064B0"/>
  <path d="M29.9999 56.875C29.0812 56.8742 28.1632 56.8241 27.2499 56.725C20.1654 55.981 13.6652 52.4574 9.1753 46.927C4.68541 41.3967 2.57243 34.3112 3.2999 27.225C3.35662 26.734 3.60244 26.2844 3.98518 25.9717C4.36792 25.659 4.85746 25.5077 5.3499 25.55C5.84298 25.6127 6.29269 25.8637 6.6049 26.2505C6.9171 26.6373 7.06761 27.1298 7.0249 27.625C6.39546 33.7209 8.21148 39.8174 12.074 44.5753C15.9366 49.3331 21.5297 52.3633 27.6249 53C31.6588 53.4098 35.7298 52.7553 39.4319 51.1016C43.1341 49.4479 46.3382 46.8528 48.7249 43.575C48.8694 43.3747 49.0518 43.2049 49.2619 43.0751C49.472 42.9454 49.7056 42.8583 49.9494 42.8188C50.1931 42.7794 50.4423 42.7883 50.6826 42.8451C50.9229 42.902 51.1496 43.0055 51.3499 43.15C51.5502 43.2945 51.72 43.4769 51.8498 43.687C51.9795 43.8971 52.0666 44.1307 52.1061 44.3745C52.1455 44.6182 52.1366 44.8674 52.0798 45.1077C52.023 45.348 51.9194 45.5747 51.7749 45.775C49.274 49.2073 45.9988 52.0013 42.2153 53.9299C38.4318 55.8586 34.2466 56.8676 29.9999 56.875Z" fill="#0064B0"/>
  <path d="M55 34.45H54.8C54.307 34.418 53.8453 34.1977 53.5102 33.8347C53.1752 33.4718 52.9925 32.9939 53 32.5C53.3297 29.4793 53.0609 26.4233 52.2089 23.5066C51.3569 20.59 49.9384 17.8698 48.0346 15.5016C46.1307 13.1334 43.7788 11.1636 41.1133 9.70485C38.4478 8.2461 35.5209 7.32696 32.5 6.99998C28.4459 6.56746 24.3495 7.21092 20.6233 8.86554C16.8971 10.5202 13.6727 13.1275 11.275 16.425C11.1305 16.6252 10.948 16.7951 10.7379 16.9248C10.5278 17.0546 10.2942 17.1417 10.0505 17.1811C9.5582 17.2608 9.05442 17.1417 8.64996 16.85C8.24551 16.5582 7.97351 16.1178 7.89381 15.6255C7.8141 15.1332 7.93322 14.6294 8.22496 14.225C11.6954 9.43045 16.6515 5.91564 22.3239 4.22614C27.9964 2.53665 34.0679 2.76696 39.5961 4.88135C45.1243 6.99573 49.7998 10.8759 52.8971 15.9196C55.9943 20.9632 57.3399 26.8883 56.725 32.775C56.679#0064B03 33.2121 56.4816 33.6192 56.1663 33.9254C55.851 34.2315 55.4382 34.4172 55 34.45Z" fill=""/>
  <path d="M9.74995 17.225C9.2548 17.1991 8.7894 16.9807 8.45309 16.6163C8.11679 16.252 7.93622 15.7706 7.94995 15.275L8.34995 5.27501C8.3596 5.02872 8.41772 4.78675 8.52098 4.56294C8.62424 4.33913 8.77062 4.13788 8.95173 3.97069C9.13285 3.80351 9.34515 3.67368 9.57649 3.58862C9.80783 3.50357 10.0537 3.46496 10.2999 3.47501C10.7951 3.50091 11.2605 3.71935 11.5968 4.08368C11.9331 4.44801 12.1137 4.92938 12.0999 5.42501L11.6999 15.425C11.6903 15.6713 11.6322 15.9133 11.5289 16.1371C11.4257 16.3609 11.2793 16.5621 11.0982 16.7293C10.917 16.8965 10.7047 17.0263 10.4734 17.1114C10.2421 17.1964 9.99622 17.2351 9.74995 17.225Z" fill="#0064B0"/>
  <path d="M55 34.45H54.8C54.307 34.418 53.8453 34.1977 53.5102 33.8347C53.1752 33.4718 52.9925 32.9939 53 32.5C53.3297 29.4793 53.0609 26.4233 52.2089 23.5066C51.3569 20.59 49.9384 17.8698 48.0346 15.5016C46.1307 13.1334 43.7788 11.1636 41.1133 9.70485C38.4478 8.2461 35.5209 7.32696 32.5 6.99998C28.4459 6.56746 24.3495 7.21092 20.6233 8.86554C16.8971 10.5202 13.6727 13.1275 11.275 16.425C11.1305 16.6252 10.948 16.7951 10.7379 16.9248C10.5278 17.0546 10.2942 17.1417 10.0505 17.1811C9.5582 17.2608 9.05442 17.1417 8.64996 16.85C8.24551 16.5582 7.97351 16.1178 7.89381 15.6255C7.8141 15.1332 7.93322 14.6294 8.22496 14.225C11.6954 9.43045 16.6515 5.91564 22.3239 4.22614C27.9964 2.53665 34.0679 2.76696 39.5961 4.88135C45.1243 6.99573 49.7998 10.8759 52.8971 15.9196C55.9943 20.9632 57.3399 26.8883 56.725 32.775C56.6793 33.2121 56.4816 33.6192 56.1663 33.9254C55.851 34.2315 55.4382 34.4172 55 34.45Z" fill="#0064B0"/>
  <path d="M29.9999 56.875C29.0812 56.8742 28.1632 56.8241 27.2499 56.725C20.1654 55.981 13.6652 52.4574 9.1753 46.927C4.68541 41.3967 2.57243 34.3112 3.2999 27.225C3.35662 26.734 3.60244 26.2844 3.98518 25.9717C4.36792 25.659 4.85746 25.5077 5.3499 25.55C5.84298 25.6127 6.29269 25.8637 6.6049 26.2505C6.9171 26.6373 7.06761 27.1298 7.0249 27.625C6.39546 33.7209 8.21148 39.8174 12.074 44.5753C15.9366 49.3331 21.5297 52.3633 27.6249 53C31.6588 53.4098 35.7298 52.7553 39.4319 51.1016C43.1341 49.4479 46.3382 46.8528 48.7249 43.575C48.8694 43.3747 49.0518 43.2049 49.2619 43.0751C49.472 42.9454 49.7056 42.8583 49.9494 42.8188C50.1931 42.7794 50.4423 42.7883 50.6826 42.8451C50.9229 42.902 51.1496 43.0055 51.3499 43.15C51.5502 43.2945 51.72 43.4769 51.8498 43.687C51.9795 43.8971 52.0666 44.1307 52.1061 44.3745C52.1455 44.6182 52.1366 44.8674 52.0798 45.1077C52.023 45.348 51.9194 45.5747 51.7749 45.775C49.274 49.2073 45.9988 52.0013 42.2153 53.9299C38.4318 55.8586 34.2466 56.8676 29.9999 56.875Z" fill="#0064B0"/>
  <path d="M29.9998 31.875C28.3313 31.9711 26.6922 31.4056 25.438 30.3011C24.1837 29.1966 23.4155 27.6422 23.2998 25.975C23.3444 25.1417 23.5535 24.3255 23.915 23.5734C24.2765 22.8213 24.7832 22.1481 25.406 21.5927C26.0288 21.0373 26.7553 20.6107 27.5437 20.3373C28.3322 20.064 29.1669 19.9493 29.9998 20C31.6658 19.897 33.305 20.4568 34.56 21.5573C35.8151 22.6578 36.5842 24.2098 36.6998 25.875C36.6998 26.3723 36.5023 26.8492 36.1506 27.2008C35.799 27.5524 35.3221 27.75 34.8248 27.75C34.3275 27.75 33.8506 27.5524 33.499 27.2008C33.1473 26.8492 32.9498 26.3723 32.9498 25.875C32.9498 24.725 31.5998 23.75 29.9998 23.75C28.3998 23.75 27.0498 24.725 27.0498 25.875C27.0498 27.025 28.3998 28.025 29.9998 28.025C30.4971 28.025 30.974 28.2225 31.3256 28.5741C31.6773 28.9258 31.8748 29.4027 31.8748 29.9C31.8748 30.3973 31.6773 30.8742 31.3256 31.2258C30.974 31.5774 30.4971 31.775 29.9998 31.775V31.875Z" fill="#0064B0"/>
  <path d="M29.9998 40C28.3338 40.103 26.6946 39.5432 25.4396 38.4427C24.1845 37.3422 23.4154 35.7902 23.2998 34.125C23.2998 33.6277 23.4973 33.1508 23.849 32.7992C24.2006 32.4475 24.6775 32.25 25.1748 32.25C25.6721 32.25 26.149 32.4475 26.5006 32.7992C26.8523 33.1508 27.0498 33.6277 27.0498 34.125C27.0498 35.275 28.3998 36.25 29.9998 36.25C31.5998 36.25 32.9498 35.275 32.9498 34.125C32.9498 32.975 31.5998 31.975 29.9998 31.975C29.5025 31.975 29.0256 31.7775 28.674 31.4258C28.3224 31.0742 28.1248 30.5973 28.1248 30.1C28.1248 29.6027 28.3224 29.1258 28.674 28.7742C29.0256 28.4225 29.5025 28.225 29.9998 28.225C31.6683 28.1289 33.3074 28.6944 34.5616 29.7989C35.8159 30.9034 36.5841 32.4578 36.6998 34.125C36.5842 35.7902 35.8151 37.3422 34.56 38.4427C33.305 39.5432 31.6658 40.103 29.9998 40Z" fill="#0064B0"/>
  <path d="M30 43.125C29.5047 43.1185 29.0316 42.9189 28.6813 42.5687C28.3311 42.2184 28.1315 41.7453 28.125 41.25V18.75C28.125 18.2527 28.3225 17.7758 28.6742 17.4242C29.0258 17.0725 29.5027 16.875 30 16.875C30.4973 16.875 30.9742 17.0725 31.3258 17.4242C31.6775 17.7758 31.875 18.2527 31.875 18.75V41.25C31.8685 41.7453 31.6689 42.2184 31.3187 42.5687C30.9684 42.9189 30.4953 43.1185 30 43.125Z" fill="#0064B0"/>
  <path d="M29.9999 50.625C24.9149 50.6193 20.0117 48.7331 16.2339 45.3293C12.4561 41.9255 10.0707 37.2448 9.53676 32.1879C9.00286 27.131 10.3582 22.0553 13.3419 17.9377C16.3256 13.82 20.7268 10.9514 25.6985 9.88398C30.6702 8.81652 35.8611 9.62563 40.272 12.1556C44.683 14.6855 48.0024 18.7575 49.5914 23.5879C51.1803 28.4183 50.9265 33.6657 48.8789 38.3202C46.8313 42.9747 43.1344 46.7075 38.4999 48.8C38.275 48.9017 38.0323 48.9582 37.7856 48.9662C37.5389 48.9741 37.293 48.9334 37.062 48.8464C36.831 48.7593 36.6194 48.6276 36.4394 48.4588C36.2593 48.29 36.1142 48.0874 36.0124 47.8625C35.9106 47.6376 35.8542 47.3948 35.8462 47.1481C35.8382 46.9014 35.8789 46.6555 35.966 46.4245C36.053 46.1936 36.1847 45.982 36.3536 45.8019C36.5224 45.6218 36.725 45.4767 36.9499 45.375C40.7456 43.6579 43.772 40.5974 45.4465 36.7828C47.1211 32.9681 47.3253 28.6688 46.02 24.7126C44.7146 20.7563 41.992 17.4227 38.3761 15.3536C34.7603 13.2844 30.5069 12.6259 26.4346 13.5048C22.3623 14.3837 18.7591 16.7379 16.3186 20.1142C13.878 23.4905 12.7726 27.6503 13.2152 31.7927C13.6578 35.9352 15.6171 39.7675 18.7158 42.552C21.8146 45.3364 25.8339 46.8762 29.9999 46.875C30.4972 46.875 30.9741 47.0725 31.3257 47.4241C31.6774 47.7758 31.8749 48.2527 31.8749 48.75C31.8749 49.2472 31.6774 49.7242 31.3257 50.0758C30.9741 50.4274 30.4972 50.625 29.9999 50.625Z" fill="#0064B0"/>
</svg>