<svg xmlns="http://www.w3.org/2000/svg" width="58" height="50" viewBox="0 0 58 50" fill="none">
  <path d="M26.1875 38.25C26.1875 38.7473 25.99 39.2242 25.6383 39.5758C25.2867 39.9275 24.8098 40.125 24.3125 40.125H17.75C17.2527 40.125 16.7758 39.9275 16.4242 39.5758C16.0725 39.2242 15.875 38.7473 15.875 38.25C15.875 37.7527 16.0725 37.2758 16.4242 36.9242C16.7758 36.5725 17.2527 36.375 17.75 36.375H24.3125C24.8098 36.375 25.2867 36.5725 25.6383 36.9242C25.99 37.2758 26.1875 37.7527 26.1875 38.25ZM40.25 36.375H33.6875C33.1902 36.375 32.7133 36.5725 32.3617 36.9242C32.01 37.2758 31.8125 37.7527 31.8125 38.25C31.8125 38.7473 32.01 39.2242 32.3617 39.5758C32.7133 39.9275 33.1902 40.125 33.6875 40.125H40.25C40.7473 40.125 41.2242 39.9275 41.5758 39.5758C41.9275 39.2242 42.125 38.7473 42.125 38.25C42.125 37.7527 41.9275 37.2758 41.5758 36.9242C41.2242 36.5725 40.7473 36.375 40.25 36.375ZM57.125 47.625C57.125 48.1223 56.9275 48.5992 56.5758 48.9508C56.2242 49.3025 55.7473 49.5 55.25 49.5H2.75C2.25272 49.5 1.77581 49.3025 1.42417 48.9508C1.07254 48.5992 0.875 48.1223 0.875 47.625C0.875 47.1277 1.07254 46.6508 1.42417 46.2992C1.77581 45.9475 2.25272 45.75 2.75 45.75H6.5V17.625C6.5 17.2768 6.59696 16.9355 6.78003 16.6393C6.96309 16.343 7.22503 16.1037 7.53647 15.9479C7.84792 15.7922 8.19658 15.7263 8.54339 15.7576C8.89019 15.7888 9.22143 15.9161 9.5 16.125L21.5 25.125V17.625C21.5 17.2768 21.597 16.9355 21.78 16.6393C21.9631 16.343 22.225 16.1037 22.5365 15.9479C22.8479 15.7922 23.1966 15.7263 23.5434 15.7576C23.8902 15.7888 24.2214 15.9161 24.5 16.125L33.5797 22.9336L36.2891 3.97031C36.4203 3.07817 36.867 2.26265 37.5482 1.67178C38.2294 1.08091 39.0998 0.753861 40.0016 0.75H44.2484C45.1502 0.753861 46.0206 1.08091 46.7018 1.67178C47.383 2.26265 47.8297 3.07817 47.9609 3.97031L51.4766 28.6102C51.4766 28.6102 51.4953 28.793 51.4953 28.875V45.75H55.2453C55.4919 45.7494 55.7363 45.7974 55.9643 45.8914C56.1923 45.9853 56.3996 46.1233 56.5742 46.2975C56.7488 46.4717 56.8873 46.6786 56.9818 46.9064C57.0763 47.1342 57.125 47.3784 57.125 47.625ZM37.0016 25.5L39.0008 27H47.4641L44.2484 4.5H40.0016L37.0016 25.5ZM10.25 45.75H47.75V30.75H38.375C37.9693 30.75 37.5746 30.6184 37.25 30.375L33.875 27.8438L25.25 21.375V28.875C25.25 29.2232 25.153 29.5645 24.97 29.8607C24.7869 30.157 24.525 30.3963 24.2135 30.552C23.9021 30.7078 23.5534 30.7737 23.2066 30.7424C22.8598 30.7112 22.5286 30.5839 22.25 30.375L10.25 21.375V45.75Z" fill="#0064B0"/>
</svg>