<svg xmlns="http://www.w3.org/2000/svg" width="60" height="60" viewBox="0 0 60 60" fill="none">
  <path d="M27.1875 41.25C27.1875 41.7473 26.99 42.2242 26.6383 42.5758C26.2867 42.9275 25.8098 43.125 25.3125 43.125H18.75C18.2527 43.125 17.7758 42.9275 17.4242 42.5758C17.0725 42.2242 16.875 41.7473 16.875 41.25C16.875 40.7527 17.0725 40.2758 17.4242 39.9242C17.7758 39.5725 18.2527 39.375 18.75 39.375H25.3125C25.8098 39.375 26.2867 39.5725 26.6383 39.9242C26.99 40.2758 27.1875 40.7527 27.1875 41.25ZM41.25 39.375H34.6875C34.1902 39.375 33.7133 39.5725 33.3617 39.9242C33.01 40.2758 32.8125 40.7527 32.8125 41.25C32.8125 41.7473 33.01 42.2242 33.3617 42.5758C33.7133 42.9275 34.1902 43.125 34.6875 43.125H41.25C41.7473 43.125 42.2242 42.9275 42.5758 42.5758C42.9275 42.2242 43.125 41.7473 43.125 41.25C43.125 40.7527 42.9275 40.2758 42.5758 39.9242C42.2242 39.5725 41.7473 39.375 41.25 39.375ZM58.125 50.625C58.125 51.1223 57.9275 51.5992 57.5758 51.9508C57.2242 52.3025 56.7473 52.5 56.25 52.5H3.75C3.25272 52.5 2.77581 52.3025 2.42417 51.9508C2.07254 51.5992 1.875 51.1223 1.875 50.625C1.875 50.1277 2.07254 49.6508 2.42417 49.2992C2.77581 48.9475 3.25272 48.75 3.75 48.75H7.5V20.625C7.5 20.2768 7.59696 19.9355 7.78003 19.6393C7.96309 19.343 8.22503 19.1037 8.53647 18.9479C8.84792 18.7922 9.19658 18.7263 9.54339 18.7576C9.89019 18.7888 10.2214 18.9161 10.5 19.125L22.5 28.125V20.625C22.5 20.2768 22.597 19.9355 22.78 19.6393C22.9631 19.343 23.225 19.1037 23.5365 18.9479C23.8479 18.7922 24.1966 18.7263 24.5434 18.7576C24.8902 18.7888 25.2214 18.9161 25.5 19.125L34.5797 25.9336L37.2891 6.97031C37.4203 6.07817 37.867 5.26265 38.5482 4.67178C39.2294 4.08091 40.0998 3.75386 41.0016 3.75H45.2484C46.1502 3.75386 47.0206 4.08091 47.7018 4.67178C48.383 5.26265 48.8297 6.07817 48.9609 6.97031L52.4766 31.6102C52.4766 31.6102 52.4953 31.793 52.4953 31.875V48.75H56.2453C56.4919 48.7494 56.7363 48.7974 56.9643 48.8914C57.1923 48.9853 57.3996 49.1233 57.5742 49.2975C57.7488 49.4717 57.8873 49.6786 57.9818 49.9064C58.0763 50.1342 58.125 50.3784 58.125 50.625ZM38.0016 28.5L40.0008 30H48.4641L45.2484 7.5H41.0016L38.0016 28.5ZM11.25 48.75H48.75V33.75H39.375C38.9693 33.75 38.5746 33.6184 38.25 33.375L34.875 30.8438L26.25 24.375V31.875C26.25 32.2232 26.153 32.5645 25.97 32.8607C25.7869 33.157 25.525 33.3963 25.2135 33.552C24.9021 33.7078 24.5534 33.7737 24.2066 33.7424C23.8598 33.7112 23.5286 33.5839 23.25 33.375L11.25 24.375V48.75Z" fill="white"/>
</svg>