<svg xmlns="http://www.w3.org/2000/svg" width="60" height="60" viewBox="0 0 60 60" fill="none">
  <g clip-path="url(#clip0_3325_12435)">
    <mask id="path-1-outside-1_3325_12435" maskUnits="userSpaceOnUse" x="-0.996582" y="-1" width="62" height="62" fill="black">
      <rect fill="white" x="-0.996582" y="-1" width="62" height="62"/>
      <path d="M58.825 57.6562H56.3201V49.5482C56.3201 48.9009 55.7954 48.3763 55.1482 48.3763H53.2079V42.7247C54.9668 42.2154 56.257 40.5913 56.257 38.6706C56.257 36.7499 54.9669 35.1257 53.2079 34.6165V28.1227C53.6193 28.0806 54.0252 27.9677 54.4101 27.783C55.2818 27.3648 55.9386 26.6341 56.2607 25.7232C56.5794 24.8146 56.5249 23.8336 56.1073 22.961C55.6888 22.0868 54.9576 21.4297 54.0496 21.1112L36.2204 14.8311C35.491 12.079 32.9785 10.0441 29.9986 10.0441C28.5736 10.0441 27.256 10.5105 26.1886 11.2978L16.7223 7.96488V1.17516C16.7223 0.528164 16.198 0.00351563 15.5509 0.00328125L8.30357 0C7.86412 0 7.46088 0.245977 7.26037 0.637148L3.75295 7.47586C3.66822 7.64098 3.62393 7.82391 3.62381 8.00953L3.61057 21.2852C3.61033 21.5961 3.7335 21.8944 3.95311 22.1143C4.17283 22.3343 4.47084 22.458 4.78174 22.4583L6.7226 22.4593V48.3764H4.84877C4.20154 48.3764 3.67689 48.9011 3.67689 49.5483V57.6562H1.17529C0.528066 57.6562 0.00341797 58.1809 0.00341797 58.8281C0.00341797 59.4754 0.528066 60 1.17529 60H58.8249C59.4721 60 59.9967 59.4754 59.9967 58.8281C59.9967 58.1809 59.4722 57.6562 58.825 57.6562ZM53.9762 50.72V57.6562H50.2286V50.72H53.9762ZM53.9132 38.6705C53.9132 39.7056 53.0711 40.5477 52.036 40.5477C50.9991 40.5477 50.1554 39.7056 50.1554 38.6705C50.1554 37.6354 50.9991 36.7932 52.036 36.7932C53.0711 36.7934 53.9132 37.6355 53.9132 38.6705ZM36.3714 17.3691L53.2722 23.3221C53.5895 23.4334 53.8454 23.6645 53.9931 23.9728C54.1411 24.282 54.1609 24.6279 54.0497 24.9446C53.9369 25.2642 53.7046 25.5217 53.3959 25.6698C53.0881 25.8175 52.7438 25.837 52.4249 25.7243L35.5224 19.7737C35.9557 19.0515 36.2502 18.2378 36.3714 17.3691ZM50.8641 27.6595V34.6161C49.1033 35.1251 47.8117 36.7494 47.8117 38.6706C47.8117 40.5918 49.1033 42.2161 50.8641 42.725V48.3764H49.0567C48.4095 48.3764 47.8848 48.9011 47.8848 49.5483V57.6562H44.0615L34.9705 22.0642L50.8641 27.6595ZM36.2414 38.3584L30.0001 44.4205L23.7588 38.3583L30.0001 32.2966L36.2414 38.3584ZM26.5281 25.6573L27.3731 22.3475C28.1754 22.7078 29.0636 22.9099 29.9985 22.9099C30.9334 22.9099 31.8216 22.708 32.6241 22.3481L33.4699 25.6597L30.0001 29.0295L26.5281 25.6573ZM37.2881 40.6089L40.9876 55.0929L31.682 46.0542L37.2881 40.6089ZM28.3183 46.0542L19.0122 55.0934L22.7108 40.6076L28.3183 46.0542ZM30.0001 47.6879L40.2628 57.6562H19.7374L30.0001 47.6879ZM35.7592 34.6229L31.6821 30.6632L34.1385 28.2775L35.7592 34.6229ZM29.9985 12.3877C32.2551 12.3877 34.091 14.2221 34.091 16.4769C34.091 18.7317 32.2551 20.5662 29.9985 20.5662C27.7437 20.5662 25.9092 18.7317 25.9092 16.4769C25.9092 14.2221 27.7437 12.3877 29.9985 12.3877ZM28.3181 30.663L24.2381 34.6256L25.8596 28.2754L28.3181 30.663ZM16.2502 10.2833L24.4773 13.18C24.0442 13.9025 23.7497 14.7166 23.6287 15.5858L15.3674 12.6759L16.2502 10.2833ZM23.7802 18.1241C24.0592 19.1764 24.5993 20.1229 25.326 20.8916L15.9388 57.6562H12.1122V49.5482C12.1122 48.9009 11.5875 48.3763 10.9403 48.3763H9.06646V22.4605L10.9397 22.4616C11.4305 22.4616 11.8698 22.1557 12.0397 21.6953L14.556 14.8751L23.7802 18.1241ZM5.95537 20.115L5.96721 8.29406L9.01889 2.3441L14.3785 2.34656V8.58516L10.1236 20.1172L5.95537 20.115ZM6.02064 50.72H9.7683V57.6562H6.02064V50.72Z"/>
    </mask>
    <path d="M58.825 57.6562H56.3201V49.5482C56.3201 48.9009 55.7954 48.3763 55.1482 48.3763H53.2079V42.7247C54.9668 42.2154 56.257 40.5913 56.257 38.6706C56.257 36.7499 54.9669 35.1257 53.2079 34.6165V28.1227C53.6193 28.0806 54.0252 27.9677 54.4101 27.783C55.2818 27.3648 55.9386 26.6341 56.2607 25.7232C56.5794 24.8146 56.5249 23.8336 56.1073 22.961C55.6888 22.0868 54.9576 21.4297 54.0496 21.1112L36.2204 14.8311C35.491 12.079 32.9785 10.0441 29.9986 10.0441C28.5736 10.0441 27.256 10.5105 26.1886 11.2978L16.7223 7.96488V1.17516C16.7223 0.528164 16.198 0.00351563 15.5509 0.00328125L8.30357 0C7.86412 0 7.46088 0.245977 7.26037 0.637148L3.75295 7.47586C3.66822 7.64098 3.62393 7.82391 3.62381 8.00953L3.61057 21.2852C3.61033 21.5961 3.7335 21.8944 3.95311 22.1143C4.17283 22.3343 4.47084 22.458 4.78174 22.4583L6.7226 22.4593V48.3764H4.84877C4.20154 48.3764 3.67689 48.9011 3.67689 49.5483V57.6562H1.17529C0.528066 57.6562 0.00341797 58.1809 0.00341797 58.8281C0.00341797 59.4754 0.528066 60 1.17529 60H58.8249C59.4721 60 59.9967 59.4754 59.9967 58.8281C59.9967 58.1809 59.4722 57.6562 58.825 57.6562ZM53.9762 50.72V57.6562H50.2286V50.72H53.9762ZM53.9132 38.6705C53.9132 39.7056 53.0711 40.5477 52.036 40.5477C50.9991 40.5477 50.1554 39.7056 50.1554 38.6705C50.1554 37.6354 50.9991 36.7932 52.036 36.7932C53.0711 36.7934 53.9132 37.6355 53.9132 38.6705ZM36.3714 17.3691L53.2722 23.3221C53.5895 23.4334 53.8454 23.6645 53.9931 23.9728C54.1411 24.282 54.1609 24.6279 54.0497 24.9446C53.9369 25.2642 53.7046 25.5217 53.3959 25.6698C53.0881 25.8175 52.7438 25.837 52.4249 25.7243L35.5224 19.7737C35.9557 19.0515 36.2502 18.2378 36.3714 17.3691ZM50.8641 27.6595V34.6161C49.1033 35.1251 47.8117 36.7494 47.8117 38.6706C47.8117 40.5918 49.1033 42.2161 50.8641 42.725V48.3764H49.0567C48.4095 48.3764 47.8848 48.9011 47.8848 49.5483V57.6562H44.0615L34.9705 22.0642L50.8641 27.6595ZM36.2414 38.3584L30.0001 44.4205L23.7588 38.3583L30.0001 32.2966L36.2414 38.3584ZM26.5281 25.6573L27.3731 22.3475C28.1754 22.7078 29.0636 22.9099 29.9985 22.9099C30.9334 22.9099 31.8216 22.708 32.6241 22.3481L33.4699 25.6597L30.0001 29.0295L26.5281 25.6573ZM37.2881 40.6089L40.9876 55.0929L31.682 46.0542L37.2881 40.6089ZM28.3183 46.0542L19.0122 55.0934L22.7108 40.6076L28.3183 46.0542ZM30.0001 47.6879L40.2628 57.6562H19.7374L30.0001 47.6879ZM35.7592 34.6229L31.6821 30.6632L34.1385 28.2775L35.7592 34.6229ZM29.9985 12.3877C32.2551 12.3877 34.091 14.2221 34.091 16.4769C34.091 18.7317 32.2551 20.5662 29.9985 20.5662C27.7437 20.5662 25.9092 18.7317 25.9092 16.4769C25.9092 14.2221 27.7437 12.3877 29.9985 12.3877ZM28.3181 30.663L24.2381 34.6256L25.8596 28.2754L28.3181 30.663ZM16.2502 10.2833L24.4773 13.18C24.0442 13.9025 23.7497 14.7166 23.6287 15.5858L15.3674 12.6759L16.2502 10.2833ZM23.7802 18.1241C24.0592 19.1764 24.5993 20.1229 25.326 20.8916L15.9388 57.6562H12.1122V49.5482C12.1122 48.9009 11.5875 48.3763 10.9403 48.3763H9.06646V22.4605L10.9397 22.4616C11.4305 22.4616 11.8698 22.1557 12.0397 21.6953L14.556 14.8751L23.7802 18.1241ZM5.95537 20.115L5.96721 8.29406L9.01889 2.3441L14.3785 2.34656V8.58516L10.1236 20.1172L5.95537 20.115ZM6.02064 50.72H9.7683V57.6562H6.02064V50.72Z" fill="white"/>
    <path d="M56.3201 57.6562H56.0701V57.9062H56.3201V57.6562ZM53.2079 48.3763H52.9579V48.6263H53.2079V48.3763ZM53.2079 42.7247L53.1384 42.4846L52.9579 42.5368V42.7247H53.2079ZM53.2079 34.6165H52.9579V34.8044L53.1384 34.8566L53.2079 34.6165ZM53.2079 28.1227L53.1825 27.874L52.9579 27.8969V28.1227H53.2079ZM54.4101 27.783L54.3019 27.5576L54.3019 27.5577L54.4101 27.783ZM56.2607 25.7232L56.4964 25.8066L56.4966 25.806L56.2607 25.7232ZM56.1073 22.961L56.3328 22.8531L56.3328 22.8531L56.1073 22.961ZM54.0496 21.1112L53.9665 21.347L53.9668 21.3471L54.0496 21.1112ZM36.2204 14.8311L35.9788 14.8952L36.0127 15.023L36.1374 15.0669L36.2204 14.8311ZM26.1886 11.2978L26.1056 11.5336L26.2305 11.5776L26.337 11.499L26.1886 11.2978ZM16.7223 7.96488H16.4723V8.1419L16.6393 8.20069L16.7223 7.96488ZM15.5509 0.00328125L15.5508 0.253281H15.5508L15.5509 0.00328125ZM7.26037 0.637148L7.48282 0.751238L7.48285 0.751186L7.26037 0.637148ZM3.75295 7.47586L3.97538 7.58999L3.9754 7.58995L3.75295 7.47586ZM3.62381 8.00953L3.87381 8.00978V8.00969L3.62381 8.00953ZM3.61057 21.2852L3.36057 21.285V21.285L3.61057 21.2852ZM3.95311 22.1143L3.77619 22.291L3.77623 22.291L3.95311 22.1143ZM4.78174 22.4583L4.78155 22.7083H4.7816L4.78174 22.4583ZM6.7226 22.4593H6.9726V22.2095L6.72273 22.2093L6.7226 22.4593ZM6.7226 48.3764V48.6264H6.9726V48.3764H6.7226ZM3.67689 57.6562V57.9062H3.92689V57.6562H3.67689ZM53.9762 50.72H54.2262V50.47H53.9762V50.72ZM53.9762 57.6562V57.9062H54.2262V57.6562H53.9762ZM50.2286 57.6562H49.9786V57.9062H50.2286V57.6562ZM50.2286 50.72V50.47H49.9786V50.72H50.2286ZM52.036 36.7932L52.036 36.5432H52.036V36.7932ZM36.3714 17.3691L36.4544 17.1333L36.166 17.0317L36.1238 17.3345L36.3714 17.3691ZM53.2722 23.3221L53.1891 23.5579L53.1894 23.558L53.2722 23.3221ZM53.9931 23.9728L54.2186 23.8649L54.2186 23.8648L53.9931 23.9728ZM54.0497 24.9446L54.2854 25.0279L54.2856 25.0275L54.0497 24.9446ZM53.3959 25.6698L53.504 25.8952L53.5041 25.8952L53.3959 25.6698ZM52.4249 25.7243L52.5082 25.4886L52.5079 25.4885L52.4249 25.7243ZM35.5224 19.7737L35.308 19.6451L35.1504 19.9078L35.4393 20.0096L35.5224 19.7737ZM50.8641 27.6595H51.1141V27.4825L50.9471 27.4237L50.8641 27.6595ZM50.8641 34.6161L50.9335 34.8563L51.1141 34.8041V34.6161H50.8641ZM50.8641 42.725H51.1141V42.5371L50.9335 42.4849L50.8641 42.725ZM50.8641 48.3764V48.6264H51.1141V48.3764H50.8641ZM47.8848 57.6562V57.9062H48.1348V57.6562H47.8848ZM44.0615 57.6562L43.8192 57.7181L43.8673 57.9062H44.0615V57.6562ZM34.9705 22.0642L35.0535 21.8284L34.6126 21.6731L34.7283 22.126L34.9705 22.0642ZM36.2414 38.3584L36.4156 38.5377L36.6002 38.3584L36.4156 38.1791L36.2414 38.3584ZM30.0001 44.4205L29.826 44.5998L30.0001 44.769L30.1743 44.5998L30.0001 44.4205ZM23.7588 38.3583L23.5847 38.1789L23.4 38.3583L23.5847 38.5376L23.7588 38.3583ZM30.0001 32.2966L30.1743 32.1173L30.0001 31.9481L29.826 32.1173L30.0001 32.2966ZM26.5281 25.6573L26.2859 25.5954L26.2501 25.7357L26.3539 25.8366L26.5281 25.6573ZM27.3731 22.3475L27.4755 22.1195L27.2044 21.9977L27.1309 22.2857L27.3731 22.3475ZM32.6241 22.3481L32.8663 22.2863L32.7928 21.9985L32.5218 22.12L32.6241 22.3481ZM33.4699 25.6597L33.6441 25.8391L33.748 25.7382L33.7122 25.5979L33.4699 25.6597ZM30.0001 29.0295L29.826 29.2088L30.0001 29.378L30.1743 29.2088L30.0001 29.0295ZM37.2881 40.6089L37.5304 40.547L37.4236 40.1288L37.114 40.4295L37.2881 40.6089ZM40.9876 55.0929L40.8134 55.2722L41.4492 55.8897L41.2299 55.031L40.9876 55.0929ZM31.682 46.0542L31.5078 45.8749L31.3232 46.0542L31.5078 46.2335L31.682 46.0542ZM28.3183 46.0542L28.4924 46.2335L28.6771 46.0542L28.4924 45.8749L28.3183 46.0542ZM19.0122 55.0934L18.7699 55.0315L18.5507 55.8901L19.1864 55.2727L19.0122 55.0934ZM22.7108 40.6076L22.885 40.4282L22.5754 40.1275L22.4686 40.5457L22.7108 40.6076ZM30.0001 47.6879L30.1743 47.5086L30.0001 47.3394L29.826 47.5086L30.0001 47.6879ZM40.2628 57.6562V57.9062H40.879L40.437 57.4769L40.2628 57.6562ZM19.7374 57.6562L19.5633 57.4769L19.1212 57.9062H19.7374V57.6562ZM35.7592 34.6229L35.585 34.8023L36.2207 35.4197L36.0014 34.5611L35.7592 34.6229ZM31.6821 30.6632L31.5079 30.4838L31.3233 30.6632L31.5079 30.8425L31.6821 30.6632ZM34.1385 28.2775L34.3807 28.2156L34.2739 27.7974L33.9643 28.0981L34.1385 28.2775ZM28.3181 30.663L28.4923 30.8424L28.677 30.663L28.4923 30.4837L28.3181 30.663ZM24.2381 34.6256L23.9959 34.5638L23.7767 35.4223L24.4123 34.805L24.2381 34.6256ZM25.8596 28.2754L26.0337 28.096L25.7241 27.7953L25.6173 28.2135L25.8596 28.2754ZM16.2502 10.2833L16.3332 10.0475L16.1009 9.96572L16.0156 10.1968L16.2502 10.2833ZM24.4773 13.18L24.6918 13.3085L24.8492 13.0458L24.5603 12.9441L24.4773 13.18ZM23.6287 15.5858L23.5456 15.8216L23.8341 15.9232L23.8763 15.6203L23.6287 15.5858ZM15.3674 12.6759L15.1329 12.5894L15.045 12.8274L15.2843 12.9117L15.3674 12.6759ZM23.7802 18.1241L24.0218 18.06L23.9879 17.9322L23.8632 17.8883L23.7802 18.1241ZM25.326 20.8916L25.5682 20.9535L25.6023 20.82L25.5077 20.7199L25.326 20.8916ZM15.9388 57.6562V57.9062H16.133L16.181 57.7181L15.9388 57.6562ZM12.1122 57.6562H11.8622V57.9062H12.1122V57.6562ZM9.06646 48.3763H8.81646V48.6263H9.06646V48.3763ZM9.06646 22.4605L9.06661 22.2105L8.81646 22.2104V22.4605H9.06646ZM10.9397 22.4616L10.9396 22.7116H10.9397V22.4616ZM12.0397 21.6953L12.2743 21.7818L12.2743 21.7818L12.0397 21.6953ZM14.556 14.8751L14.6391 14.6393L14.4067 14.5574L14.3214 14.7885L14.556 14.8751ZM5.95537 20.115L5.70537 20.1147L5.70512 20.3649L5.95524 20.365L5.95537 20.115ZM5.96721 8.29406L5.74476 8.17997L5.71727 8.23357L5.71721 8.29381L5.96721 8.29406ZM9.01889 2.3441L9.019 2.0941L8.86618 2.09403L8.79644 2.23001L9.01889 2.3441ZM14.3785 2.34656H14.6285V2.09668L14.3786 2.09656L14.3785 2.34656ZM14.3785 8.58516L14.613 8.67169L14.6285 8.62981V8.58516H14.3785ZM10.1236 20.1172L10.1235 20.3672L10.2978 20.3673L10.3582 20.2038L10.1236 20.1172ZM6.02064 50.72V50.47H5.77064V50.72H6.02064ZM9.7683 50.72H10.0183V50.47H9.7683V50.72ZM9.7683 57.6562V57.9062H10.0183V57.6562H9.7683ZM6.02064 57.6562H5.77064V57.9062H6.02064V57.6562ZM58.825 57.4062H56.3201V57.9062H58.825V57.4062ZM56.5701 57.6562V49.5482H56.0701V57.6562H56.5701ZM56.5701 49.5482C56.5701 48.7629 55.9335 48.1263 55.1482 48.1263V48.6263C55.6574 48.6263 56.0701 49.039 56.0701 49.5482H56.5701ZM55.1482 48.1263H53.2079V48.6263H55.1482V48.1263ZM53.4579 48.3763V42.7247H52.9579V48.3763H53.4579ZM53.2775 42.9648C55.14 42.4255 56.507 40.7059 56.507 38.6706H56.007C56.007 40.4767 54.7936 42.0053 53.1384 42.4846L53.2775 42.9648ZM56.507 38.6706C56.507 36.6353 55.1401 34.9155 53.2775 34.3763L53.1384 34.8566C54.7937 35.3358 56.007 36.8645 56.007 38.6706H56.507ZM53.4579 34.6165V28.1227H52.9579V34.6165H53.4579ZM53.2334 28.3714C53.6733 28.3264 54.1072 28.2057 54.5182 28.0084L54.3019 27.5577C53.9432 27.7298 53.5653 27.8348 53.1825 27.874L53.2334 28.3714ZM54.5182 28.0084C55.4495 27.5617 56.1523 26.78 56.4964 25.8066L56.025 25.6399C55.725 26.4883 55.1142 27.168 54.3019 27.5576L54.5182 28.0084ZM56.4966 25.806C56.8374 24.8346 56.7789 23.785 56.3328 22.8531L55.8818 23.069C56.271 23.8822 56.3215 24.7946 56.0248 25.6405L56.4966 25.806ZM56.3328 22.8531C55.8858 21.9194 55.1035 21.216 54.1323 20.8753L53.9668 21.3471C54.8117 21.6435 55.4918 22.2542 55.8818 23.069L56.3328 22.8531ZM54.1326 20.8754L36.3035 14.5953L36.1374 15.0669L53.9665 21.347L54.1326 20.8754ZM36.4621 14.7671C35.7043 11.9083 33.0949 9.79414 29.9986 9.79414V10.2941C32.862 10.2941 35.2776 12.2497 35.9788 14.8952L36.4621 14.7671ZM29.9986 9.79414C28.5182 9.79414 27.1489 10.2789 26.0402 11.0966L26.337 11.499C27.3631 10.7422 28.6291 10.2941 29.9986 10.2941V9.79414ZM26.2716 11.062L16.8053 7.72907L16.6393 8.20069L26.1056 11.5336L26.2716 11.062ZM16.9723 7.96488V1.17516H16.4723V7.96488H16.9723ZM16.9723 1.17516C16.9723 0.390157 16.3362 -0.246434 15.551 -0.246719L15.5508 0.253281C16.0599 0.253466 16.4723 0.666171 16.4723 1.17516H16.9723ZM15.551 -0.246719L8.30369 -0.25L8.30346 0.25L15.5508 0.253281L15.551 -0.246719ZM8.30357 -0.25C7.7705 -0.25 7.28126 0.0483252 7.03789 0.523111L7.48285 0.751186C7.6405 0.443628 7.95775 0.25 8.30357 0.25V-0.25ZM7.03792 0.523059L3.5305 7.36177L3.9754 7.58995L7.48282 0.751238L7.03792 0.523059ZM3.53052 7.36173C3.42771 7.56208 3.37395 7.78407 3.37381 8.00937L3.87381 8.00969C3.8739 7.86374 3.90873 7.71987 3.97538 7.58999L3.53052 7.36173ZM3.37381 8.00928L3.36057 21.285L3.86057 21.2855L3.87381 8.00978L3.37381 8.00928ZM3.36057 21.285C3.36028 21.6622 3.50969 22.024 3.77619 22.291L4.13002 21.9377C3.9573 21.7647 3.86038 21.5301 3.86057 21.2854L3.36057 21.285ZM3.77623 22.291C4.04277 22.5578 4.40432 22.708 4.78155 22.7083L4.78193 22.2083C4.53736 22.2081 4.30289 22.1108 4.12998 21.9377L3.77623 22.291ZM4.7816 22.7083L6.72246 22.7093L6.72273 22.2093L4.78187 22.2083L4.7816 22.7083ZM6.4726 22.4593V48.3764H6.9726V22.4593H6.4726ZM6.7226 48.1264H4.84877V48.6264H6.7226V48.1264ZM4.84877 48.1264C4.06347 48.1264 3.42689 48.763 3.42689 49.5483H3.92689C3.92689 49.0391 4.33961 48.6264 4.84877 48.6264V48.1264ZM3.42689 49.5483V57.6562H3.92689V49.5483H3.42689ZM3.67689 57.4062H1.17529V57.9062H3.67689V57.4062ZM1.17529 57.4062C0.389995 57.4062 -0.246582 58.0428 -0.246582 58.8281H0.253418C0.253418 58.319 0.666138 57.9062 1.17529 57.9062V57.4062ZM-0.246582 58.8281C-0.246582 59.6134 0.389995 60.25 1.17529 60.25V59.75C0.666138 59.75 0.253418 59.3373 0.253418 58.8281H-0.246582ZM1.17529 60.25H58.8249V59.75H1.17529V60.25ZM58.8249 60.25C59.6102 60.25 60.2467 59.6134 60.2467 58.8281H59.7467C59.7467 59.3373 59.334 59.75 58.8249 59.75V60.25ZM60.2467 58.8281C60.2467 58.0429 59.6103 57.4062 58.825 57.4062V57.9062C59.3341 57.9062 59.7467 58.3189 59.7467 58.8281H60.2467ZM53.7262 50.72V57.6562H54.2262V50.72H53.7262ZM53.9762 57.4062H50.2286V57.9062H53.9762V57.4062ZM50.4786 57.6562V50.72H49.9786V57.6562H50.4786ZM50.2286 50.97H53.9762V50.47H50.2286V50.97ZM53.6632 38.6705C53.6632 39.5675 52.933 40.2977 52.036 40.2977V40.7977C53.2091 40.7977 54.1632 39.8437 54.1632 38.6705H53.6632ZM52.036 40.2977C51.1367 40.2977 50.4054 39.5671 50.4054 38.6705H49.9054C49.9054 39.8441 50.8614 40.7977 52.036 40.7977V40.2977ZM50.4054 38.6705C50.4054 37.7738 51.1367 37.0432 52.036 37.0432V36.5432C50.8614 36.5432 49.9054 37.4969 49.9054 38.6705H50.4054ZM52.0359 37.0432C52.933 37.0433 53.6632 37.7736 53.6632 38.6705H54.1632C54.1632 37.4974 53.2091 36.5434 52.036 36.5432L52.0359 37.0432ZM36.2883 17.6049L53.1891 23.5579L53.3552 23.0863L36.4544 17.1333L36.2883 17.6049ZM53.1894 23.558C53.4429 23.6469 53.6481 23.8312 53.7676 24.0808L54.2186 23.8648C54.0428 23.4978 53.7361 23.2199 53.3549 23.0862L53.1894 23.558ZM53.7676 24.0808C53.8876 24.3313 53.9027 24.6087 53.8138 24.8618L54.2856 25.0275C54.4191 24.6471 54.3946 24.2326 54.2186 23.8649L53.7676 24.0808ZM53.814 24.8614C53.7234 25.1178 53.5375 25.3245 53.2878 25.4444L53.5041 25.8952C53.8716 25.7188 54.1503 25.4107 54.2854 25.0279L53.814 24.8614ZM53.2878 25.4444C53.039 25.5637 52.7636 25.5789 52.5082 25.4886L52.3416 25.96C52.7239 26.0952 53.1371 26.0712 53.504 25.8952L53.2878 25.4444ZM52.5079 25.4885L35.6054 19.5379L35.4393 20.0096L52.3419 25.9601L52.5079 25.4885ZM35.7367 19.9024C36.187 19.1519 36.4931 18.3062 36.619 17.4036L36.1238 17.3345C36.0073 18.1693 35.7244 18.9512 35.308 19.6451L35.7367 19.9024ZM50.6141 27.6595V34.6161H51.1141V27.6595H50.6141ZM50.7947 34.376C48.9303 34.9149 47.5617 36.6346 47.5617 38.6706H48.0617C48.0617 36.8642 49.2764 35.3353 50.9335 34.8563L50.7947 34.376ZM47.5617 38.6706C47.5617 40.7065 48.9303 42.4263 50.7947 42.9652L50.9335 42.4849C49.2764 42.0059 48.0617 40.477 48.0617 38.6706H47.5617ZM50.6141 42.725V48.3764H51.1141V42.725H50.6141ZM50.8641 48.1264H49.0567V48.6264H50.8641V48.1264ZM49.0567 48.1264C48.2714 48.1264 47.6348 48.763 47.6348 49.5483H48.1348C48.1348 49.0391 48.5475 48.6264 49.0567 48.6264V48.1264ZM47.6348 49.5483V57.6562H48.1348V49.5483H47.6348ZM47.8848 57.4062H44.0615V57.9062H47.8848V57.4062ZM44.3037 57.5944L35.2127 22.0023L34.7283 22.126L43.8192 57.7181L44.3037 57.5944ZM34.8875 22.3L50.7811 27.8953L50.9471 27.4237L35.0535 21.8284L34.8875 22.3ZM36.0672 38.1791L29.826 44.2412L30.1743 44.5998L36.4156 38.5377L36.0672 38.1791ZM30.1743 44.2412L23.933 38.179L23.5847 38.5376L29.826 44.5998L30.1743 44.2412ZM23.933 38.5376L30.1743 32.476L29.826 32.1173L23.5847 38.1789L23.933 38.5376ZM29.826 32.476L36.0672 38.5377L36.4156 38.1791L30.1743 32.1173L29.826 32.476ZM26.7703 25.7191L27.6154 22.4094L27.1309 22.2857L26.2859 25.5954L26.7703 25.7191ZM27.2707 22.5756C28.1042 22.9498 29.0272 23.1599 29.9985 23.1599V22.6599C29.1 22.6599 28.2466 22.4657 27.4755 22.1195L27.2707 22.5756ZM29.9985 23.1599C30.9698 23.1599 31.8927 22.9501 32.7264 22.5762L32.5218 22.12C31.7504 22.4659 30.8971 22.6599 29.9985 22.6599V23.1599ZM32.3819 22.41L33.2277 25.7216L33.7122 25.5979L32.8663 22.2863L32.3819 22.41ZM33.2958 25.4804L29.826 28.8501L30.1743 29.2088L33.6441 25.8391L33.2958 25.4804ZM30.1743 28.8501L26.7023 25.4779L26.3539 25.8366L29.826 29.2088L30.1743 28.8501ZM37.0459 40.6707L40.7454 55.1548L41.2299 55.031L37.5304 40.547L37.0459 40.6707ZM41.1618 54.9136L31.8562 45.8749L31.5078 46.2335L40.8134 55.2722L41.1618 54.9136ZM31.8562 46.2335L37.4623 40.7882L37.114 40.4295L31.5078 45.8749L31.8562 46.2335ZM28.1441 45.8749L18.838 54.914L19.1864 55.2727L28.4924 46.2335L28.1441 45.8749ZM19.2544 55.1552L22.9531 40.6694L22.4686 40.5457L18.7699 55.0315L19.2544 55.1552ZM22.5367 40.7869L28.1441 46.2335L28.4924 45.8749L22.885 40.4282L22.5367 40.7869ZM29.826 47.8673L40.0886 57.8356L40.437 57.4769L30.1743 47.5086L29.826 47.8673ZM40.2628 57.4062H19.7374V57.9062H40.2628V57.4062ZM19.9116 57.8356L30.1743 47.8673L29.826 47.5086L19.5633 57.4769L19.9116 57.8356ZM35.9334 34.4436L31.8563 30.4838L31.5079 30.8425L35.585 34.8023L35.9334 34.4436ZM31.8563 30.8425L34.3127 28.4568L33.9643 28.0981L31.5079 30.4838L31.8563 30.8425ZM33.8963 28.3393L35.517 34.6848L36.0014 34.5611L34.3807 28.2156L33.8963 28.3393ZM29.9985 12.6377C32.1172 12.6377 33.841 14.3604 33.841 16.4769H34.341C34.341 14.0838 32.3929 12.1377 29.9985 12.1377V12.6377ZM33.841 16.4769C33.841 18.5935 32.1172 20.3162 29.9985 20.3162V20.8162C32.3929 20.8162 34.341 18.87 34.341 16.4769H33.841ZM29.9985 20.3162C27.8818 20.3162 26.1592 18.5936 26.1592 16.4769H25.6592C25.6592 18.8698 27.6056 20.8162 29.9985 20.8162V20.3162ZM26.1592 16.4769C26.1592 14.3602 27.8818 12.6377 29.9985 12.6377V12.1377C27.6056 12.1377 25.6592 14.084 25.6592 16.4769H26.1592ZM28.144 30.4837L24.064 34.4463L24.4123 34.805L28.4923 30.8424L28.144 30.4837ZM24.4804 34.6875L26.1018 28.3372L25.6173 28.2135L23.9959 34.5638L24.4804 34.6875ZM25.6854 28.4547L28.144 30.8424L28.4923 30.4837L26.0337 28.096L25.6854 28.4547ZM16.1672 10.5191L24.3943 13.4158L24.5603 12.9441L16.3332 10.0475L16.1672 10.5191ZM24.2629 13.0514C23.8128 13.8022 23.5068 14.6482 23.381 15.5513L23.8763 15.6203C23.9926 14.785 24.2755 14.0028 24.6918 13.3085L24.2629 13.0514ZM23.7117 15.35L15.4505 12.4401L15.2843 12.9117L23.5456 15.8216L23.7117 15.35ZM15.6019 12.7625L16.4847 10.3699L16.0156 10.1968L15.1329 12.5894L15.6019 12.7625ZM23.5385 18.1882C23.8286 19.282 24.3898 20.2652 25.1443 21.0633L25.5077 20.7199C24.8088 19.9806 24.2898 19.0709 24.0218 18.06L23.5385 18.1882ZM25.0838 20.8298L15.6966 57.5944L16.181 57.7181L25.5682 20.9535L25.0838 20.8298ZM15.9388 57.4062H12.1122V57.9062H15.9388V57.4062ZM12.3622 57.6562V49.5482H11.8622V57.6562H12.3622ZM12.3622 49.5482C12.3622 48.7629 11.7256 48.1263 10.9403 48.1263V48.6263C11.4494 48.6263 11.8622 49.039 11.8622 49.5482H12.3622ZM10.9403 48.1263H9.06646V48.6263H10.9403V48.1263ZM9.31646 48.3763V22.4605H8.81646V48.3763H9.31646ZM9.06632 22.7105L10.9396 22.7116L10.9398 22.2116L9.06661 22.2105L9.06632 22.7105ZM10.9397 22.7116C11.5351 22.7116 12.0681 22.3406 12.2743 21.7818L11.8052 21.6087C11.6716 21.9708 11.3259 22.2116 10.9397 22.2116V22.7116ZM12.2743 21.7818L14.7905 14.9616L14.3214 14.7885L11.8052 21.6087L12.2743 21.7818ZM14.4729 15.1109L23.6971 18.3599L23.8632 17.8883L14.6391 14.6393L14.4729 15.1109ZM6.20537 20.1152L6.21721 8.29431L5.71721 8.29381L5.70537 20.1147L6.20537 20.1152ZM6.18965 8.40815L9.24133 2.45819L8.79644 2.23001L5.74476 8.17997L6.18965 8.40815ZM9.01877 2.5941L14.3783 2.59656L14.3786 2.09656L9.019 2.0941L9.01877 2.5941ZM14.1285 2.34656V8.58516H14.6285V2.34656H14.1285ZM14.1439 8.49862L9.88907 20.0307L10.3582 20.2038L14.613 8.67169L14.1439 8.49862ZM10.1237 19.8672L5.9555 19.865L5.95524 20.365L10.1235 20.3672L10.1237 19.8672ZM6.02064 50.97H9.7683V50.47H6.02064V50.97ZM9.5183 50.72V57.6562H10.0183V50.72H9.5183ZM9.7683 57.4062H6.02064V57.9062H9.7683V57.4062ZM6.27064 57.6562V50.72H5.77064V57.6562H6.27064Z" fill="white" mask="url(#path-1-outside-1_3325_12435)"/>
    <path d="M29.9985 17.6488C29.3513 17.6488 28.8267 17.1274 28.8267 16.4802V16.4735C28.8267 15.8263 29.3513 15.3016 29.9985 15.3016C30.6458 15.3016 31.1704 15.8263 31.1704 16.4735C31.1704 17.1207 30.6458 17.6488 29.9985 17.6488Z" fill="white"/>
  </g>
  <defs>
    <clipPath id="clip0_3325_12435">
      <rect width="60" height="60" fill="white"/>
    </clipPath>
  </defs>
</svg>