<svg xmlns="http://www.w3.org/2000/svg" width="60" height="60" viewBox="0 0 60 60" fill="none">
  <g clip-path="url(#clip0_3325_12459)">
    <path d="M59.6294 40.6997C58.9357 39.4716 57.745 38.5903 56.3669 38.2903C55.6825 38.1403 54.97 38.1309 54.295 38.2716V20.7103L54.9757 21.2634C55.2363 21.4762 55.5494 21.5784 55.8616 21.5784C55.9 21.5784 55.9385 21.5691 55.9769 21.5662C56.0022 21.5672 56.0257 21.5784 56.051 21.5784C56.4597 21.5784 56.8647 21.4012 57.1432 21.0591C57.6325 20.4562 57.5416 19.5713 56.9388 19.0809L53.7785 16.5103C53.7775 16.5094 53.7757 16.5084 53.7747 16.5066L34.39 0.740625C34.106 0.51 33.7544 0.418125 33.4085 0.441563C33.0625 0.418125 32.711 0.509063 32.426 0.740625L9.87535 19.0819C9.27253 19.5712 9.1816 20.4572 9.67191 21.06C9.97941 21.4388 10.4435 21.6141 10.8953 21.5719C11.2263 21.585 11.5628 21.4884 11.8394 21.2634L12.52 20.7103V36.3497C9.43566 37.7278 7.39191 39.5091 7.21378 39.6778L1.76691 42.4622C1.42941 42.6403 1.17628 42.9403 1.06378 43.2966C0.951285 43.6528 0.988785 44.0466 1.16691 44.3841L8.54503 58.1934C8.72316 58.5403 9.04191 58.7934 9.41691 58.8872C9.53878 58.9247 9.66066 58.9434 9.78253 58.9434C10.045 58.9434 10.2982 58.8684 10.5232 58.7278L16.0263 55.3059C16.045 55.2966 16.0544 55.2778 16.0732 55.2684C16.0919 55.2591 16.12 55.2497 16.1388 55.2403C16.5982 54.9872 17.1513 54.9872 17.62 55.2309C24.2857 58.7747 28.3825 59.5622 30.7169 59.5622C31.27 59.5622 31.72 59.5153 32.0857 59.4591C33.445 59.3841 45.4825 58.4466 57.9232 46.8684L58.9357 45.8559C60.3044 44.4872 60.5857 42.3684 59.6294 40.6997ZM15.3325 18.4228L33.4075 3.72094L51.4825 18.4219V39.6019L48.5763 41.2331C46.5138 42.3862 44.6575 43.53 42.9513 44.7113C42.67 44.8988 42.4075 45.0956 42.1357 45.2831C42.2294 45.0956 42.3044 44.8988 42.3513 44.7113C42.5107 44.1581 42.52 43.6144 42.3513 43.0894C42.1732 42.4894 41.7325 41.8144 40.7575 41.2894V28.8862C40.7575 26.9456 39.9982 25.0987 38.6107 23.6831C37.0919 22.1737 35.0857 21.4144 32.9388 21.5456C29.0857 21.78 26.0575 25.1175 26.0575 29.13V36.2644C22.2138 34.3331 18.4638 34.4644 15.3325 35.3269V18.4228ZM37.945 40.5403C37.8044 40.5216 37.6638 40.5122 37.5232 40.5028C30.52 40.0341 29.2075 38.7309 29.0763 38.5903C29.0107 38.5153 28.945 38.4403 28.87 38.3653V29.1309C28.87 26.6372 30.7732 24.4997 33.1169 24.3591C34.4482 24.2841 35.6857 24.7434 36.6138 25.6622C37.4763 26.5434 37.945 27.6872 37.945 28.8872V40.5403ZM10.3169 55.5497L4.31691 44.3184L7.45753 42.7059L13.4107 53.6184L10.3169 55.5497ZM56.92 43.8966L55.9638 44.8434C55.195 45.5559 54.4263 46.2309 53.6575 46.8684L53.6482 46.8778C53.5169 46.9809 53.3857 47.0934 53.2544 47.1966C42.1732 56.1684 31.9919 56.6466 31.8794 56.6466C31.8138 56.6559 31.7388 56.6653 31.6638 56.6747C30.4825 56.8997 26.8638 56.9653 18.9419 52.7559C18.295 52.4091 17.5825 52.2309 16.8794 52.2309C16.5794 52.2309 16.2888 52.2684 15.9888 52.3247L12.895 46.5591C12.82 46.4372 12.745 46.3153 12.6888 46.1841L9.95128 41.0934C10.5419 40.6622 11.4232 40.0716 12.52 39.4997C13.345 39.0684 14.2919 38.6372 15.3325 38.3091C18.2107 37.3528 21.7732 37.0716 25.3169 39.0403C25.5607 39.1809 25.8138 39.3497 26.0575 39.5559C26.3575 39.7997 26.6575 40.0903 26.9575 40.4372C27.3888 40.9341 28.0169 41.3653 28.87 41.7309C30.6888 42.5372 33.4919 43.0528 37.3357 43.3153C37.5607 43.3341 37.7575 43.3528 37.945 43.3716C39.1357 43.5216 39.6044 43.8216 39.6607 43.8872C39.6607 43.9528 39.5482 44.2716 39.0794 44.7122C38.9763 44.8153 38.8638 44.9184 38.7232 45.0309C38.5075 45.2091 38.245 45.3966 37.945 45.5653C36.0138 46.7372 32.4982 47.7497 28.5607 46.9903C27.8763 46.8591 27.1825 46.6716 26.4794 46.4278C26.3482 46.3809 26.2169 46.3622 26.0857 46.3622C25.5607 46.3247 25.0544 46.5966 24.7825 47.0747C24.6982 47.2153 24.6513 47.3747 24.6232 47.5247C24.5482 48.0122 24.7263 48.5278 25.1294 48.8559C25.3544 49.0059 25.5888 49.1091 25.8325 49.2028C26.7513 49.5403 27.6982 49.7747 28.6732 49.8591C38.7982 50.7403 43.5419 47.6841 43.5419 47.6841L43.795 47.5247L48.3044 44.7122L49.9544 43.6809L51.4825 42.8184L53.8919 41.4684C53.9388 41.4497 53.9857 41.4216 54.0232 41.3934C54.1075 41.3278 54.2013 41.2716 54.295 41.2247C54.745 40.9903 55.2513 40.9247 55.7575 41.0372C56.3575 41.1684 56.8544 41.5247 57.1638 42.0497C57.4919 42.6028 57.37 43.4372 56.92 43.8966Z" fill="#0064B0" stroke="#0064B0" stroke-width="0.25"/>
  </g>
  <defs>
    <clipPath id="clip0_3325_12459">
      <rect width="60" height="60" fill="#0064B0"/>
    </clipPath>
  </defs>
</svg>