<svg xmlns="http://www.w3.org/2000/svg" width="60" height="60" viewBox="0 0 60 60" fill="none">
  <path d="M52.0641 13.7977C51.8881 13.587 51.6679 13.4176 51.4193 13.3014C51.1706 13.1852 50.8995 13.125 50.625 13.125H12.8156L11.6695 6.82969C11.5126 5.96563 11.0573 5.18407 10.3831 4.62127C9.70897 4.05847 8.85867 3.75013 7.98047 3.75H3.75C3.25272 3.75 2.77581 3.94754 2.42417 4.29917C2.07254 4.65081 1.875 5.12772 1.875 5.625C1.875 6.12228 2.07254 6.59919 2.42417 6.95083C2.77581 7.30246 3.25272 7.5 3.75 7.5H7.96875L13.9594 40.3805C14.1358 41.3556 14.5668 42.2668 15.2086 43.0219C14.3228 43.8493 13.6834 44.9058 13.3614 46.0744C13.0394 47.243 13.0473 48.4779 13.3843 49.6422C13.7213 50.8066 14.3742 51.8548 15.2705 52.6708C16.1669 53.4867 17.2718 54.0385 18.4626 54.2648C19.6534 54.4912 20.8836 54.3833 22.0168 53.9532C23.1501 53.5231 24.142 52.7875 24.8828 51.828C25.6235 50.8685 26.084 49.7226 26.2132 48.5174C26.3424 47.3122 26.1353 46.0947 25.6148 45H36.2602C35.8407 45.8782 35.6236 46.8393 35.625 47.8125C35.625 49.1104 36.0099 50.3792 36.731 51.4584C37.4521 52.5376 38.477 53.3788 39.6761 53.8755C40.8753 54.3722 42.1948 54.5021 43.4678 54.2489C44.7408 53.9957 45.9101 53.3707 46.8279 52.4529C47.7457 51.5351 48.3707 50.3658 48.6239 49.0928C48.8771 47.8198 48.7472 46.5003 48.2505 45.3011C47.7538 44.102 46.9126 43.0771 45.8334 42.356C44.7542 41.6349 43.4854 41.25 42.1875 41.25H19.493C19.0539 41.2499 18.6287 41.0958 18.2916 40.8144C17.9546 40.533 17.7269 40.1422 17.6484 39.7102L16.9055 35.625H44.093C45.4103 35.6248 46.6857 35.1623 47.697 34.3181C48.7082 33.4739 49.3911 32.3016 49.6266 31.0055L52.4766 15.3352C52.5248 15.0643 52.5129 14.7862 52.4416 14.5205C52.3703 14.2547 52.2414 14.008 52.0641 13.7977ZM22.5 47.8125C22.5 48.3688 22.3351 48.9125 22.026 49.375C21.717 49.8376 21.2777 50.198 20.7638 50.4109C20.2499 50.6238 19.6844 50.6795 19.1388 50.571C18.5932 50.4624 18.0921 50.1946 17.6988 49.8012C17.3054 49.4079 17.0376 48.9068 16.929 48.3612C16.8205 47.8156 16.8762 47.2501 17.0891 46.7362C17.302 46.2223 17.6624 45.783 18.125 45.474C18.5875 45.165 19.1312 45 19.6875 45C20.4334 45 21.1488 45.2963 21.6762 45.8238C22.2037 46.3512 22.5 47.0666 22.5 47.8125ZM45 47.8125C45 48.3688 44.835 48.9125 44.526 49.375C44.217 49.8376 43.7777 50.198 43.2638 50.4109C42.7499 50.6238 42.1844 50.6795 41.6388 50.571C41.0932 50.4624 40.5921 50.1946 40.1988 49.8012C39.8054 49.4079 39.5376 48.9068 39.429 48.3612C39.3205 47.8156 39.3762 47.2501 39.5891 46.7362C39.802 46.2223 40.1624 45.783 40.625 45.474C41.0875 45.165 41.6312 45 42.1875 45C42.9334 45 43.6488 45.2963 44.1762 45.8238C44.7037 46.3512 45 47.0666 45 47.8125ZM45.9375 30.3352C45.8588 30.7684 45.6301 31.1601 45.2916 31.4416C44.9531 31.7232 44.5262 31.8766 44.0859 31.875H16.2234L13.4977 16.875H48.3773L45.9375 30.3352Z" fill="#0064B0"/>
</svg>