<svg xmlns="http://www.w3.org/2000/svg" width="60" height="60" viewBox="0 0 60 60" fill="none">
  <path d="M16.875 31.875H7.5C7.00272 31.875 6.52581 31.6775 6.17417 31.3258C5.82254 30.9742 5.625 30.4973 5.625 30C5.625 29.5027 5.82254 29.0258 6.17417 28.6742C6.52581 28.3225 7.00272 28.125 7.5 28.125H15.8719L19.0641 23.3344C19.2352 23.0772 19.4673 22.8663 19.7396 22.7204C20.0119 22.5745 20.3161 22.4982 20.625 22.4982C20.9339 22.4982 21.2381 22.5745 21.5104 22.7204C21.7827 22.8663 22.0148 23.0772 22.1859 23.3344L28.125 32.2406L30.3141 28.9594C30.4854 28.7025 30.7176 28.492 30.9899 28.3464C31.2622 28.2009 31.5662 28.1248 31.875 28.125H37.5C37.9973 28.125 38.4742 28.3225 38.8258 28.6742C39.1775 29.0258 39.375 29.5027 39.375 30C39.375 30.4973 39.1775 30.9742 38.8258 31.3258C38.4742 31.6775 37.9973 31.875 37.5 31.875H32.8781L29.6859 36.6656C29.5148 36.9228 29.2827 37.1337 29.0104 37.2796C28.7381 37.4255 28.4339 37.5018 28.125 37.5018C27.8161 37.5018 27.5119 37.4255 27.2396 37.2796C26.9673 37.1337 26.7352 36.9228 26.5641 36.6656L20.625 27.7547L18.4359 31.0359C18.2651 31.2937 18.0332 31.5051 17.7609 31.6515C17.4885 31.7979 17.1842 31.8747 16.875 31.875ZM41.7188 7.5C36.8789 7.5 32.6414 9.58125 30 13.0992C27.3586 9.58125 23.1211 7.5 18.2812 7.5C14.4287 7.50434 10.7351 9.0367 8.0109 11.7609C5.2867 14.4851 3.75434 18.1787 3.75 22.0313C3.75 22.207 3.75 22.3828 3.75 22.5586C3.76554 23.0559 3.97799 23.5266 4.34061 23.8673C4.70323 24.2079 5.18631 24.3905 5.68359 24.375C6.18087 24.3595 6.65162 24.147 6.99226 23.7844C7.3329 23.4218 7.51554 22.9387 7.5 22.4414C7.5 22.3055 7.5 22.1672 7.5 22.0313C7.50372 19.173 8.64079 16.4329 10.6619 14.4119C12.6829 12.3908 15.423 11.2537 18.2812 11.25C22.8398 11.25 26.6672 13.6781 28.2656 17.5781C28.4069 17.922 28.6472 18.2162 28.956 18.4232C29.2648 18.6302 29.6282 18.7407 30 18.7407C30.3718 18.7407 30.7352 18.6302 31.044 18.4232C31.3528 18.2162 31.5931 17.922 31.7344 17.5781C33.3328 13.6711 37.1602 11.25 41.7188 11.25C44.577 11.2537 47.3171 12.3908 49.3381 14.4119C51.3592 16.4329 52.4963 19.173 52.5 22.0313C52.5 34.5961 34.275 45.9727 30 48.4688C27.4617 46.9898 20.0086 42.375 14.3719 36.232C14.0356 35.8653 13.5674 35.6472 13.0703 35.6256C12.5732 35.6041 12.0878 35.7809 11.7211 36.1172C11.3543 36.4535 11.1362 36.9217 11.1147 37.4188C11.0931 37.9159 11.27 38.4012 11.6063 38.768C18.9117 46.7367 28.6992 52.0523 29.1117 52.275C29.3848 52.4219 29.69 52.4988 30 52.4988C30.31 52.4988 30.6152 52.4219 30.8883 52.275C31.9242 51.7172 56.25 38.4375 56.25 22.0313C56.2457 18.1787 54.7133 14.4851 51.9891 11.7609C49.2649 9.0367 45.5713 7.50434 41.7188 7.5Z" fill="#0064B0"/>
</svg>