<svg xmlns="http://www.w3.org/2000/svg" width="60" height="60" viewBox="0 0 60 60" fill="none">
  <g clip-path="url(#clip0_3325_12447)">
    <path d="M40.0255 19.4549L42.8975 16.5829C43.584 15.8964 43.584 14.7835 42.8975 14.097C42.2111 13.4105 41.0981 13.4105 40.4116 14.097L37.5396 16.969L25.6878 5.11728C25.0014 4.4308 23.8884 4.4308 23.2019 5.11728C17.744 10.5752 15.9489 18.9449 18.5431 26.3156C16.8635 27.9001 15.8121 30.1436 15.8121 32.6295C15.8121 34.1756 16.2201 35.6274 16.9312 36.8862L12.1276 48.7633H8.63504C5.53695 48.7633 3.0166 51.2838 3.0166 54.3817C3.0166 57.4797 5.53695 60.0001 8.63504 60.0001H40.3578C43.4559 60.0001 45.9761 57.4797 45.9761 54.3816C45.9761 51.2835 43.4558 48.7632 40.3578 48.7632H36.8661L32.9743 39.004C34.4186 39.3199 35.8948 39.479 37.3794 39.479C38.6513 39.479 39.9296 39.3622 41.1988 39.1271C45.2334 38.3797 48.8708 36.4798 51.7177 33.633C52.0474 33.3033 52.2327 32.8563 52.2327 32.3901C52.2327 31.9239 52.0475 31.4769 51.7177 31.1472L40.0255 19.4549ZM28.7176 35.6065C28.7032 35.6263 28.6885 35.6459 28.675 35.6663C27.7344 36.957 26.2121 37.7981 24.4964 37.7981C21.6464 37.7981 19.3277 35.4794 19.3277 32.6294C19.3277 29.7794 21.6464 27.4607 24.4964 27.4607C27.3464 27.4607 29.665 29.7794 29.665 32.6294C29.6652 33.7374 29.3135 34.7642 28.7176 35.6065ZM42.4605 54.3816C42.4605 55.5411 41.5171 56.4844 40.3578 56.4844H8.63504C7.47547 56.4844 6.53223 55.5411 6.53223 54.3816C6.53223 53.222 7.47559 52.2788 8.63504 52.2788H35.6646C35.6682 52.2788 35.6717 52.2792 35.6752 52.2792C35.678 52.2792 35.681 52.2788 35.6838 52.2788H40.3578C41.5171 52.2788 42.4605 53.2222 42.4605 54.3816ZM15.9198 48.7632L19.5582 39.7673C20.9614 40.741 22.6629 41.3137 24.4965 41.3137C26.3503 41.3137 28.0688 40.7279 29.4808 39.7345L33.0814 48.7632H15.9198ZM47.9211 32.3222C45.8121 34.0155 43.2978 35.1627 40.5583 35.6703C37.9352 36.1561 35.2694 36.0345 32.7502 35.3253C33.0283 34.476 33.1808 33.5704 33.1808 32.6295C33.1808 27.841 29.285 23.9452 24.4965 23.9452C23.4907 23.9452 22.525 24.119 21.6257 24.4351C19.9987 19.0762 21.0911 13.1957 24.5141 8.91544L47.9211 32.3222Z" fill="#0064B0"/>
    <path d="M42.0962 9.90906C44.8413 9.90906 47.0746 12.1423 47.0746 14.8874C47.0746 15.8582 47.8616 16.6452 48.8324 16.6452C49.8031 16.6452 50.5902 15.8582 50.5902 14.8874C50.5902 10.2038 46.7797 6.39343 42.0962 6.39343C41.1254 6.39343 40.3384 7.18046 40.3384 8.15124C40.3384 9.12203 41.1254 9.90906 42.0962 9.90906Z" fill="#0064B0"/>
    <path d="M42.0962 0C41.1254 0 40.3384 0.787031 40.3384 1.75781C40.3384 2.72859 41.1254 3.51562 42.0962 3.51562C48.3667 3.51562 53.4679 8.61703 53.4679 14.8874C53.4679 15.8582 54.255 16.6452 55.2258 16.6452C56.1965 16.6452 56.9836 15.8582 56.9836 14.8874C56.9836 6.6784 50.3052 0 42.0962 0Z" fill="#0064B0"/>
  </g>
  <defs>
    <clipPath id="clip0_3325_12447">
      <rect width="60" height="60" fill="#0064B0"/>
    </clipPath>
  </defs>
</svg>