<svg width="86" height="98" viewBox="0 0 86 98" fill="none" xmlns="http://www.w3.org/2000/svg">
<g id="react-2 1">
<g id="Group">
<path id="Vector" d="M86 49.0083C86 43.3109 78.8655 37.9115 67.927 34.5632C70.4513 23.4137 69.3294 14.5433 64.3861 11.7033C63.2466 11.0372 61.9144 10.7216 60.4594 10.7216V14.6309C61.2658 14.6309 61.9144 14.7887 62.4578 15.0867C64.8418 16.4541 65.8761 21.6607 65.0697 28.3573C64.8769 30.0052 64.5613 31.7407 64.1757 33.5113C60.7399 32.6699 56.9886 32.0212 53.0444 31.6005C50.6779 28.3573 48.2238 25.4122 45.7521 22.8352C51.4668 17.5235 56.8308 14.6134 60.477 14.6134V10.7041C55.6563 10.7041 49.3457 14.1401 42.9649 20.1005C36.5842 14.1751 30.2735 10.7742 25.4529 10.7742V14.6835C29.0815 14.6835 34.4631 17.5761 40.1777 22.8528C37.7236 25.4298 35.2695 28.3573 32.938 31.6005C28.9764 32.0212 25.225 32.6699 21.7892 33.5289C21.3861 31.7758 21.0881 30.0753 20.8777 28.445C20.0538 21.7483 21.0705 16.5418 23.437 15.1569C23.9629 14.8413 24.6466 14.7011 25.4529 14.7011V10.7918C23.9804 10.7918 22.6482 11.1073 21.4912 11.7735C16.5654 14.6134 15.4611 23.4663 18.0029 34.5807C7.09947 37.9466 0 43.3284 0 49.0083C0 54.7057 7.13453 60.1051 18.073 63.4535C15.5487 74.6029 16.6706 83.4733 21.6139 86.3133C22.7534 86.9795 24.0856 87.295 25.5581 87.295C30.3787 87.295 36.6894 83.859 43.0701 77.8986C49.4509 83.824 55.7615 87.2249 60.5821 87.2249C62.0546 87.2249 63.3869 86.9093 64.5438 86.2432C69.4696 83.4032 70.574 74.5503 68.0322 63.4359C78.9005 60.0876 86 54.6882 86 49.0083ZM63.1765 37.3155C62.5279 39.5769 61.7216 41.9084 60.81 44.24C60.0913 42.8376 59.3375 41.4351 58.5137 40.0327C57.7073 38.6302 56.8484 37.2629 55.9894 35.9305C58.4786 36.2987 60.8801 36.7545 63.1765 37.3155ZM55.148 55.9855C53.7807 58.3521 52.3783 60.596 50.9234 62.6821C48.3115 62.91 45.6645 63.0327 43 63.0327C40.353 63.0327 37.7061 62.91 35.1117 62.6997C33.6567 60.6135 32.2369 58.3872 30.8695 56.0381C29.5373 53.7416 28.3278 51.41 27.2234 49.0609C28.3102 46.7118 29.5373 44.3627 30.852 42.0662C32.2193 39.6996 33.6217 37.4557 35.0766 35.3696C37.6885 35.1417 40.3355 35.019 43 35.019C45.647 35.019 48.2939 35.1417 50.8883 35.352C52.3433 37.4382 53.7631 39.6645 55.1305 42.0136C56.4627 44.3101 57.6722 46.6417 58.7766 48.9908C57.6722 51.3399 56.4627 53.689 55.148 55.9855ZM60.81 53.7065C61.7566 56.0556 62.563 58.4047 63.2291 60.6837C60.9327 61.2446 58.5137 61.718 56.0069 62.0861C56.8659 60.7362 57.7248 59.3513 58.5312 57.9314C59.3376 56.5289 60.0913 55.1089 60.81 53.7065ZM43.0351 72.4116C41.4048 70.7286 39.7746 68.8529 38.1618 66.8018C39.7395 66.8719 41.3522 66.9245 42.9825 66.9245C44.6302 66.9245 46.2605 66.8895 47.8557 66.8018C46.278 68.8529 44.6478 70.7286 43.0351 72.4116ZM29.9931 62.0861C27.5039 61.718 25.1023 61.2622 22.806 60.7012C23.4545 58.4397 24.2609 56.1082 25.1724 53.7766C25.8912 55.1791 26.6449 56.5815 27.4688 57.984C28.2927 59.3864 29.1341 60.7538 29.9931 62.0861ZM42.9474 25.6051C44.5777 27.288 46.2079 29.1638 47.8206 31.2148C46.243 31.1447 44.6302 31.0921 43 31.0921C41.3522 31.0921 39.722 31.1272 38.1268 31.2148C39.7044 29.1638 41.3347 27.288 42.9474 25.6051ZM29.9755 35.9305C29.1166 37.2804 28.2576 38.6653 27.4513 40.0853C26.6449 41.4877 25.8912 42.8902 25.1724 44.2926C24.2258 41.9435 23.4195 39.5944 22.7534 37.3155C25.0497 36.772 27.4688 36.2987 29.9755 35.9305ZM14.1113 57.8788C7.90583 55.2317 3.89156 51.7606 3.89156 49.0083C3.89156 46.256 7.90583 42.7674 14.1113 40.1379C15.6188 39.4892 17.2666 38.9107 18.967 38.3673C19.9662 41.8033 21.2809 45.3795 22.9111 49.0434C21.2984 52.6897 20.0012 56.2484 19.0196 59.6669C17.2841 59.1234 15.6364 58.5274 14.1113 57.8788ZM23.5422 82.9299C21.1582 81.5625 20.1239 76.3559 20.9303 69.6593C21.1231 68.0114 21.4387 66.2759 21.8243 64.5053C25.2601 65.3468 29.0114 65.9954 32.9556 66.4161C35.3221 69.6593 37.7762 72.6044 40.2479 75.1814C34.5332 80.4932 29.1692 83.4032 25.523 83.4032C24.7342 83.3857 24.0681 83.2279 23.5422 82.9299ZM65.1223 69.5716C65.9462 76.2683 64.9295 81.4749 62.563 82.8598C62.0371 83.1753 61.3534 83.3156 60.5471 83.3156C56.9185 83.3156 51.5369 80.423 45.8223 75.1463C48.2764 72.5694 50.7305 69.6418 53.062 66.3986C57.0236 65.9779 60.775 65.3292 64.2108 64.4702C64.6139 66.2408 64.9295 67.9413 65.1223 69.5716ZM71.8712 57.8788C70.3636 58.5274 68.7159 59.1059 67.0155 59.6494C66.0163 56.2134 64.7016 52.6371 63.0713 48.9733C64.6841 45.3269 65.9812 41.7682 66.9629 38.3498C68.6983 38.8932 70.3461 39.4892 71.8887 40.1379C78.0942 42.785 82.1084 46.256 82.1084 49.0083C82.0909 51.7606 78.0766 55.2492 71.8712 57.8788Z" fill="#61DAFB"/>
<path id="Vector_2" d="M42.9837 57.02C47.408 57.02 50.9947 53.4331 50.9947 49.0085C50.9947 44.5839 47.408 40.9971 42.9837 40.9971C38.5593 40.9971 34.9727 44.5839 34.9727 49.0085C34.9727 53.4331 38.5593 57.02 42.9837 57.02Z" fill="#61DAFB"/>
</g>
</g>
</svg>
