<svg xmlns="http://www.w3.org/2000/svg" width="46" height="46" viewBox="0 0 46 46" fill="none">
  <path d="M22.9901 9.76781V8.70227H24.5929C25.4599 8.70227 26.1652 9.40754 26.1652 10.2745V12.1352L25.4635 11.4335C25.0251 10.9951 24.3135 10.9951 23.8751 11.4335C23.4366 11.872 23.4366 12.5835 23.8751 13.022L26.494 15.6409C26.7043 15.8511 26.99 15.9697 27.2882 15.9697C27.5865 15.9697 27.8713 15.8511 28.0825 15.6409L30.7014 13.022C31.1398 12.5835 31.1398 11.872 30.7014 11.4335C30.263 10.9951 29.5514 10.9951 29.113 11.4335L28.4113 12.1352V10.2745C28.4113 8.16949 26.698 6.45617 24.5929 6.45617H22.9901V5.39062C22.9901 3.28559 21.2768 1.57227 19.1718 1.57227H5.39062C3.28559 1.57227 1.57227 3.28559 1.57227 5.39062V9.76781C1.57227 11.8729 3.28559 13.5862 5.39062 13.5862H19.1718C21.2768 13.5862 22.9901 11.8729 22.9901 9.76781ZM3.81836 9.76781V5.39062C3.81836 4.52363 4.52363 3.81836 5.39062 3.81836H19.1718C20.0387 3.81836 20.744 4.52363 20.744 5.39062V9.76781C20.744 10.6348 20.0387 11.3401 19.1718 11.3401H5.39062C4.52363 11.3401 3.81836 10.6348 3.81836 9.76781Z" fill="white"/>
  <path d="M33.1073 25.1887V24.1232H34.7101C35.5771 24.1232 36.2824 24.8284 36.2824 25.6954V27.5561L35.5807 26.8544C35.1423 26.416 34.4307 26.416 33.9923 26.8544C33.5538 27.2929 33.5538 28.0044 33.9923 28.4429L36.6112 31.0618C36.8214 31.272 37.1071 31.3906 37.4054 31.3906C37.7037 31.3906 37.9885 31.272 38.1996 31.0618L40.8186 28.4429C41.257 28.0044 41.257 27.2929 40.8186 26.8544C40.3802 26.416 39.6686 26.416 39.2302 26.8544L38.5285 27.5561V25.6954C38.5285 23.5904 36.8152 21.8771 34.7101 21.8771H33.1073V20.8115C33.1073 18.7065 31.394 16.9932 29.2889 16.9932H15.5078C13.4028 16.9932 11.6895 18.7065 11.6895 20.8115V25.1887C11.6895 27.2937 13.4028 29.0071 15.5078 29.0071H29.2889C31.394 29.0071 33.1073 27.2937 33.1073 25.1887ZM13.9355 25.1887V20.8115C13.9355 19.9445 14.6408 19.2393 15.5078 19.2393H29.2889C30.1559 19.2393 30.8612 19.9445 30.8612 20.8115V25.1887C30.8612 26.0557 30.1559 26.761 29.2889 26.761H15.5078C14.6408 26.761 13.9355 26.0557 13.9355 25.1887Z" fill="white"/>
  <path d="M40.6093 32.4141H26.8281C24.7231 32.4141 23.0098 34.1274 23.0098 36.2324V40.6096C23.0098 42.7146 24.7231 44.428 26.8281 44.428H40.6093C42.7143 44.428 44.4276 42.7146 44.4276 40.6096V36.2324C44.4276 34.1274 42.7143 32.4141 40.6093 32.4141ZM42.1815 40.6096C42.1815 41.4766 41.4763 42.1819 40.6093 42.1819H26.8281C25.9611 42.1819 25.2559 41.4766 25.2559 40.6096V36.2324C25.2559 35.3654 25.9611 34.6602 26.8281 34.6602H40.6093C41.4763 34.6602 42.1815 35.3654 42.1815 36.2324V40.6096Z" fill="white"/>
  <path d="M15.798 6.45605H8.76416C8.14424 6.45605 7.64111 6.95918 7.64111 7.5791C7.64111 8.19902 8.14424 8.70215 8.76416 8.70215H15.7971C16.4171 8.70215 16.9202 8.19902 16.9202 7.5791C16.9202 6.95918 16.4171 6.45605 15.7971 6.45605H15.798Z" fill="white"/>
  <path d="M25.9153 21.877H18.8823C18.2624 21.877 17.7593 22.3801 17.7593 23C17.7593 23.6199 18.2624 24.123 18.8823 24.123H25.9153C26.5352 24.123 27.0383 23.6199 27.0383 23C27.0383 22.3801 26.5352 21.877 25.9153 21.877Z" fill="white"/>
  <path d="M37.2356 37.2979H30.2026C29.5827 37.2979 29.0796 37.801 29.0796 38.4209C29.0796 39.0408 29.5827 39.5439 30.2026 39.5439H37.2356C37.8555 39.5439 38.3587 39.0408 38.3587 38.4209C38.3587 37.801 37.8555 37.2979 37.2356 37.2979Z" fill="white"/>
</svg>