<svg xmlns="http://www.w3.org/2000/svg" width="40" height="40" viewBox="0 0 40 40" fill="none">
  <g clip-path="url(#clip0_3325_13022)">
    <path d="M10.625 18.4375H4.6875C2.10281 18.4375 0 16.3347 0 13.75V4.6875C0 2.10281 2.10281 0 4.6875 0H7.5C7.91437 0 8.31187 0.164609 8.60484 0.457656L14.8548 6.70766C15.1479 7.00063 15.3125 7.39813 15.3125 7.8125V13.75C15.3125 16.3347 13.2097 18.4375 10.625 18.4375ZM4.6875 3.125C3.82594 3.125 3.125 3.82594 3.125 4.6875V13.75C3.125 14.6116 3.82594 15.3125 4.6875 15.3125H10.625C11.4866 15.3125 12.1875 14.6116 12.1875 13.75V8.45969L6.85281 3.125H4.6875Z" fill="white"/>
    <path d="M35.3125 18.4375H29.375C26.7903 18.4375 24.6875 16.3347 24.6875 13.75V4.6875C24.6875 2.10281 26.7903 0 29.375 0H32.1875C32.6019 0 32.9994 0.164609 33.2923 0.457656L39.5423 6.70766C39.8354 7.00063 40 7.39813 40 7.8125V13.75C40 16.3347 37.8972 18.4375 35.3125 18.4375ZM29.375 3.125C28.5134 3.125 27.8125 3.82594 27.8125 4.6875V13.75C27.8125 14.6116 28.5134 15.3125 29.375 15.3125H35.3125C36.1741 15.3125 36.875 14.6116 36.875 13.75V8.45969L31.5403 3.125H29.375Z" fill="white"/>
    <path d="M35.3125 40H29.375C26.7903 40 24.6875 37.8972 24.6875 35.3125V26.25C24.6875 23.6653 26.7903 21.5625 29.375 21.5625H32.1875C32.6019 21.5625 32.9994 21.7271 33.2923 22.0202L39.5423 28.2702C39.8354 28.5631 40 28.9606 40 29.375V35.3125C40 37.8972 37.8972 40 35.3125 40ZM29.375 24.6875C28.5134 24.6875 27.8125 25.3884 27.8125 26.25V35.3125C27.8125 36.1741 28.5134 36.875 29.375 36.875H35.3125C36.1741 36.875 36.875 36.1741 36.875 35.3125V30.0222L31.5403 24.6875H29.375Z" fill="white"/>
    <path d="M10.625 40H4.6875C2.10281 40 0 37.8972 0 35.3125V26.25C0 23.6653 2.10281 21.5625 4.6875 21.5625H7.5C7.91437 21.5625 8.31187 21.7271 8.60484 22.0202L14.8548 28.2702C15.1479 28.5631 15.3125 28.9606 15.3125 29.375V35.3125C15.3125 37.8972 13.2097 40 10.625 40ZM4.6875 24.6875C3.82594 24.6875 3.125 25.3884 3.125 26.25V35.3125C3.125 36.1741 3.82594 36.875 4.6875 36.875H10.625C11.4866 36.875 12.1875 36.1741 12.1875 35.3125V30.0222L6.85281 24.6875H4.6875Z" fill="white"/>
    <path d="M20 40C19.137 40 18.4375 39.3005 18.4375 38.4375V1.5625C18.4375 0.699531 19.137 0 20 0C20.863 0 21.5625 0.699531 21.5625 1.5625V38.4375C21.5625 39.3005 20.863 40 20 40Z" fill="white"/>
  </g>
  <defs>
    <clipPath id="clip0_3325_13022">
      <rect width="40" height="40" fill="white"/>
    </clipPath>
  </defs>
</svg>