<svg xmlns="http://www.w3.org/2000/svg" width="46" height="46" viewBox="0 0 46 46" fill="none">
  <g clip-path="url(#clip0_3325_13009)">
    <path d="M35.7041 23.2805L30.102 28.8826L30.9546 29.7582H27.4257C27.9846 28.3234 28.292 26.7639 28.292 25.1338C28.292 18.0878 22.5597 12.3555 15.5136 12.3555C8.4675 12.3555 2.7352 18.0878 2.7352 25.1338C2.7352 26.7242 3.03223 28.2912 3.60282 29.7582H0V37.9121H30.5887L29.7756 38.7972L35.3607 44.3823L45.8651 33.6885L46.0001 33.5541L35.7041 23.2805ZM2.64716 35.2648V32.4053H15.5138C19.5233 32.4053 22.7854 29.1432 22.7854 25.1337C22.7854 21.1241 19.5234 17.8621 15.5138 17.8621C11.5041 17.8621 8.24209 21.1241 8.24209 25.1337C8.24209 26.8887 8.86713 28.5004 9.90617 29.7581H6.5019C5.76806 28.3328 5.38254 26.7485 5.38254 25.1337C5.38254 19.5474 9.92747 15.0025 15.5138 15.0025C21.1001 15.0025 25.645 19.5474 25.645 25.1337C25.645 30.72 21.1002 35.2648 15.5138 35.2648H2.64716ZM10.8892 25.1337C10.8892 22.5837 12.9638 20.5092 15.5138 20.5092C18.0637 20.5092 20.1382 22.5837 20.1382 25.1337C20.1382 27.6836 18.0637 29.7581 15.5138 29.7581C12.9638 29.7581 10.8892 27.6836 10.8892 25.1337ZM35.3437 40.6217L33.4416 38.7195L36.6153 35.2648H23.2916C24.3398 34.4582 25.2597 33.493 26.0152 32.4053H37.2271L33.821 28.9073L35.7062 27.0221L42.2498 33.5516L42.2417 33.5597L42.2614 33.5793L35.3437 40.6217Z" fill="white"/>
    <path d="M14.0537 1.61914H16.7009V7.05037H14.0537V1.61914Z" fill="white"/>
    <path d="M5.84863 6.68359L7.72011 4.81212L11.5601 8.65206L9.68858 10.5235L5.84863 6.68359Z" fill="white"/>
    <path d="M18.9087 8.65332L22.7486 4.81344L24.6201 6.68498L20.7802 10.5249L18.9087 8.65332Z" fill="white"/>
  </g>
  <defs>
    <clipPath id="clip0_3325_13009">
      <rect width="46" height="46" fill="white"/>
    </clipPath>
  </defs>
</svg>