<svg width="180" height="130" viewBox="0 0 204 130" fill="none" xmlns="http://www.w3.org/2000/svg">
<g id="android-logo" clip-path="url(#clip0_3179_729)">
<path id="Vector" d="M13.4706 59.6309C16.2875 59.6309 18.6274 61.0868 19.7405 62.6565V60.0176H24.0341V79.6045H20.9445C20.263 79.6045 19.7178 79.0585 19.7178 78.3761V76.9656C18.6274 78.5581 16.2875 80.014 13.4706 80.014C8.10934 80.014 4.04297 75.4187 4.04297 69.8224C4.04297 64.2262 8.10934 59.6309 13.4706 59.6309ZM14.243 63.5437C10.7672 63.5437 8.40466 66.2964 8.40466 69.8224C8.40466 73.3485 10.7445 76.1012 14.243 76.1012C17.7187 76.1012 20.0813 73.3485 20.0813 69.8224C20.0813 66.2964 17.7414 63.5437 14.243 63.5437ZM28.9182 60.0176H33.2345V62.6793C34.4158 60.7229 36.6421 59.6309 39.1864 59.6309C43.7298 59.6309 46.6603 62.8385 46.6603 67.8205V79.6045H43.5708C42.8893 79.6045 42.3441 79.0585 42.3441 78.3761V68.5258C42.3441 65.4319 40.7766 63.5437 38.2777 63.5437C35.4153 63.5437 33.2345 65.7731 33.2345 69.9589V79.6045H30.145C29.4635 79.6045 28.9182 79.0585 28.9182 78.3761V60.0176ZM59.4955 59.6309C62.3125 59.6309 64.6523 61.0868 65.7655 62.6565V50.2356H70.059V79.6273H66.9695C66.288 79.6273 65.7427 79.0813 65.7427 78.3988V76.9884C64.6523 78.5581 62.2897 80.014 59.4728 80.014C54.1116 80.014 50.0452 75.4187 50.0452 69.8224C50.0679 64.2262 54.1343 59.6309 59.4955 59.6309ZM60.2679 63.5437C56.7922 63.5437 54.4296 66.2964 54.4296 69.8224C54.4296 73.3485 56.7695 76.1012 60.2679 76.1012C63.7436 76.1012 66.1062 73.3485 66.1062 69.8224C66.1062 66.2964 63.7436 63.5437 60.2679 63.5437ZM74.9432 60.0176H79.2367V63.4982C79.9864 61.2688 82.1672 59.8129 84.3935 59.8129C84.9387 59.8129 85.4839 59.8584 86.0746 59.9721V64.4082C85.3249 64.1807 84.7116 64.0442 83.9165 64.0442C81.4403 64.0442 79.214 66.1144 79.214 70.0499V79.6045H76.1245C75.443 79.6045 74.8978 79.0585 74.8978 78.3761V60.0176H74.9432ZM97.7058 80.014C91.9129 80.014 87.4603 75.5097 87.4603 69.8224C87.4603 64.1352 91.9129 59.6309 97.7058 59.6309C103.499 59.6309 107.951 64.1352 107.951 69.8224C107.951 75.5097 103.499 80.014 97.7058 80.014ZM97.7058 76.0102C101.159 76.0102 103.567 73.303 103.567 69.8224C103.567 66.3419 101.136 63.6347 97.7058 63.6347C94.23 63.6347 91.7993 66.3419 91.7993 69.8224C91.7993 73.303 94.23 76.0102 97.7058 76.0102ZM113.585 55.7408C112.018 55.7408 110.7 54.4441 110.7 52.8517C110.7 51.282 112.04 49.9854 113.585 49.9854C115.198 49.9854 116.447 51.282 116.447 52.8517C116.447 54.4669 115.198 55.7408 113.585 55.7408ZM111.45 60.0176H115.743V79.6045H112.676C111.995 79.6045 111.45 79.0585 111.45 78.3761V60.0176ZM128.715 59.6309C131.532 59.6309 133.871 61.0868 134.985 62.6565V50.2356H139.278V79.6273H136.189C135.507 79.6273 134.962 79.0813 134.962 78.3988V76.9884C133.871 78.5581 131.509 80.014 128.692 80.014C123.331 80.014 119.264 75.4187 119.264 69.8224C119.287 64.2262 123.353 59.6309 128.715 59.6309ZM129.51 63.5437C126.034 63.5437 123.671 66.2964 123.671 69.8224C123.671 73.3485 126.011 76.1012 129.51 76.1012C132.986 76.1012 135.348 73.3485 135.348 69.8224C135.348 66.2964 132.986 63.5437 129.51 63.5437Z" fill="black"/>
<path id="Vector_2" d="M186.78 72.2114C185.576 72.2114 184.599 71.2332 184.599 70.0275C184.599 68.8218 185.576 67.8436 186.78 67.8436C187.984 67.8436 188.96 68.8218 188.96 70.0275C188.96 71.2332 187.984 72.2114 186.78 72.2114ZM162.768 72.2114C161.563 72.2114 160.587 71.2332 160.587 70.0275C160.587 68.8218 161.563 67.8436 162.768 67.8436C163.972 67.8436 164.948 68.8218 164.948 70.0275C164.948 71.2332 163.972 72.2114 162.768 72.2114ZM187.552 59.108L191.914 51.5781C192.163 51.1459 192.004 50.5999 191.573 50.3497C191.141 50.0994 190.596 50.2587 190.346 50.6909L185.939 58.3118C182.577 56.7649 178.806 55.9004 174.785 55.9004C170.764 55.9004 166.97 56.7649 163.608 58.2891L159.201 50.6682C158.951 50.2359 158.406 50.0767 157.974 50.3269C157.543 50.5772 157.384 51.1231 157.633 51.5554L161.972 59.0853C154.521 63.1573 149.41 70.71 148.66 79.6503H200.841C200.114 70.7327 195.026 63.1801 187.552 59.108Z" fill="#3DDA84"/>
</g>
<defs>
<clipPath id="clip0_3179_729">
<rect width="204" height="130" fill="white"/>
</clipPath>
</defs>
</svg>
