<svg width="86" height="86" viewBox="0 0 86 86" fill="none" xmlns="http://www.w3.org/2000/svg">
<g id="fi_731985">
<g id="Group">
<g id="Group_2">
<path id="Vector" d="M59.1199 0C54.535 0.317123 49.1762 3.25186 46.0533 7.07346C43.2046 10.5403 40.8611 15.6895 41.7748 20.6936C46.7843 20.8495 51.9604 17.8449 54.9596 13.9588C57.7654 10.3414 59.8885 5.22447 59.1199 0Z" fill="black"/>
</g>
</g>
<g id="Group_3">
<g id="Group_4">
<path id="Vector_2" d="M77.2386 28.8525C72.8365 23.3324 66.6499 20.1289 60.8073 20.1289C53.0942 20.1289 49.8316 23.8215 44.4728 23.8215C38.9473 23.8215 34.7495 20.1397 28.0791 20.1397C21.5271 20.1397 14.5503 24.144 10.1267 30.9917C3.90791 40.6344 4.97215 58.7642 15.0502 74.2065C18.6568 79.7319 23.4728 85.9454 29.7723 85.9991C35.3783 86.0529 36.9586 82.4033 44.5534 82.3657C52.1483 82.3227 53.5887 86.0475 59.1841 85.9884C65.4889 85.94 70.5683 79.0547 74.1749 73.5292C76.7602 69.5679 77.7224 67.5738 79.7272 63.1018C65.1449 57.5494 62.8068 36.8128 77.2386 28.8525Z" fill="black"/>
</g>
</g>
</g>
</svg>
