<svg width="86" height="86" viewBox="0 0 86 86" fill="none" xmlns="http://www.w3.org/2000/svg">
<g id="c-plus-plus 1" clip-path="url(#clip0_3179_745)">
<g id="Group">
<g id="Group_2">
<path id="Vector" fill-rule="evenodd" clip-rule="evenodd" d="M43.0014 30.2715C35.9494 30.2715 30.2734 35.9475 30.2734 42.9995C30.2734 45.2355 30.9614 47.4715 31.9934 49.1915L53.8374 36.6355C51.7734 32.8515 47.6454 30.2715 43.0014 30.2715Z" fill="#5E98CF"/>
<path id="Vector_2" fill-rule="evenodd" clip-rule="evenodd" d="M17.5445 43C17.5445 28.896 28.8965 17.544 43.0005 17.544C52.4605 17.544 60.5445 22.704 65.0165 30.272L80.3245 21.5C79.6365 20.468 78.7765 19.436 77.5725 18.748C67.4245 12.9 57.1045 7.05197 46.9565 1.20397C44.2045 -0.344031 41.6245 -0.344031 38.8725 1.20397C34.7445 3.61197 14.4485 15.308 8.42853 18.748C6.02053 20.124 4.64453 22.36 4.64453 25.284C4.64453 37.152 4.64453 48.848 4.64453 60.716C4.64453 62.092 4.98853 63.468 5.50453 64.5L20.8125 55.728C18.7485 51.944 17.5445 47.644 17.5445 43Z" fill="#5E98CF"/>
</g>
<g id="Group_3">
<path id="Vector_3" d="M31.9922 49.1921C34.2282 52.9761 38.3562 55.5561 43.0002 55.5561C47.8162 55.5561 51.7722 52.9761 54.0082 49.1921L43.1722 42.8281L31.9922 49.1921Z" fill="#044E87"/>
<path id="Vector_4" d="M42.9998 68.4557C33.5398 68.4557 25.2838 63.2957 20.9838 55.7277L5.67578 64.4997C6.36378 65.5317 7.22378 66.5637 8.42778 67.2517C14.4478 70.6917 34.7438 82.3877 38.8718 84.7957C41.6238 86.3437 44.2038 86.5157 46.9558 84.7957C57.1038 78.9477 67.2518 73.0997 77.5718 67.2517C78.7758 66.5637 79.8078 65.5317 80.3238 64.4997L65.0158 55.5557C60.7158 63.2957 52.4598 68.4557 42.9998 68.4557Z" fill="#044E87"/>
</g>
<path id="Vector_5" d="M81.1839 25.284C81.1839 23.908 80.8399 22.532 80.3239 21.5L43.1719 42.828L80.4959 64.328C81.0119 63.296 81.3559 61.92 81.3559 60.544C81.1839 60.716 81.1839 37.152 81.1839 25.284ZM68.6279 44.376H65.7039V47.3H62.7799V44.376H59.8559V41.452H62.7799V38.528H65.7039V41.452H68.6279V44.376ZM79.2919 44.376H76.3679V47.3H73.4439V44.376H70.5199V41.452H73.4439V38.528H76.3679V41.452H79.2919V44.376Z" fill="#0062A2"/>
<g id="Group_4">
<path id="Vector_6" d="M76.3675 38.5283H73.4435V41.4523H70.5195V44.3763H73.4435V47.3003H76.3675V44.3763H79.2915V41.4523H76.3675V38.5283Z" fill="white"/>
<path id="Vector_7" d="M65.7035 38.5283H62.7795V41.4523H59.8555V44.3763H62.7795V47.3003H65.7035V44.3763H68.6275V41.4523H65.7035V38.5283Z" fill="white"/>
<path id="Vector_8" d="M54.007 49.1919C51.771 52.9759 47.643 55.5559 42.999 55.5559C38.355 55.5559 34.227 52.9759 31.991 49.1919C30.959 47.2999 30.271 45.2359 30.271 42.9999C30.271 35.9479 35.947 30.2719 42.999 30.2719C47.643 30.2719 51.771 32.8519 54.007 36.6359L65.015 30.2719C60.543 22.7039 52.459 17.5439 42.999 17.5439C28.895 17.5439 17.543 28.8959 17.543 42.9999C17.543 47.6439 18.747 51.9439 20.983 55.7279C25.283 63.2959 33.539 68.4559 42.999 68.4559C52.459 68.4559 60.715 63.2959 65.015 55.7279L54.007 49.1919Z" fill="white"/>
</g>
</g>
</g>
<defs>
<clipPath id="clip0_3179_745">
<rect width="86" height="86" fill="white"/>
</clipPath>
</defs>
</svg>
