<svg width="74" height="83" viewBox="0 0 74 83" fill="none" xmlns="http://www.w3.org/2000/svg">
<g id="c-sharp 1" clip-path="url(#clip0_3179_760)">
<g id="Group 103722">
<path id="Path 63913" fill-rule="evenodd" clip-rule="evenodd" d="M36.9989 29.2886C34.8555 29.2881 32.7495 29.8496 30.8918 30.9169C29.0342 31.9841 27.4901 33.5198 26.4143 35.3699C25.3385 37.22 24.7686 39.3198 24.7618 41.4589C24.7549 43.598 25.3114 45.7013 26.3754 47.5582L47.5823 35.3667C46.5072 33.516 44.9636 31.9796 43.1062 30.9118C41.2487 29.8439 39.1426 29.2819 36.9989 29.2822" fill="#4187C5"/>
<path id="Path 63914" fill-rule="evenodd" clip-rule="evenodd" d="M12.4238 41.5004C12.4237 36.1025 14.2082 30.8553 17.5004 26.5723C20.7927 22.2894 25.4089 19.2101 30.6333 17.8117C35.8577 16.4133 41.3985 16.774 46.3965 18.838C51.3946 20.9019 55.5708 24.5536 58.2775 29.2271L73.0901 20.7156C72.4476 19.6237 71.5226 18.7244 70.4121 18.112C60.5617 12.4441 50.7087 6.78089 40.8529 1.12254C39.6732 0.379499 38.3039 -0.00842493 36.909 0.00523134C35.514 0.0188876 34.1526 0.433546 32.9877 1.19954C29.0672 3.50309 9.43395 14.7273 3.58448 18.1088C2.45528 18.7159 1.5201 19.6279 0.885907 20.7405C0.251712 21.8531 -0.055889 23.1214 -0.00171304 24.4003C-0.00171304 35.8004 -0.00171304 47.2005 -0.00171304 58.6006C-0.0283509 59.8604 0.269414 61.1059 0.863088 62.218L15.6788 53.7048C13.5399 49.992 12.4173 45.7831 12.4238 41.5004Z" fill="#4187C5"/>
<path id="Path 63915" d="M26.3711 47.5589C27.4445 49.4339 28.997 50.9913 30.8703 52.0721C32.7436 53.153 34.8707 53.7187 37.0345 53.7115C39.1984 53.7043 41.3216 53.1245 43.1877 52.0313C45.0538 50.938 46.5959 49.3704 47.6568 47.4883L37.1072 41.3926L26.3711 47.5589Z" fill="#003E75"/>
<path id="Path 63916" d="M36.9985 66.0256C32.6725 66.0275 28.4228 64.8891 24.6792 62.7258C20.9356 60.5625 17.8308 57.4509 15.679 53.7058L0.863281 62.219C1.50532 63.3431 2.44595 64.2685 3.58146 64.8931C9.43253 68.2746 29.0658 79.4908 32.9863 81.8072C34.1515 82.5731 35.5132 82.9877 36.9084 83.0014C38.3035 83.015 39.6731 82.6272 40.8531 81.8842C50.7014 76.2098 60.556 70.545 70.4171 64.8899C71.5526 64.2652 72.4932 63.3399 73.1353 62.2158L58.3469 53.6641C56.1981 57.4203 53.0918 60.5424 49.3433 62.7134C45.5948 64.8844 41.3374 66.0272 37.0033 66.0256" fill="#003E75"/>
<path id="Path 63920" d="M47.664 47.4888C46.341 49.8362 44.2776 51.6812 41.7948 52.7369C39.3121 53.7925 36.5493 53.9996 33.9364 53.3258C31.3235 52.652 29.0071 51.1351 27.3477 49.0113C25.6882 46.8875 24.7788 44.2758 24.7609 41.5827C24.7431 38.8895 25.6178 36.2661 27.2489 34.1205C28.88 31.9749 31.1761 30.4276 33.7798 29.7193C36.3835 29.0111 39.1488 29.1816 41.6453 30.2043C44.1419 31.2271 46.2296 33.0447 47.5837 35.3744L58.2796 29.2289C55.5699 24.5513 51.3883 20.8976 46.3841 18.8353C41.38 16.773 35.8335 16.4176 30.6061 17.8243C25.3788 19.231 20.7633 22.321 17.4764 26.6144C14.1896 30.9077 12.4156 36.1641 12.4298 41.5671C12.444 46.97 14.2457 52.217 17.5551 56.4931C20.8644 60.7692 25.4962 63.835 30.7308 65.2143C35.9655 66.5935 41.5101 66.2091 46.5033 64.1206C51.4965 62.0321 55.6589 58.3565 58.3439 53.6648L47.664 47.4888Z" fill="white"/>
<g id="Group 103719">
<path id="Path 63917" d="M73.9959 24.4024C74.0251 23.1147 73.7135 21.8421 73.0926 20.7129L37.1133 41.3871L73.136 62.2121C73.729 61.0998 74.0267 59.8544 74.0008 58.5948C74.0008 58.5948 74.0008 35.7999 74.0008 24.3992M61.7489 42.8741H58.9343V45.683H56.1196V42.8741H53.305V40.0653H56.1196V37.2596H58.9343V40.0685H61.7489V42.8741ZM72.0204 42.8741H69.2042V45.683H66.3879V42.8741H63.5781V40.0653H66.3928V37.2596H69.2042V40.0685H72.0188L72.0204 42.8741Z" fill="#005192"/>
<path id="Rectangle 43803" d="M72.3928 35.291H51.4961V48.1242H72.3928V35.291Z" fill="#095192"/>
</g>
<g id="Group 103721">
<g id="Clip path group">
<mask id="mask0_3179_760" style="mask-type:luminance" maskUnits="userSpaceOnUse" x="55" y="33" width="15" height="18">
<g id="clip-path">
<path id="Rectangle 43804" d="M69.9686 33.584H55.5547V50.1564H69.9686V33.584Z" fill="white"/>
</g>
</mask>
<g mask="url(#mask0_3179_760)">
<g id="Group 103720">
<path id="Path 63921" d="M69.5406 40.2269H67.7724C67.7327 40.2258 67.6937 40.2378 67.6615 40.261C67.6293 40.2842 67.6055 40.3173 67.594 40.3552L67.1117 43.3854C67.0956 43.4865 67.1455 43.5378 67.2725 43.5378H68.6243C68.6798 43.5297 68.7364 43.5347 68.7897 43.5523C68.8429 43.5699 68.8913 43.5997 68.9309 43.6393C68.9706 43.6789 69.0004 43.7271 69.0181 43.7803C69.0357 43.8334 69.0407 43.8899 69.0326 43.9453V45.6505C69.0407 45.7058 69.0357 45.7624 69.0181 45.8155C69.0004 45.8686 68.9706 45.9169 68.9309 45.9564C68.8913 45.996 68.8429 46.0258 68.7897 46.0434C68.7364 46.061 68.6798 46.066 68.6243 46.0579H66.8561C66.8164 46.0569 66.7775 46.0689 66.7453 46.0921C66.713 46.1153 66.6893 46.1483 66.6777 46.1863L66.1167 49.7747C66.1155 49.8289 66.103 49.8823 66.08 49.9315C66.0571 49.9806 66.0242 50.0245 65.9834 50.0604C65.9427 50.0962 65.8949 50.1233 65.8431 50.1398C65.7914 50.1564 65.7368 50.1621 65.6827 50.1565L63.54 50.1308C63.4839 50.1351 63.4274 50.1272 63.3747 50.1075C63.322 50.0878 63.2741 50.0569 63.2346 50.0169C63.1989 49.9725 63.1753 49.9196 63.166 49.8635C63.1567 49.8073 63.1621 49.7496 63.1815 49.6961L63.7184 46.2087C63.7527 46.1071 63.6991 46.0563 63.5577 46.0563H60.5823C60.5425 46.055 60.5035 46.0669 60.4712 46.0901C60.4389 46.1133 60.4152 46.1466 60.4039 46.1846L59.8413 49.7731C59.84 49.8273 59.8275 49.8807 59.8046 49.9299C59.7816 49.979 59.7487 50.0229 59.708 50.0588C59.6672 50.0946 59.6195 50.1217 59.5677 50.1382C59.516 50.1548 59.4613 50.1605 59.4073 50.1549L57.2646 50.1292C57.2084 50.1334 57.152 50.1254 57.0993 50.1058C57.0466 50.0861 56.9988 50.0552 56.9591 50.0153C56.9236 49.9708 56.9002 49.9179 56.8912 49.8617C56.8822 49.8055 56.8879 49.7479 56.9077 49.6945L57.443 46.2071C57.4767 46.106 57.4253 46.0547 57.2822 46.0547H55.9641C55.909 46.0627 55.8527 46.0577 55.7997 46.0403C55.7468 46.0228 55.6986 45.9934 55.659 45.9542C55.6194 45.915 55.5895 45.8671 55.5716 45.8144C55.5537 45.7617 55.5483 45.7056 55.5559 45.6505V43.9453C55.5463 43.8893 55.5502 43.8318 55.5673 43.7777C55.5843 43.7235 55.6139 43.6741 55.6538 43.6336C55.6936 43.593 55.7425 43.5625 55.7965 43.5444C55.8504 43.5264 55.9079 43.5214 55.9641 43.5298H57.7002C57.7838 43.5298 57.8448 43.4785 57.8786 43.3774L58.3367 40.3809C58.371 40.2739 58.3201 40.2204 58.184 40.2204H56.9077C56.8522 40.2285 56.7956 40.2236 56.7424 40.2059C56.6891 40.1883 56.6408 40.1585 56.6011 40.119C56.5615 40.0794 56.5316 40.0311 56.514 39.978C56.4963 39.9249 56.4913 39.8684 56.4994 39.813V38.0901C56.4913 38.0348 56.4963 37.9783 56.514 37.9251C56.5316 37.872 56.5615 37.8237 56.6011 37.7842C56.6408 37.7446 56.6891 37.7148 56.7424 37.6972C56.7956 37.6796 56.8522 37.6746 56.9077 37.6827H58.61C58.6497 37.6837 58.6886 37.6717 58.7209 37.6485C58.7531 37.6254 58.7768 37.5923 58.7884 37.5544L59.3574 33.9643C59.3589 33.9102 59.3716 33.857 59.3946 33.808C59.4177 33.7591 59.4506 33.7154 59.4913 33.6797C59.5321 33.644 59.5797 33.6171 59.6314 33.6006C59.683 33.5842 59.7375 33.5786 59.7915 33.5841L61.9326 33.6082C61.9891 33.6038 62.0459 33.6119 62.0989 33.6319C62.152 33.6518 62.2 33.6832 62.2396 33.7237C62.2748 33.7683 62.2981 33.8213 62.3071 33.8774C62.3161 33.9336 62.3105 33.9911 62.291 34.0445L61.7541 37.5287C61.7381 37.6297 61.7879 37.6891 61.9149 37.6891H64.8935C64.9332 37.6901 64.9721 37.6781 65.0043 37.6549C65.0366 37.6318 65.0603 37.5987 65.0719 37.5608L65.6329 33.9643C65.6344 33.9102 65.647 33.857 65.6701 33.808C65.6931 33.7591 65.726 33.7154 65.7668 33.6797C65.8075 33.644 65.8552 33.6171 65.9068 33.6006C65.9585 33.5842 66.013 33.5786 66.0669 33.5841L68.208 33.6082C68.2645 33.6039 68.3213 33.6121 68.3743 33.632C68.4273 33.652 68.4754 33.6832 68.515 33.7237C68.5503 33.7683 68.5735 33.8213 68.5825 33.8774C68.5915 33.9336 68.586 33.9911 68.5665 34.0445L68.0296 37.5287C68.0119 37.6297 68.0633 37.6891 68.1823 37.6891H69.5599C69.6153 37.6814 69.6718 37.6866 69.7248 37.7043C69.7779 37.7221 69.8261 37.7518 69.8657 37.7913C69.9053 37.8308 69.9351 37.879 69.9529 37.9319C69.9707 37.9849 69.9759 38.0412 69.9681 38.0966L69.944 39.821C69.9521 39.8764 69.9472 39.9329 69.9295 39.986C69.9118 40.0391 69.882 40.0874 69.8423 40.127C69.8027 40.1666 69.7543 40.1963 69.7011 40.214C69.6479 40.2316 69.5912 40.2365 69.5357 40.2285M64.1524 43.3854L64.6122 40.3809C64.6459 40.2782 64.5945 40.2204 64.4514 40.2204H61.5034C61.4637 40.2194 61.4247 40.2314 61.3925 40.2546C61.3603 40.2778 61.3365 40.3109 61.3249 40.3488L60.8427 43.379C60.8266 43.4801 60.8765 43.5314 61.0035 43.5314H63.974C64.0592 43.5314 64.1187 43.4801 64.1524 43.379" fill="white"/>
</g>
</g>
</g>
</g>
</g>
</g>
<defs>
<clipPath id="clip0_3179_760">
<rect width="74" height="83" fill="white"/>
</clipPath>
</defs>
</svg>
