<svg width="169" height="58" viewBox="0 0 169 58" fill="none" xmlns="http://www.w3.org/2000/svg">
<g id="Group 1171275235">
<path id="Vector" d="M161.779 34.2928C160.986 36.4264 159.003 37.6112 156.559 37.6112C155.686 37.6267 154.819 37.4682 154.007 37.1448C153.196 36.8214 152.458 36.3396 151.835 35.7277C151.212 35.1157 150.717 34.3858 150.379 33.5805C150.042 32.7753 149.868 31.9108 149.868 31.0376C149.868 30.1643 150.042 29.2999 150.379 28.4946C150.717 27.6893 151.212 26.9594 151.835 26.3475C152.458 25.7355 153.196 25.2538 154.007 24.9304C154.819 24.607 155.686 24.4484 156.559 24.4639C159.003 24.4639 160.924 25.5079 161.779 27.7844H168.484C167.374 21.9512 162.523 18.2061 156.557 18.2061C154.852 18.1755 153.159 18.4848 151.575 19.1159C149.991 19.747 148.549 20.6874 147.333 21.882C146.117 23.0767 145.151 24.5017 144.491 26.0738C143.832 27.6459 143.492 29.3337 143.492 31.0386C143.492 32.7435 143.832 34.4312 144.491 36.0034C145.151 37.5755 146.117 39.0005 147.333 40.1952C148.549 41.3898 149.991 42.3302 151.575 42.9613C153.159 43.5924 154.852 43.9017 156.557 43.8711C162.523 43.8711 167.679 39.6806 168.484 34.2928H161.779ZM134.161 18.8503H141.144V43.4174H134.163L134.161 18.8503ZM141.846 12.9136C141.858 13.4749 141.758 14.033 141.552 14.5552C141.346 15.0774 141.038 15.5532 140.645 15.9545C140.252 16.3559 139.784 16.6748 139.266 16.8925C138.749 17.1102 138.193 17.2224 137.631 17.2224C137.07 17.2224 136.514 17.1102 135.997 16.8925C135.479 16.6748 135.01 16.3559 134.618 15.9545C134.225 15.5532 133.917 15.0774 133.711 14.5552C133.504 14.033 133.405 13.4749 133.417 12.9136C133.417 11.7956 133.861 10.7234 134.652 9.93289C135.442 9.14236 136.514 8.69824 137.632 8.69824C138.75 8.69824 139.823 9.14236 140.613 9.93289C141.404 10.7234 141.846 11.7956 141.846 12.9136ZM114.161 21.858C115.334 19.7452 117.993 18.3014 121.825 18.3014C128.019 18.3014 131.298 22.2433 131.298 28.0951V43.4154H124.317V28.8263C124.317 25.9615 123.039 23.9895 119.953 23.9895C116.568 23.9895 114.693 26.063 114.693 29.3338V43.3947H107.715V18.8482H114.163L114.161 21.858Z" fill="#001A3A"/>
<path id="Vector_2" fill-rule="evenodd" clip-rule="evenodd" d="M92.6177 37.6113C93.4908 37.6269 94.3582 37.4685 95.1694 37.1452C95.9806 36.822 96.7192 36.3403 97.3423 35.7285C97.9653 35.1166 98.4601 34.3868 98.798 33.5816C99.1359 32.7764 99.31 31.9119 99.3101 31.0387C99.3103 30.1655 99.1364 29.301 98.7988 28.4956C98.4612 27.6903 97.9666 26.9603 97.3437 26.3483C96.7209 25.7362 95.9824 25.2544 95.1713 24.9308C94.3602 24.6073 93.4928 24.4486 92.6198 24.464C90.8965 24.4945 89.2542 25.2006 88.0463 26.4301C86.8385 27.6595 86.1617 29.3141 86.1617 31.0376C86.1617 32.7611 86.8385 34.4157 88.0463 35.6452C89.2542 36.8747 90.8965 37.5807 92.6198 37.6113H92.6177ZM92.6177 43.8691C94.33 43.9126 96.0338 43.6129 97.6285 42.9877C99.2232 42.3625 100.677 41.4244 101.903 40.2286C103.13 39.0329 104.104 37.6038 104.77 36.0255C105.435 34.4471 105.778 32.7516 105.778 31.0387C105.778 29.3258 105.435 27.6302 104.77 26.0519C104.104 24.4736 103.13 23.0444 101.903 21.8487C100.677 20.653 99.2232 19.7149 97.6285 19.0896C96.0338 18.4644 94.33 18.1647 92.6177 18.2082C90.9053 18.1647 89.2016 18.4644 87.6069 19.0896C86.0122 19.7149 84.5587 20.653 83.3322 21.8487C82.1057 23.0444 81.131 24.4736 80.4654 26.0519C79.7999 27.6302 79.457 29.3258 79.457 31.0387C79.457 32.7516 79.7999 34.4471 80.4654 36.0255C81.131 37.6038 82.1057 39.0329 83.3322 40.2286C84.5587 41.4244 86.0122 42.3625 87.6069 42.9877C89.2016 43.6129 90.9053 43.9126 92.6177 43.8691Z" fill="#001A3A"/>
<path id="Vector_3" d="M70.3473 18.8503H77.328V43.4174H70.3473V18.8503ZM78.0323 12.9136C78.0323 14.0316 77.5882 15.1038 76.7976 15.8943C76.0071 16.6848 74.9349 17.129 73.8169 17.129C72.6989 17.129 71.6267 16.6848 70.8362 15.8943C70.0457 15.1038 69.6016 14.0316 69.6016 12.9136C69.6016 11.7956 70.0457 10.7234 70.8362 9.93289C71.6267 9.14236 72.6989 8.69824 73.8169 8.69824C74.9349 8.69824 76.0071 9.14236 76.7976 9.93289C77.5882 10.7234 78.0323 11.7956 78.0323 12.9136Z" fill="#001A3A"/>
<path id="Vector_4" d="M6.96 29C6.96 16.8283 16.8283 6.96003 29 6.96003C33.901 6.96003 38.425 8.55503 42.0852 11.2624C42.5638 10.1373 43.2848 9.13182 44.1968 8.31758C45.1088 7.50333 46.1893 6.90045 47.3611 6.55195C42.1847 2.30671 35.6946 -0.00918057 29 2.73522e-05C12.9837 2.73522e-05 0 12.9837 0 29C0 45.0163 12.9837 58 29 58C45.0163 58 58 45.0163 58 29C58 25.6484 57.4303 22.4232 56.3801 19.4217C55.6539 20.4062 54.7183 21.2174 53.6409 21.797C52.5635 22.3765 51.371 22.71 50.1493 22.7733C50.7293 24.7453 51.04 26.8333 51.04 29C51.04 41.1717 41.1717 51.04 29 51.04C16.8283 51.04 6.96 41.1717 6.96 29Z" fill="#176BFF"/>
<path id="Vector_5" d="M57.4034 23.1254C57.1451 21.8695 56.8033 20.6321 56.3801 19.4217C55.6539 20.4062 54.7184 21.2174 53.6409 21.7969C52.5635 22.3765 51.371 22.7099 50.1493 22.7733C50.5655 24.1909 50.8375 25.6469 50.9613 27.1191C52.2598 26.9581 53.508 26.5177 54.62 25.8283C55.7321 25.1389 56.6817 24.2168 57.4034 23.1254ZM29 41.6875C32.3638 41.6837 35.5886 40.3457 37.9672 37.9672C40.3457 35.5886 41.6837 32.3638 41.6875 29C41.6837 25.6362 40.3457 22.4114 37.9672 20.0328C35.5886 17.6543 32.3638 16.3163 29 16.3125C25.6362 16.3163 22.4114 17.6543 20.0328 20.0328C17.6543 22.4114 16.3163 25.6362 16.3125 29C16.318 32.3632 17.6565 35.5872 20.0346 37.9654C22.4128 40.3435 25.6367 41.682 29 41.6875ZM48.0323 18.125C48.8653 18.125 49.6903 17.9609 50.4599 17.6421C51.2296 17.3233 51.9289 16.856 52.518 16.267C53.1071 15.6779 53.5743 14.9786 53.8931 14.2089C54.2119 13.4392 54.376 12.6143 54.376 11.7812C54.376 10.9482 54.2119 10.1233 53.8931 9.3536C53.5743 8.58394 53.1071 7.88461 52.518 7.29554C51.9289 6.70647 51.2296 6.23919 50.4599 5.92039C49.6903 5.60159 48.8653 5.4375 48.0323 5.4375C46.3498 5.4375 44.7363 6.10586 43.5466 7.29554C42.3569 8.48522 41.6885 10.0988 41.6885 11.7812C41.6885 13.4637 42.3569 15.0773 43.5466 16.267C44.7363 17.4566 46.3498 18.125 48.0323 18.125Z" fill="#176BFF"/>
</g>
</svg>
