<svg width="165" height="40" viewBox="0 0 178 40" fill="none" xmlns="http://www.w3.org/2000/svg">
<path d="M78.6724 1.94043H71.3508L55.398 18.9495V1.99679H49.5312V38.8568H55.398V21.0022L71.4071 38.8568H78.9939L61.9259 19.795L78.6724 1.94043Z" fill="black"/>
<path d="M98.632 13.065C96.5378 11.865 94.182 11.2577 91.5465 11.2577C88.862 11.2577 86.4553 11.8577 84.3302 13.065C82.2375 14.2373 80.5161 15.9749 79.3626 18.0795C78.182 20.2232 77.5898 22.6523 77.5898 25.3704C77.5898 28.0868 78.1802 30.525 79.3553 32.6614C80.4935 34.7658 82.2039 36.5044 84.2885 37.6759C86.4063 38.8741 88.8038 39.4814 91.4884 39.4814C94.1402 39.4814 96.5123 38.8814 98.6138 37.6759C100.685 36.5 102.382 34.7607 103.507 32.6595C104.673 30.5177 105.256 28.0868 105.256 25.3686C105.256 22.6523 104.675 20.2232 103.507 18.0795C102.386 15.9819 100.696 14.2438 98.632 13.065ZM98.2615 30.025C97.613 31.3704 96.7012 32.4141 95.5279 33.1704C94.3545 33.925 92.9996 34.3014 91.472 34.3014C89.9282 34.3014 88.5586 33.925 87.3671 33.1686C86.1657 32.4014 85.204 31.3114 84.5918 30.0232C83.9361 28.6777 83.6073 27.1341 83.6073 25.3777C83.6073 23.6214 83.9434 22.0777 84.6081 20.7323C85.2242 19.4415 86.1919 18.3512 87.3998 17.5868C88.5913 16.8323 89.9699 16.4541 91.5374 16.4541C93.0486 16.4541 94.3945 16.8323 95.5697 17.5868C96.7562 18.3569 97.7007 19.4474 98.2942 20.7323C98.9353 22.0777 99.255 23.6232 99.255 25.3777C99.2386 27.1268 98.9099 28.6777 98.2615 30.025ZM117.253 5.1559H111.564V9.73771C111.564 10.4595 111.392 11.0013 111.037 11.3541C110.685 11.7141 110.144 11.8959 109.405 11.8959H106.613V16.7395H111.457V31.245C111.457 32.7541 111.76 34.085 112.376 35.2341C112.969 36.3632 113.88 37.2936 114.995 37.9104C116.129 38.5432 117.465 38.8559 119.009 38.8559H123.352V33.7977H120.086C119.24 33.7977 118.559 33.5014 118.034 32.9195C117.507 32.3286 117.246 31.5559 117.246 30.5886V16.7395H123.508V11.8959H117.246V5.1559H117.253ZM133.827 0.519531H128.04V38.8541H133.829L133.827 0.519531ZM146.211 0.566804H140.366V6.51771H146.211V0.566804ZM146.153 11.8977H140.366V38.8541H146.153V11.8977ZM175.584 16.345C174.816 14.7952 173.618 13.499 172.135 12.6104C170.649 11.7159 168.917 11.265 166.929 11.265C164.821 11.265 162.974 11.7814 161.39 12.8068C160.124 13.6195 159.107 14.7195 158.302 16.0741L158.269 11.8959H152.735V38.8541H158.531V23.7668C158.531 22.3123 158.811 21.0159 159.361 19.8832C159.87 18.7938 160.686 17.8774 161.709 17.2468C162.719 16.625 163.893 16.3123 165.248 16.3123C166.463 16.3123 167.496 16.5668 168.366 17.0759C169.238 17.585 169.894 18.3159 170.337 19.2595C170.789 20.205 171.009 21.3359 171.009 22.6595V38.8541H176.807V21.845C176.807 19.7759 176.398 17.9377 175.584 16.345Z" fill="black"/>
<path d="M36.3265 38.182H0V1.81836H36.3265L17.7873 19.7365L36.3265 38.182Z" fill="url(#paint0_radial_3179_708)"/>
<defs>
<radialGradient id="paint0_radial_3179_708" cx="0" cy="0" r="1" gradientUnits="userSpaceOnUse" gradientTransform="translate(35.1187 3.3129) scale(41.6115 41.654)">
<stop offset="0.003" stop-color="#EF4857"/>
<stop offset="0.469" stop-color="#D211EC"/>
<stop offset="1" stop-color="#7F52FF"/>
</radialGradient>
</defs>
</svg>
