<svg xmlns="http://www.w3.org/2000/svg" width="70" height="70" viewBox="0 0 70 70" fill="none">
  <g clip-path="url(#clip0_3179_297)">
    <path d="M26.8076 36.0873C27.1671 36.0873 27.5006 35.8989 27.686 35.5907L29.5359 32.518L31.9873 36.4134C32.179 36.7181 32.5139 36.899 32.8767 36.8924C33.2366 36.8849 33.5663 36.6891 33.7451 36.3766L37.6915 29.4811L42.9918 39.1402C43.1687 39.4626 43.5048 39.6656 43.8725 39.6722C43.8786 39.6722 43.8847 39.6723 43.8907 39.6723C44.2515 39.6723 44.5865 39.4824 44.7716 39.1717L48.0738 33.6283H56.0365C56.6028 33.6283 57.0619 33.1692 57.0619 32.6029C57.0619 32.0366 56.6028 31.5775 56.0365 31.5775H47.4911C47.1297 31.5775 46.795 31.7677 46.6102 32.0782L43.9272 36.582L38.6093 26.8905C38.4307 26.5653 38.0906 26.3618 37.7195 26.3584C37.7164 26.3584 37.7134 26.3584 37.7102 26.3584C37.3427 26.3584 37.0031 26.5551 36.8203 26.8744L32.8134 33.8757L30.3844 30.016C30.1966 29.7176 29.8688 29.5368 29.5165 29.5368C29.5132 29.5368 29.5098 29.5368 29.5064 29.5368C29.1504 29.5403 28.8217 29.7282 28.6381 30.0333L26.228 34.0365H20.4004C19.8341 34.0365 19.375 34.4956 19.375 35.0619C19.375 35.6282 19.8341 36.0873 20.4004 36.0873H26.8076Z" fill="white"/>
    <path d="M57.8448 7.62793C57.2785 7.62793 56.8194 8.08703 56.8194 8.65332V11.6781H53.7949C53.2286 11.6781 52.7695 12.1372 52.7695 12.7035C52.7695 13.2698 53.2286 13.7289 53.7949 13.7289H56.8194V16.7538C56.8194 17.3201 57.2785 17.7792 57.8448 17.7792C58.4111 17.7792 58.8702 17.3201 58.8702 16.7538V13.7289H61.8947C62.461 13.7289 62.9201 13.2698 62.9201 12.7035C62.9201 12.1372 62.461 11.6781 61.8947 11.6781H58.8702V8.65332C58.8702 8.08703 58.4111 7.62793 57.8448 7.62793Z" fill="white"/>
    <path d="M61.4633 42.7598C66.4588 37.4191 67.8906 29.3433 65.1446 22.4198C68.0913 20.199 70 16.6701 70 12.7034C70 6.00074 64.5474 0.547852 57.8452 0.547852C55.0921 0.547852 52.3961 1.49271 50.2537 3.2084C49.8117 3.56236 49.7403 4.20768 50.0943 4.64969C50.4483 5.09156 51.0936 5.16307 51.5356 4.8091C53.3414 3.36289 55.5231 2.59863 57.845 2.59863C63.4163 2.59863 67.9491 7.13168 67.9491 12.7034C67.9491 18.2774 63.4164 22.8121 57.845 22.8121C52.6575 22.8121 48.3723 18.8831 47.8033 13.8448C47.8022 13.8332 47.8003 13.8215 47.7988 13.8097C47.759 13.4462 47.737 13.0773 47.737 12.7034C47.737 11.1207 48.0926 9.60725 48.7937 8.20478C49.0469 7.69824 48.8415 7.08232 48.3351 6.82898C47.8282 6.57592 47.2127 6.78113 46.9593 7.28754C46.1146 8.97725 45.6862 10.7994 45.6862 12.7032C45.6862 12.8755 45.6907 13.0467 45.6978 13.2173C43.1087 14.1428 40.6919 15.6648 38.6665 17.6567L37.5331 18.771C37.5277 18.7655 37.5236 18.7614 37.5181 18.7559L36.4038 17.6581C32.7986 14.1034 28.079 12.1169 23.4538 12.2126C19.6052 12.2919 16.1995 13.7999 13.606 16.5725C13.2191 16.9868 13.2409 17.6362 13.6552 18.0231C14.0695 18.4087 14.7175 18.3881 15.1044 17.9739C17.3111 15.6141 20.2122 14.3303 23.4962 14.2633C27.5704 14.1799 31.7499 15.9505 34.9642 19.1182L36.0798 20.2174C36.6185 20.7479 37.0779 21.0118 37.5359 21.0118C37.9898 21.0118 38.4423 20.752 38.9714 20.2325L40.1048 19.1182C41.8079 17.4442 43.8167 16.1408 45.9673 15.3047C47.1618 20.7636 52.0332 24.8627 57.8449 24.8627C59.8345 24.8627 61.714 24.382 63.3734 23.5305C65.6455 29.642 64.3409 36.6728 59.9728 41.3499L45.2525 56.418L44.0344 56.6559C43.7391 56.7133 43.4779 56.7652 43.24 56.8131C41.6951 57.1262 41.326 57.2 39.5172 56.9211L30.7467 55.3174C29.5518 54.9045 29.6721 53.9529 29.7391 53.6672C29.8443 53.2229 30.2572 52.5051 31.1445 52.6391C31.1527 52.6404 31.1609 52.6418 31.1691 52.6432C31.5643 52.6937 31.9881 52.7484 32.4311 52.8045C34.0922 53.0191 35.9734 53.2611 37.6441 53.432C41.0621 53.7779 42.9953 51.9842 43.3973 50.051C43.8061 48.0809 42.6836 45.4613 39.252 44.3662C39.2109 44.3539 39.1686 44.343 39.1248 44.3348L33.477 43.2984C30.4117 42.7365 28.0273 43.1699 24.418 43.8262C23.4637 43.9998 22.3809 44.1953 21.175 44.3936L18.498 44.8338L17.6736 43.9902L15.0965 41.3516C10.2799 36.1877 9.21211 28.0994 12.5043 21.6777C12.7627 21.1746 12.5631 20.5566 12.06 20.2982C11.5555 20.0398 10.9375 20.2381 10.6791 20.7426C6.99863 27.923 8.20176 36.9766 13.6062 42.7598C13.6117 42.7652 13.6172 42.7707 13.6213 42.7762L16.0275 45.2398L11.5462 45.9765V45.8595C11.5462 45.0677 10.8477 44.4236 9.98908 44.4236H1.55312C0.696719 44.4236 0 45.0677 0 45.8595V63.9015C0 64.6933 0.696719 65.3374 1.55312 65.3374H9.98922C10.8478 65.3374 11.5463 64.6933 11.5463 63.9015V63.7773L20.7676 66.2863L29.2797 68.5996C31.2225 69.2025 32.7879 69.4514 34.2166 69.4514C36.4779 69.4514 38.3988 68.8307 40.9363 68.0104C41.1619 67.9379 41.393 67.8627 41.6309 67.7861L58.4049 62.4076C60.349 61.7842 61.7326 60.3842 62.1045 58.6629C62.393 57.3285 61.991 56.0105 61.0285 55.1369C60.2492 54.4301 58.4172 53.4156 54.8857 54.5326L48.7963 55.7234L61.4482 42.7762C61.4537 42.7707 61.4578 42.7652 61.4633 42.7598ZM2.05078 63.2866V46.4743H9.49539V47.1788C9.49539 47.181 9.49512 47.183 9.49512 47.1852V62.4348C9.49512 62.4361 9.49539 62.4371 9.49539 62.4384V63.2866H2.05078ZM55.4531 56.5041C57.3453 55.8971 58.8752 55.9518 59.6518 56.6559C60.0701 57.0359 60.2342 57.6102 60.1002 58.2281C59.8842 59.2248 59.016 60.0574 57.7787 60.4539L41.0033 65.8338C40.7641 65.9103 40.5316 65.9855 40.3047 66.0594C36.292 67.3555 34.2781 68.0076 29.8703 66.6363C29.8594 66.6322 29.8471 66.6295 29.8348 66.6254L11.5462 61.6517V48.0549L21.5072 46.4184C22.7295 46.2174 23.8219 46.0178 24.7857 45.8428C28.2926 45.2057 30.4104 44.8215 33.1064 45.3164L38.6887 46.3404C40.8652 47.0555 41.6158 48.5443 41.3889 49.634C41.1277 50.8932 39.7387 51.5836 37.852 51.3922C36.2086 51.224 34.341 50.9834 32.6936 50.7715C32.2533 50.7141 31.8309 50.6594 31.4385 50.6102C29.4779 50.3203 28.0957 51.6916 27.743 53.1996C27.6678 53.5209 27.6377 53.8627 27.6596 54.2072C27.7348 55.4541 28.4799 56.7475 30.1807 57.2902C30.223 57.3039 30.7891 57.4092 30.7891 57.4092L39.1631 58.9404C39.1713 58.9418 39.1809 58.9432 39.1904 58.9445C40.9186 59.2139 41.6664 59.1906 42.726 59.0033C43.0035 58.9541 44.1355 58.7244 44.4268 58.6684L46.2725 58.3074C46.2725 58.3074 55.4148 56.5164 55.4531 56.5041Z" fill="white"/>
  </g>
  <defs>
    <clipPath id="clip0_3179_297">
      <rect width="70" height="70" fill="white"/>
    </clipPath>
  </defs>
</svg>