<svg width="95" height="33" viewBox="0 0 95 33" fill="none" xmlns="http://www.w3.org/2000/svg">
<path id="Vector" d="M4.45534 23.6383C4.8402 26.9795 8.09717 29.1703 12.6201 29.1703C16.9173 29.1703 20.0162 26.9804 20.0162 23.9478C20.0162 21.3366 18.1386 19.7424 13.8185 18.6806L9.63466 17.6392C3.61897 16.1793 0.904993 13.5223 0.904993 9.14077C0.904993 3.7402 5.72232 0 12.5754 0C19.2236 0 23.9504 3.76259 24.1095 9.18554H19.6989C19.3598 5.86481 16.6001 3.82877 12.462 3.82877C8.36767 3.82877 5.51845 5.88719 5.51845 8.89648C5.51845 11.242 7.28268 12.6377 11.6246 13.7219L15.1083 14.6075C21.848 16.2231 24.6068 18.7905 24.6068 23.4164C24.6068 29.3046 19.8342 33 12.2353 33C5.17932 33 0.361996 29.326 0 23.6373L4.45534 23.6383ZM52.6207 32.4686H48.1882L43.0089 14.807H42.9194L37.7619 32.4686H33.3305L26.7718 9.33931H31.068L35.6367 27.9089H35.7272L40.8836 9.33931H45.0456L50.2468 27.9089H50.3373L54.906 9.33931H59.1575L52.6207 32.4686ZM62.0186 3.12024C62.0186 1.72655 63.1961 0.597576 64.6202 0.597576C66.0682 0.597576 67.2437 1.72655 67.2437 3.12024C67.2437 4.51491 66.0682 5.66529 64.6202 5.66529C63.9317 5.66146 63.2725 5.39209 62.7856 4.91563C62.2988 4.43917 62.0225 3.79405 62.0186 3.12024ZM62.4721 9.33931H66.7912V32.4686H62.4721V9.33931ZM95 12.7486V9.33931H90.4323V3.80638H86.1341V9.33931H77.8778V7.30327C77.8997 5.24485 78.7132 4.38157 80.6594 4.38157C81.2919 4.38157 81.9254 4.44873 82.4455 4.53729V1.21559C81.6901 1.09997 80.9268 1.04075 80.1622 1.03846C75.5477 1.03846 73.6025 2.92072 73.6025 7.23612V9.33834H70.3008V12.7476H73.6025V32.4676H77.8997V12.7486H86.1351V26.4033C86.1351 30.8744 87.8754 32.6 92.3994 32.6C93.372 32.6 94.4799 32.5338 94.9781 32.4238V28.9707C94.4375 29.0361 93.8938 29.0732 93.3491 29.0817C91.3363 29.0817 90.4323 28.1522 90.4323 26.0714V12.7486H95Z" fill="black"/>
</svg>
