<svg width="37" height="33" viewBox="0 0 37 33" fill="none" xmlns="http://www.w3.org/2000/svg">
<path id="Vector" d="M33.9149 23.2154L33.9119 23.2125C33.9654 23.0279 34.0209 22.8453 34.0694 22.6568C36.1033 14.5787 31.1383 5.02804 22.738 0C26.4197 4.97474 28.0467 10.9997 26.6 16.2686C26.4712 16.7394 26.3168 17.1905 26.1454 17.6287C25.9061 17.4751 25.661 17.3305 25.4107 17.1954C25.4107 17.1954 17.053 12.0529 7.99623 2.95523C7.75857 2.71637 12.8257 10.1745 18.577 16.2311C15.8677 14.7159 8.31608 9.2388 3.53616 4.87801C4.12338 5.85519 4.82249 6.79486 5.58993 7.69999C9.58161 12.7458 14.7883 18.9721 21.0249 23.7534C16.643 26.4263 10.451 26.6336 4.28578 23.7564C2.77638 23.0497 1.3408 22.1961 0 21.2078C2.7568 25.5721 6.77253 29.0041 11.5205 31.0536C17.355 33.5528 23.1559 33.3831 27.4763 31.0951L27.4734 31.1C27.4932 31.0872 27.5179 31.0744 27.5387 31.0605C27.716 30.9668 27.8922 30.869 28.0635 30.7674C30.1401 29.6935 34.2407 28.6038 36.441 32.8718C36.9807 33.9171 38.1264 28.3807 33.9159 23.2164L33.9149 23.2154Z" fill="white"/>
</svg>
