<svg width="165" height="103" viewBox="0 0 189 43" fill="none" xmlns="http://www.w3.org/2000/svg">
<path id="Logo" fill-rule="evenodd" clip-rule="evenodd" d="M75.7373 33.6556L70.8489 24.3023L65.8489 33.6556H60.4723L68.0955 21.5841L61.2351 9.58685H66.686L71.1372 18.7017L75.9605 9.58685H80.9464L73.8999 21.5098L81.058 33.6556H75.7373ZM93.1684 33.6556V31.0361H93.094C91.7669 33.0921 89.8879 34.1201 87.457 34.1201C85.5842 34.1201 84.1083 33.6123 83.0292 32.5967C81.9502 31.5687 81.4107 30.1938 81.4107 28.4722C81.4107 24.7813 83.4881 22.682 87.643 22.1741L93.2056 21.4124C93.2056 18.8238 92.0025 17.5295 89.5964 17.5295C87.302 17.5295 85.1935 18.2355 83.2711 19.6475V15.8574C83.9904 15.424 85.0198 15.0338 86.3593 14.687C87.7113 14.3402 88.9391 14.1668 90.043 14.1668C94.9544 14.1668 97.41 16.644 97.4101 21.5982V33.6556H93.1684ZM89.0941 24.9423C87.8167 25.1033 86.9175 25.4192 86.3966 25.8898C85.888 26.3481 85.6338 27.0603 85.6338 28.0264C85.6338 28.819 85.9253 29.4693 86.5082 29.9771C87.0911 30.4725 87.8538 30.7202 88.7964 30.7202C90.0739 30.7202 91.1281 30.2805 91.9591 29.4012C92.7901 28.5218 93.2056 27.4257 93.2056 26.1128V24.4035L89.0941 24.9423ZM124.84 33.6556V22.9173C124.84 21.1461 124.561 19.8333 124.002 18.9786C123.457 18.1117 122.477 17.6781 121.063 17.6781C119.934 17.6781 118.986 18.1983 118.217 19.2387C117.448 20.2668 117.063 21.5115 117.063 22.973V33.6556H112.766V22.5457C112.766 19.3007 111.519 17.6781 109.026 17.6781C107.86 17.6781 106.899 18.1674 106.143 19.1458C105.398 20.1243 105.026 21.4 105.026 22.973V33.6556H100.729V14.6313H105.026V17.5667H105.101C106.478 15.3001 108.487 14.1668 111.129 14.1668C112.394 14.1668 113.51 14.5012 114.477 15.17C115.457 15.8265 116.145 16.7368 116.542 17.9011C117.993 15.4116 120.127 14.1668 122.942 14.1668C127.084 14.1668 129.156 16.743 129.156 21.8955V33.6556H124.84ZM143.443 33.6556V31.0361H143.368C142.041 33.0921 140.162 34.1201 137.731 34.1201C135.859 34.1201 134.383 33.6123 133.304 32.5967C132.225 31.5687 131.685 30.1938 131.685 28.4722C131.685 24.7813 133.763 22.682 137.917 22.1741L143.48 21.4124C143.48 18.8238 142.277 17.5295 139.871 17.5295C137.576 17.5295 135.468 18.2355 133.545 19.6475V15.8574C134.265 15.424 135.294 15.0338 136.634 14.687C137.986 14.3402 139.213 14.1668 140.317 14.1668C145.229 14.1668 147.684 16.644 147.684 21.5982V33.6556H143.443ZM139.369 24.9423C138.091 25.1033 137.192 25.4192 136.671 25.8898C136.162 26.3481 135.908 27.0603 135.908 28.0264C135.908 28.819 136.2 29.4693 136.783 29.9771C137.365 30.4725 138.128 30.7202 139.071 30.7202C140.348 30.7202 141.403 30.2805 142.234 29.4012C143.064 28.5218 143.48 27.4257 143.48 26.1128V24.4035L139.369 24.9423ZM162.08 18.8114C161.373 18.3779 160.542 18.1612 159.587 18.1612C158.347 18.1612 157.336 18.6938 156.555 19.7589C155.786 20.8241 155.401 22.2113 155.401 23.9205V33.6556H151.104V14.6313H155.401V18.3284H155.476C156.393 15.6407 158.018 14.2969 160.35 14.2969C161.106 14.2969 161.683 14.3836 162.08 14.557L162.08 18.8114ZM166.358 10.3768C165.626 10.3768 165.006 10.1415 164.498 9.67081C163.989 9.1878 163.735 8.59947 163.735 7.90585C163.735 7.18751 163.989 6.5868 164.498 6.10375C165.006 5.62072 165.626 5.3792 166.358 5.37917C167.102 5.3792 167.729 5.62692 168.237 6.12232C168.746 6.60538 169 7.19989 169 7.90585C169 8.59947 168.746 9.1878 168.237 9.67081C167.729 10.1415 167.102 10.3768 166.358 10.3768ZM164.163 33.6556V14.6313H168.46V33.6556H164.163ZM184.702 33.6556V22.973C184.702 19.4431 183.431 17.6781 180.889 17.6781C179.611 17.6781 178.538 18.1674 177.67 19.1458C176.814 20.1119 176.386 21.3443 176.386 22.843V33.6556H172.089V14.6313H176.386V17.6781H176.461C177.85 15.3373 179.909 14.1668 182.637 14.1668C186.879 14.1668 189 16.7678 189 21.9698V33.6556H184.702ZM13.9462 0C12.6408 0.00276783 11.363 0.74366 10.7059 1.87392L0.485182 19.6261C-0.161727 20.7594 -0.161727 22.2406 0.485182 23.3739L10.7059 41.1261C11.3631 42.2564 12.6408 42.9974 13.9462 43H34.3875C35.6929 42.9972 36.9707 42.2564 37.6279 41.1261L47.8486 23.3739C48.4955 22.2406 48.4954 20.7594 47.8486 19.6261L37.6279 1.87392C36.9707 0.74366 35.6929 0.00256025 34.3875 0H13.9462ZM14.1317 10.3852C14.1598 10.3825 14.1893 10.3825 14.2174 10.3852H17.7433C17.8993 10.3885 18.0507 10.4786 18.1287 10.6141L24.1098 21.2711C24.1399 21.3238 24.1593 21.3825 24.1667 21.4428C24.174 21.3825 24.1934 21.3238 24.2235 21.2711L30.1903 10.6141C30.2707 10.4745 30.4292 10.3839 30.59 10.3852H34.1158C34.428 10.388 34.6618 10.7812 34.5155 11.0576L28.6772 21.5L34.5155 31.9281C34.6757 32.2061 34.4361 32.6175 34.1158 32.6148H30.59C30.4264 32.6134 30.267 32.5164 30.1903 32.3716L24.2235 21.7146C24.1934 21.6619 24.174 21.6032 24.1667 21.5429C24.1593 21.6032 24.1399 21.6619 24.1098 21.7146L18.1287 32.3716C18.0543 32.5123 17.9021 32.6084 17.7433 32.6148H14.2174C13.8971 32.6175 13.6576 32.2061 13.8178 31.9281L19.6561 21.5L13.8178 11.0576C13.6778 10.8054 13.8486 10.439 14.1317 10.3852Z" fill="#3498DB"/>
</svg>
